BriemScript-Medium.ufo
<glyph name="exclam" format="2">
  <advance width="300.36607142857144"/>
  <unicode hex="0021"/>
  <outline>
    <contour>
      <point x="127.74464285714286" y="219.96428571428572" type="curve" smooth="yes"/>
      <point x="163.95714285714286" y="219.96428571428572"/>
      <point x="192.6875" y="227.95714285714286"/>
      <point x="195.18392857142857" y="243.1107142857143" type="curve" smooth="yes"/>
      <point x="196.43214285714285" y="266.8696428571429"/>
      <point x="244.3375" y="537.1232142857143"/>
      <point x="244.3375" y="603.2107142857143" type="curve" smooth="yes"/>
      <point x="244.3375" y="639.5035714285714"/>
      <point x="181.55535714285713" y="652.0"/>
      <point x="141.67142857142858" y="652.0" type="curve" smooth="yes"/>
      <point x="123.68571428571428" y="652.0"/>
      <point x="112.18928571428572" y="647.5035714285714"/>
      <point x="112.18928571428572" y="634.9267857142858" type="curve" smooth="yes"/>
      <point x="112.18928571428572" y="602.1964285714286"/>
      <point x="104.34285714285714" y="274.29285714285714"/>
      <point x="104.34285714285714" y="228.29285714285714" type="curve" smooth="yes"/>
      <point x="104.34285714285714" y="222.2125"/>
      <point x="117.0" y="219.96428571428572"/>
    </contour>
    <contour>
      <point x="130.55535714285713" y="-0.4160714285714286" type="curve" smooth="yes"/>
      <point x="168.86964285714285" y="-0.4160714285714286"/>
      <point x="203.68035714285713" y="19.49642857142857"/>
      <point x="203.68035714285713" y="62.635714285714286" type="curve" smooth="yes"/>
      <point x="203.68035714285713" y="100.38035714285715"/>
      <point x="179.94285714285715" y="132.19107142857143"/>
      <point x="148.88392857142858" y="132.19107142857143" type="curve" smooth="yes"/>
      <point x="117.15357142857142" y="132.19107142857143"/>
      <point x="74.34285714285714" y="101.45357142857142"/>
      <point x="74.34285714285714" y="57.46785714285714" type="curve" smooth="yes"/>
      <point x="74.34285714285714" y="16.160714285714285"/>
      <point x="98.15357142857142" y="-0.4160714285714286"/>
    </contour>
  </outline>
</glyph>
<glyph name="quotedbl" format="2">
  <advance width="370.75357142857143"/>
  <unicode hex="0022"/>
  <outline>
    <contour>
      <point x="274.95714285714286" y="435.35714285714283" type="curve" smooth="yes"/>
      <point x="293.5267857142857" y="435.35714285714283"/>
      <point x="302.2714285714286" y="443.7732142857143"/>
      <point x="320.0160714285714" y="483.26964285714286" type="curve" smooth="yes"/>
      <point x="340.3375" y="527.9196428571429"/>
      <point x="375.25" y="615.7660714285714"/>
      <point x="375.25" y="630.5107142857142" type="curve" smooth="yes"/>
      <point x="375.25" y="647.0875"/>
      <point x="355.26428571428573" y="651.5839285714286"/>
      <point x="316.125" y="651.5839285714286" type="curve" smooth="yes"/>
      <point x="274.98571428571427" y="651.5839285714286"/>
      <point x="255.9125" y="643.9196428571429"/>
      <point x="254.74464285714285" y="618.7589285714286" type="curve" smooth="yes"/>
      <point x="252.99285714285713" y="587.5035714285714"/>
      <point x="249.5625" y="488.7446428571429"/>
      <point x="250.81071428571428" y="469.16785714285714" type="curve" smooth="yes"/>
      <point x="252.89107142857142" y="441.6857142857143"/>
      <point x="258.13928571428573" y="435.35714285714283"/>
    </contour>
    <contour>
      <point x="81.14642857142857" y="435.7732142857143" type="curve" smooth="yes"/>
      <point x="99.71607142857142" y="435.7732142857143"/>
      <point x="108.46071428571429" y="444.1892857142857"/>
      <point x="126.20535714285714" y="483.6857142857143" type="curve" smooth="yes"/>
      <point x="146.52678571428572" y="528.3357142857143"/>
      <point x="181.43928571428572" y="616.1821428571428"/>
      <point x="181.43928571428572" y="630.9267857142858" type="curve" smooth="yes"/>
      <point x="181.43928571428572" y="647.5035714285714"/>
      <point x="161.45357142857142" y="652.0"/>
      <point x="122.31428571428572" y="652.0" type="curve" smooth="yes"/>
      <point x="81.175" y="652.0"/>
      <point x="62.10178571428571" y="644.3357142857143"/>
      <point x="60.93392857142857" y="619.175" type="curve" smooth="yes"/>
      <point x="59.18214285714286" y="587.9196428571429"/>
      <point x="55.75178571428572" y="489.1607142857143"/>
      <point x="57.0" y="469.58392857142854" type="curve" smooth="yes"/>
      <point x="59.080357142857146" y="442.1017857142857"/>
      <point x="64.32857142857142" y="435.7732142857143"/>
    </contour>
  </outline>
</glyph>
<glyph name="numbersign" format="2">
  <advance width="659.325"/>
  <unicode hex="0023"/>
  <outline>
    <contour>
      <point x="219.6732142857143" y="-13.0" type="curve" smooth="yes"/>
      <point x="240.3232142857143" y="-13.0"/>
      <point x="242.9875" y="-7.919642857142858"/>
      <point x="242.9875" y="3.7375000000000007" type="curve" smooth="yes"/>
      <point x="242.9875" y="54.57678571428571"/>
      <point x="245.57142857142856" y="120.75178571428572"/>
      <point x="248.7392857142857" y="188.9267857142857" type="curve"/>
      <point x="401.41785714285714" y="188.9267857142857" type="line"/>
      <point x="395.8339285714286" y="98.08035714285714"/>
      <point x="391.08214285714286" y="33.5625"/>
      <point x="391.08214285714286" y="28.146428571428572" type="curve" smooth="yes"/>
      <point x="391.08214285714286" y="0.1607142857142856"/>
      <point x="441.7910714285714" y="-13.0"/>
      <point x="478.10535714285714" y="-13.0" type="curve" smooth="yes"/>
      <point x="498.1714285714286" y="-13.0"/>
      <point x="501.4196428571429" y="-7.919642857142858"/>
      <point x="501.4196428571429" y="3.7375000000000007" type="curve" smooth="yes"/>
      <point x="501.4196428571429" y="54.57678571428571"/>
      <point x="503.4196428571429" y="120.75178571428572"/>
      <point x="506.5875" y="188.9267857142857" type="curve"/>
      <point x="589.8428571428572" y="188.9267857142857" type="line" smooth="yes"/>
      <point x="605.4267857142858" y="188.9267857142857"/>
      <point x="614.0910714285715" y="209.175"/>
      <point x="614.0910714285715" y="234.6642857142857" type="curve" smooth="yes"/>
      <point x="614.0910714285715" y="247.7375"/>
      <point x="611.0910714285715" y="250.15357142857144"/>
      <point x="604.0107142857142" y="250.15357142857144" type="curve" smooth="yes"/>
      <point x="508.2517857142857" y="250.15357142857144" type="line"/>
      <point x="510.2517857142857" y="304.1607142857143"/>
      <point x="513.8357142857143" y="356.7517857142857"/>
      <point x="517.0035714285714" y="403.09464285714284" type="curve"/>
      <point x="604.8428571428572" y="403.09464285714284" type="line" smooth="yes"/>
      <point x="620.4267857142858" y="403.09464285714284"/>
      <point x="629.0910714285715" y="422.75892857142856"/>
      <point x="629.0910714285715" y="448.2482142857143" type="curve" smooth="yes"/>
      <point x="629.0910714285715" y="461.32142857142856"/>
      <point x="626.0910714285715" y="463.7375"/>
      <point x="619.0107142857142" y="463.7375" type="curve" smooth="yes"/>
      <point x="519.2517857142857" y="463.7375" type="line"/>
      <point x="524.5875" y="545.4232142857143"/>
      <point x="529.3392857142858" y="606.0214285714286"/>
      <point x="529.3392857142858" y="611.4375" type="curve" smooth="yes"/>
      <point x="529.3392857142858" y="639.8392857142857"/>
      <point x="478.6303571428572" y="652.0"/>
      <point x="443.31607142857143" y="652.0" type="curve" smooth="yes"/>
      <point x="422.25" y="652.0"/>
      <point x="420.0017857142857" y="647.9196428571429"/>
      <point x="420.0017857142857" y="635.8464285714285" type="curve" smooth="yes"/>
      <point x="418.8339285714286" y="598.9339285714286"/>
      <point x="416.66607142857146" y="535.6714285714286"/>
      <point x="413.08214285714286" y="463.7375" type="curve"/>
      <point x="261.4035714285714" y="463.7375" type="line"/>
      <point x="266.15535714285716" y="545.4232142857143"/>
      <point x="271.49107142857144" y="606.0214285714286"/>
      <point x="271.49107142857144" y="611.4375" type="curve" smooth="yes"/>
      <point x="271.49107142857144" y="639.8392857142857"/>
      <point x="220.78214285714284" y="652.0"/>
      <point x="184.88392857142858" y="652.0" type="curve" smooth="yes"/>
      <point x="164.40178571428572" y="652.0"/>
      <point x="161.56964285714287" y="647.9196428571429"/>
      <point x="161.56964285714287" y="635.8464285714285" type="curve" smooth="yes"/>
      <point x="160.9857142857143" y="598.9339285714286"/>
      <point x="158.23392857142858" y="535.6714285714286"/>
      <point x="155.23392857142858" y="463.7375" type="curve"/>
      <point x="73.64285714285714" y="463.7375" type="line" smooth="yes"/>
      <point x="57.475" y="463.7375"/>
      <point x="49.394642857142856" y="443.4892857142857"/>
      <point x="49.394642857142856" y="418.0" type="curve" smooth="yes"/>
      <point x="49.394642857142856" y="404.9267857142857"/>
      <point x="52.394642857142856" y="403.09464285714284"/>
      <point x="59.475" y="403.09464285714284" type="curve" smooth="yes"/>
      <point x="153.56964285714287" y="403.09464285714284" type="line"/>
      <point x="145.23392857142858" y="250.15357142857144" type="line"/>
      <point x="58.64285714285714" y="250.15357142857144" type="line" smooth="yes"/>
      <point x="42.475" y="250.15357142857144"/>
      <point x="34.394642857142856" y="229.90535714285716"/>
      <point x="34.394642857142856" y="204.41607142857143" type="curve" smooth="yes"/>
      <point x="34.394642857142856" y="191.34285714285716"/>
      <point x="36.81071428571428" y="188.9267857142857"/>
      <point x="43.89107142857143" y="188.9267857142857" type="curve" smooth="yes"/>
      <point x="143.15357142857144" y="188.9267857142857" type="line"/>
      <point x="137.40178571428572" y="100.57678571428572"/>
      <point x="133.23392857142858" y="33.97857142857143"/>
      <point x="133.23392857142858" y="28.146428571428572" type="curve" smooth="yes"/>
      <point x="133.23392857142858" y="0.1607142857142856"/>
      <point x="183.94285714285715" y="-13.0"/>
    </contour>
    <contour>
      <point x="249.2357142857143" y="248.40178571428572" type="line"/>
      <point x="257.57142857142856" y="404.2625" type="line"/>
      <point x="412.0017857142857" y="404.2625" type="line"/>
      <point x="403.66607142857146" y="248.40178571428572" type="line"/>
    </contour>
  </outline>
</glyph>
<glyph name="dollar" format="2">
  <advance width="531.8107142857143"/>
  <unicode hex="0024"/>
  <outline>
    <contour>
      <point x="291.0517857142857" y="-198.45357142857142" type="curve" smooth="yes"/>
      <point x="310.2857142857143" y="-198.45357142857142"/>
      <point x="312.11785714285713" y="-192.95714285714286"/>
      <point x="312.11785714285713" y="-179.6357142857143" type="curve" smooth="yes"/>
      <point x="312.11785714285713" y="-131.39464285714286"/>
      <point x="312.4535714285714" y="-68.825"/>
      <point x="314.4535714285714" y="-4.255357142857143" type="curve"/>
      <point x="395.03035714285716" y="17.90535714285714"/>
      <point x="462.4607142857143" y="86.98571428571428"/>
      <point x="462.4607142857143" y="185.40178571428572" type="curve" smooth="yes"/>
      <point x="462.4607142857143" y="232.5625"/>
      <point x="442.3803571428571" y="268.8910714285714"/>
      <point x="410.3803571428571" y="301.55535714285713" type="curve" smooth="yes"/>
      <point x="374.21964285714284" y="338.7964285714286"/>
      <point x="291.11071428571427" y="388.73035714285714"/>
      <point x="257.5267857142857" y="421.8982142857143" type="curve" smooth="yes"/>
      <point x="232.3517857142857" y="446.65714285714284"/>
      <point x="219.01607142857142" y="472.0"/>
      <point x="219.01607142857142" y="501.2625" type="curve" smooth="yes"/>
      <point x="219.01607142857142" y="557.875"/>
      <point x="260.0375" y="575.9696428571428"/>
      <point x="290.2125" y="575.9696428571428" type="curve" smooth="yes"/>
      <point x="351.3142857142857" y="575.9696428571428"/>
      <point x="393.8107142857143" y="547.3714285714286"/>
      <point x="418.2267857142857" y="528.7803571428572" type="curve" smooth="yes"/>
      <point x="432.3071428571429" y="518.4446428571429"/>
      <point x="441.80357142857144" y="509.86071428571427"/>
      <point x="449.88392857142856" y="509.86071428571427" type="curve" smooth="yes"/>
      <point x="461.9642857142857" y="509.86071428571427"/>
      <point x="468.62857142857143" y="530.2696428571429"/>
      <point x="468.62857142857143" y="563.2625" type="curve" smooth="yes"/>
      <point x="468.62857142857143" y="578.4160714285714"/>
      <point x="465.3803571428571" y="591.1607142857143"/>
      <point x="447.3142857142857" y="602.1535714285715" type="curve" smooth="yes"/>
      <point x="420.64285714285717" y="626.0"/>
      <point x="382.13214285714287" y="642.9196428571429"/>
      <point x="340.4607142857143" y="648.3357142857143" type="curve"/>
      <point x="344.2125" y="711.35"/>
      <point x="347.9642857142857" y="756.4446428571429"/>
      <point x="347.9642857142857" y="760.8607142857143" type="curve" smooth="yes"/>
      <point x="347.9642857142857" y="792.175"/>
      <point x="301.16785714285714" y="806.0"/>
      <point x="267.35" y="806.0" type="curve" smooth="yes"/>
      <point x="248.7" y="806.0"/>
      <point x="246.28392857142856" y="801.0875"/>
      <point x="246.28392857142856" y="787.7660714285714" type="curve" smooth="yes"/>
      <point x="245.7" y="756.0214285714286"/>
      <point x="244.9482142857143" y="704.7660714285714"/>
      <point x="243.19642857142856" y="646.8392857142857" type="curve"/>
      <point x="143.51785714285714" y="629.7660714285714"/>
      <point x="95.525" y="553.8464285714285"/>
      <point x="95.525" y="466.19642857142856" type="curve" smooth="yes"/>
      <point x="95.525" y="408.2035714285714"/>
      <point x="123.10178571428571" y="367.45892857142854"/>
      <point x="158.84642857142856" y="334.5464285714286" type="curve" smooth="yes"/>
      <point x="201.68571428571428" y="294.70714285714286"/>
      <point x="272.1303571428571" y="253.69285714285715"/>
      <point x="303.21785714285716" y="220.4375" type="curve" smooth="yes"/>
      <point x="323.88928571428573" y="198.59821428571428"/>
      <point x="337.3928571428571" y="174.59107142857144"/>
      <point x="337.3928571428571" y="144.32857142857142" type="curve" smooth="yes"/>
      <point x="337.3928571428571" y="88.46071428571429"/>
      <point x="288.1892857142857" y="64.36607142857143"/>
      <point x="250.26964285714286" y="64.36607142857143" type="curve" smooth="yes"/>
      <point x="184.0142857142857" y="64.36607142857143"/>
      <point x="140.3357142857143" y="90.04464285714286"/>
      <point x="112.41607142857143" y="110.21964285714286" type="curve" smooth="yes"/>
      <point x="96.08035714285714" y="122.475"/>
      <point x="86.83214285714286" y="132.81071428571428"/>
      <point x="78.67142857142858" y="132.81071428571428" type="curve" smooth="yes"/>
      <point x="65.59107142857142" y="132.81071428571428"/>
      <point x="59.09464285714286" y="97.80357142857143"/>
      <point x="59.09464285714286" y="75.90535714285714" type="curve" smooth="yes"/>
      <point x="59.09464285714286" y="60.919642857142854"/>
      <point x="62.175" y="48.67142857142857"/>
      <point x="81.24107142857143" y="35.846428571428575" type="curve" smooth="yes"/>
      <point x="108.74464285714286" y="13.0875"/>
      <point x="153.91964285714286" y="-8.0875"/>
      <point x="218.60535714285714" y="-11.335714285714285" type="curve"/>
      <point x="214.4375" y="-89.825"/>
      <point x="211.02142857142857" y="-147.06607142857143"/>
      <point x="211.02142857142857" y="-152.73035714285714" type="curve" smooth="yes"/>
      <point x="211.02142857142857" y="-184.04464285714286"/>
      <point x="258.4017857142857" y="-198.45357142857142"/>
    </contour>
  </outline>
</glyph>
<glyph name="percent" format="2">
  <advance width="988.5803571428571"/>
  <unicode hex="0025"/>
  <outline>
    <contour>
      <point x="349.0839285714286" y="-34.41607142857143" type="curve" smooth="yes"/>
      <point x="363.5732142857143" y="-34.41607142857143"/>
      <point x="374.48571428571427" y="-29.832142857142856"/>
      <point x="385.4785714285714" y="-5.685714285714285" type="curve" smooth="yes"/>
      <point x="425.6607142857143" y="70.49642857142857"/>
      <point x="697.2642857142857" y="549.8017857142858"/>
      <point x="720.775" y="587.5607142857143" type="curve" smooth="yes"/>
      <point x="731.1910714285714" y="605.7214285714285"/>
      <point x="740.5125" y="625.7"/>
      <point x="740.5125" y="630.6125" type="curve" smooth="yes"/>
      <point x="740.5125" y="650.5982142857143"/>
      <point x="688.0589285714286" y="675.0"/>
      <point x="660.7375" y="675.0" type="curve" smooth="yes"/>
      <point x="646.2482142857143" y="675.0"/>
      <point x="635.7517857142857" y="670.4160714285714"/>
      <point x="624.3428571428572" y="646.2696428571429" type="curve" smooth="yes"/>
      <point x="538.0964285714285" y="511.6517857142857"/>
      <point x="377.20535714285717" y="190.63392857142856"/>
      <point x="287.2946428571429" y="51.27142857142857" type="curve" smooth="yes"/>
      <point x="277.38214285714287" y="32.36607142857143"/>
      <point x="269.30892857142857" y="16.635714285714286"/>
      <point x="269.30892857142857" y="9.971428571428572" type="curve" smooth="yes"/>
      <point x="269.30892857142857" y="-9.598214285714285"/>
      <point x="330.0839285714286" y="-34.41607142857143"/>
    </contour>
    <contour>
      <point x="218.79642857142858" y="275.58392857142854" type="curve" smooth="yes"/>
      <point x="353.6" y="275.58392857142854"/>
      <point x="420.8339285714286" y="358.58392857142854"/>
      <point x="420.8339285714286" y="494.16785714285714" type="curve" smooth="yes"/>
      <point x="420.8339285714286" y="600.5839285714286"/>
      <point x="351.6" y="651.5839285714286"/>
      <point x="255.62142857142857" y="651.5839285714286" type="curve" smooth="yes"/>
      <point x="120.40178571428572" y="651.5839285714286"/>
      <point x="53.0" y="568.5839285714286"/>
      <point x="53.0" y="432.58392857142854" type="curve" smooth="yes"/>
      <point x="53.0" y="326.58392857142854"/>
      <point x="122.81785714285715" y="275.58392857142854"/>
    </contour>
    <contour>
      <point x="227.62142857142857" y="315.7375" type="curve" smooth="yes"/>
      <point x="189.51964285714286" y="315.7375"/>
      <point x="163.59285714285716" y="365.4089285714286"/>
      <point x="163.59285714285716" y="436.83214285714286" type="curve" smooth="yes"/>
      <point x="163.59285714285716" y="539.5910714285715"/>
      <point x="192.6875" y="609.1821428571428"/>
      <point x="246.4607142857143" y="609.1821428571428" type="curve" smooth="yes"/>
      <point x="285.5625" y="609.1821428571428"/>
      <point x="310.24107142857144" y="560.5107142857142"/>
      <point x="310.24107142857144" y="488.91964285714283" type="curve" smooth="yes"/>
      <point x="310.24107142857144" y="386.7446428571429"/>
      <point x="281.97857142857146" y="315.7375"/>
    </contour>
    <contour>
      <point x="754.7839285714285" y="-13.416071428571428" type="curve" smooth="yes"/>
      <point x="890.1714285714286" y="-13.416071428571428"/>
      <point x="956.8214285714286" y="70.16785714285714"/>
      <point x="956.8214285714286" y="206.16785714285714" type="curve" smooth="yes"/>
      <point x="956.8214285714286" y="311.58392857142854"/>
      <point x="888.1714285714286" y="363.16785714285714"/>
      <point x="792.1928571428572" y="363.16785714285714" type="curve" smooth="yes"/>
      <point x="656.3892857142857" y="363.16785714285714"/>
      <point x="589.5714285714286" y="280.16785714285714"/>
      <point x="589.5714285714286" y="144.16785714285714" type="curve" smooth="yes"/>
      <point x="589.5714285714286" y="38.167857142857144"/>
      <point x="659.3892857142857" y="-13.416071428571428"/>
    </contour>
    <contour>
      <point x="764.1928571428572" y="27.32142857142857" type="curve" smooth="yes"/>
      <point x="726.0910714285715" y="27.32142857142857"/>
      <point x="700.1642857142857" y="76.99285714285715"/>
      <point x="700.1642857142857" y="147.83214285714286" type="curve" smooth="yes"/>
      <point x="700.1642857142857" y="251.175"/>
      <point x="728.675" y="320.1821428571429"/>
      <point x="783.0321428571428" y="320.1821428571429" type="curve" smooth="yes"/>
      <point x="822.1339285714286" y="320.1821428571429"/>
      <point x="846.2285714285714" y="272.09464285714284"/>
      <point x="846.2285714285714" y="200.50357142857143" type="curve" smooth="yes"/>
      <point x="846.2285714285714" y="97.74464285714286"/>
      <point x="818.55" y="27.32142857142857"/>
    </contour>
  </outline>
</glyph>
<glyph name="ampersand" format="2">
  <advance width="740.9428571428572"/>
  <unicode hex="0026"/>
  <outline>
    <contour>
      <point x="340.7089285714286" y="-13.0" type="curve" smooth="yes"/>
      <point x="608.4107142857143" y="-13.0"/>
      <point x="675.0678571428572" y="150.99285714285713"/>
      <point x="675.0678571428572" y="228.83928571428572" type="curve" smooth="yes"/>
      <point x="675.0678571428572" y="283.6642857142857"/>
      <point x="656.3232142857142" y="321.2553571428571"/>
      <point x="624.4107142857143" y="334.75892857142856" type="curve"/>
      <point x="563.9946428571428" y="334.75892857142856" type="line"/>
      <point x="644.3803571428572" y="420.40714285714284"/>
      <point x="693.6214285714286" y="464.81607142857143"/>
      <point x="705.0446428571429" y="477.65535714285716" type="curve" smooth="yes"/>
      <point x="710.8767857142857" y="484.73571428571427"/>
      <point x="717.7964285714286" y="496.1517857142857"/>
      <point x="717.7964285714286" y="504.3125" type="curve" smooth="yes"/>
      <point x="717.7964285714286" y="527.5464285714286"/>
      <point x="702.5553571428571" y="555.525"/>
      <point x="685.8982142857143" y="575.0946428571428" type="curve" smooth="yes"/>
      <point x="678.7375" y="583.5035714285714"/>
      <point x="672.4892857142858" y="588.1678571428571"/>
      <point x="668.4089285714285" y="588.1678571428571" type="curve" smooth="yes"/>
      <point x="665.3285714285714" y="588.1678571428571"/>
      <point x="660.3285714285714" y="583.1678571428571"/>
      <point x="654.4964285714286" y="575.9196428571429" type="curve" smooth="yes"/>
      <point x="612.0875" y="525.35"/>
      <point x="371.0160714285714" y="270.8410714285714"/>
      <point x="361.3517857142857" y="260.59285714285716" type="curve" smooth="yes"/>
      <point x="351.18392857142857" y="249.84107142857144"/>
      <point x="349.18392857142857" y="243.5125"/>
      <point x="349.18392857142857" y="233.93571428571428" type="curve" smooth="yes"/>
      <point x="349.18392857142857" y="210.11785714285713"/>
      <point x="366.00892857142856" y="179.97142857142856"/>
      <point x="384.25" y="159.81785714285715" type="curve" smooth="yes"/>
      <point x="391.4107142857143" y="151.99285714285713"/>
      <point x="395.90714285714284" y="147.9125"/>
      <point x="399.4035714285714" y="147.9125" type="curve" smooth="yes"/>
      <point x="403.0678571428572" y="147.9125"/>
      <point x="407.31607142857143" y="152.32857142857142"/>
      <point x="412.7321428571429" y="159.16071428571428" type="curve" smooth="yes"/>
      <point x="455.4982142857143" y="211.67857142857142"/>
      <point x="498.9214285714286" y="261.4375"/>
      <point x="535.8553571428572" y="303.1232142857143" type="curve"/>
      <point x="559.7017857142857" y="301.95535714285717"/>
      <point x="583.4607142857143" y="256.01428571428573"/>
      <point x="583.4607142857143" y="214.41607142857143" type="curve" smooth="yes"/>
      <point x="583.4607142857143" y="132.48928571428573"/>
      <point x="505.3071428571429" y="43.72321428571429"/>
      <point x="369.0160714285714" y="43.72321428571429" type="curve" smooth="yes"/>
      <point x="246.89285714285717" y="43.72321428571429"/>
      <point x="170.73214285714286" y="114.50357142857143"/>
      <point x="170.73214285714286" y="209.65714285714284" type="curve" smooth="yes"/>
      <point x="170.73214285714286" y="281.6714285714286"/>
      <point x="212.57857142857142" y="344.5107142857143"/>
      <point x="312.36607142857144" y="352.0" type="curve" smooth="yes"/>
      <point x="321.03035714285716" y="353.2482142857143"/>
      <point x="325.78214285714284" y="362.08035714285717"/>
      <point x="325.78214285714284" y="371.08035714285717" type="curve" smooth="yes"/>
      <point x="325.78214285714284" y="387.58392857142854"/>
      <point x="321.8625" y="392.3357142857143"/>
      <point x="313.11071428571427" y="395.2482142857143" type="curve" smooth="yes"/>
      <point x="291.2714285714286" y="402.32142857142856"/>
      <point x="240.06785714285715" y="434.9125"/>
      <point x="240.06785714285715" y="498.35714285714283" type="curve" smooth="yes"/>
      <point x="240.06785714285715" y="549.8607142857143"/>
      <point x="273.0017857142857" y="588.7071428571428"/>
      <point x="327.85535714285714" y="588.7071428571428" type="curve" smooth="yes"/>
      <point x="374.29285714285714" y="588.7071428571428"/>
      <point x="405.7160714285714" y="571.3642857142858"/>
      <point x="432.64285714285717" y="549.5982142857143" type="curve" smooth="yes"/>
      <point x="439.8910714285714" y="545.4303571428571"/>
      <point x="445.7232142857143" y="541.6785714285714"/>
      <point x="449.13928571428573" y="541.6785714285714" type="curve" smooth="yes"/>
      <point x="457.55535714285713" y="541.6785714285714"/>
      <point x="466.3" y="557.8392857142857"/>
      <point x="466.3" y="585.7446428571428" type="curve" smooth="yes"/>
      <point x="466.3" y="598.0732142857142"/>
      <point x="464.21964285714284" y="607.0732142857142"/>
      <point x="455.6357142857143" y="612.9928571428571" type="curve" smooth="yes"/>
      <point x="423.1464285714286" y="633.9125"/>
      <point x="364.56964285714287" y="652.0"/>
      <point x="300.2339285714286" y="652.0" type="curve" smooth="yes"/>
      <point x="208.7375" y="652.0"/>
      <point x="119.90535714285714" y="614.9125"/>
      <point x="119.90535714285714" y="518.1678571428571" type="curve" smooth="yes"/>
      <point x="119.90535714285714" y="440.0"/>
      <point x="173.39464285714286" y="398.6642857142857"/>
      <point x="229.05892857142857" y="377.0" type="curve"/>
      <point x="116.9125" y="377.0"/>
      <point x="51.23392857142857" y="305.5910714285714"/>
      <point x="51.23392857142857" y="212.84642857142856" type="curve" smooth="yes"/>
      <point x="51.23392857142857" y="85.02857142857142"/>
      <point x="160.69464285714287" y="-13.0"/>
    </contour>
  </outline>
</glyph>
<glyph name="quotesingle" format="2">
  <advance width="176.94285714285715"/>
  <unicode hex="0027"/>
  <outline>
    <contour>
      <point x="81.14642857142857" y="436.35714285714283" type="curve" smooth="yes"/>
      <point x="99.71607142857142" y="436.35714285714283"/>
      <point x="108.46071428571429" y="444.1892857142857"/>
      <point x="126.20535714285714" y="483.6857142857143" type="curve" smooth="yes"/>
      <point x="146.52678571428572" y="528.3357142857143"/>
      <point x="181.43928571428572" y="616.1821428571428"/>
      <point x="181.43928571428572" y="630.5107142857142" type="curve" smooth="yes"/>
      <point x="181.43928571428572" y="647.5035714285714"/>
      <point x="161.45357142857142" y="652.0"/>
      <point x="122.31428571428572" y="652.0" type="curve" smooth="yes"/>
      <point x="81.175" y="652.0"/>
      <point x="62.10178571428571" y="644.9196428571429"/>
      <point x="60.93392857142857" y="619.7589285714286" type="curve" smooth="yes"/>
      <point x="58.598214285714285" y="588.5035714285714"/>
      <point x="55.75178571428572" y="489.7446428571429"/>
      <point x="57.0" y="470.16785714285714" type="curve" smooth="yes"/>
      <point x="59.080357142857146" y="442.6857142857143"/>
      <point x="64.32857142857142" y="436.35714285714283"/>
    </contour>
  </outline>
</glyph>
<glyph name="parenleft" format="2">
  <advance width="343.8696428571429"/>
  <unicode hex="0028"/>
  <outline>
    <contour>
      <point x="269.2785714285714" y="-244.0" type="curve" smooth="yes"/>
      <point x="284.8482142857143" y="-244.0"/>
      <point x="289.26428571428573" y="-240.50357142857143"/>
      <point x="289.26428571428573" y="-230.00714285714287" type="curve" smooth="yes"/>
      <point x="289.26428571428573" y="-220.2625"/>
      <point x="188.49821428571428" y="-66.0"/>
      <point x="188.49821428571428" y="237.0" type="curve" smooth="yes"/>
      <point x="188.49821428571428" y="430.0"/>
      <point x="251.25714285714287" y="605.1017857142857"/>
      <point x="318.4535714285714" y="707.7071428571428" type="curve" smooth="yes"/>
      <point x="328.5267857142857" y="727.5178571428571"/>
      <point x="329.9428571428571" y="732.6785714285714"/>
      <point x="329.9428571428571" y="737.8392857142857" type="curve" smooth="yes"/>
      <point x="329.9428571428571" y="748.4160714285714"/>
      <point x="318.4392857142857" y="756.0"/>
      <point x="299.1982142857143" y="756.0" type="curve" smooth="yes"/>
      <point x="279.80357142857144" y="756.0"/>
      <point x="258.08035714285717" y="750.0875"/>
      <point x="243.175" y="733.7660714285714" type="curve" smooth="yes"/>
      <point x="147.40178571428572" y="630.2410714285714"/>
      <point x="72.9125" y="457.4892857142857"/>
      <point x="72.9125" y="240.9125" type="curve" smooth="yes"/>
      <point x="72.9125" y="81.56964285714285"/>
      <point x="104.48928571428571" y="-54.65714285714286"/>
      <point x="199.56964285714287" y="-218.2625" type="curve" smooth="yes"/>
      <point x="211.64285714285714" y="-237.41607142857143"/>
      <point x="248.775" y="-244.0"/>
    </contour>
  </outline>
</glyph>
<glyph name="parenright" format="2">
  <advance width="348.03035714285716"/>
  <unicode hex="0029"/>
  <outline>
    <contour>
      <point x="49.832142857142856" y="-244.0" type="curve" smooth="yes"/>
      <point x="69.22678571428571" y="-244.0"/>
      <point x="90.95" y="-239.25535714285715"/>
      <point x="105.85535714285714" y="-222.93392857142857" type="curve" smooth="yes"/>
      <point x="201.62857142857143" y="-119.40892857142858"/>
      <point x="276.11785714285713" y="54.510714285714286"/>
      <point x="276.11785714285713" y="270.91964285714283" type="curve" smooth="yes"/>
      <point x="276.11785714285713" y="430.43035714285713"/>
      <point x="244.54107142857143" y="566.0732142857142"/>
      <point x="149.4607142857143" y="729.0946428571428" type="curve" smooth="yes"/>
      <point x="137.3875" y="748.2482142857143"/>
      <point x="99.67142857142858" y="756.0"/>
      <point x="79.75178571428572" y="756.0" type="curve" smooth="yes"/>
      <point x="63.598214285714285" y="756.0"/>
      <point x="59.76607142857143" y="751.3357142857143"/>
      <point x="59.76607142857143" y="741.4232142857143" type="curve" smooth="yes"/>
      <point x="59.76607142857143" y="732.2625"/>
      <point x="160.53214285714284" y="576.8321428571429"/>
      <point x="160.53214285714284" y="274.41607142857146" type="curve" smooth="yes"/>
      <point x="160.53214285714284" y="80.83214285714286"/>
      <point x="97.18928571428572" y="-93.68571428571428"/>
      <point x="29.992857142857144" y="-195.70714285714286" type="curve" smooth="yes"/>
      <point x="19.919642857142858" y="-215.51785714285714"/>
      <point x="18.50357142857143" y="-221.84642857142856"/>
      <point x="18.50357142857143" y="-227.00714285714287" type="curve" smooth="yes"/>
      <point x="18.50357142857143" y="-237.58392857142857"/>
      <point x="30.007142857142856" y="-244.0"/>
    </contour>
  </outline>
</glyph>
<glyph name="asterisk" format="2">
  <advance width="481.0"/>
  <unicode hex="002A"/>
  <outline>
    <contour>
      <point x="276.825" y="307.19642857142856" type="curve" smooth="yes"/>
      <point x="289.4017857142857" y="307.19642857142856"/>
      <point x="295.8982142857143" y="312.525"/>
      <point x="295.8982142857143" y="323.7660714285714" type="curve" smooth="yes"/>
      <point x="295.8982142857143" y="375.2839285714286"/>
      <point x="283.56964285714287" y="426.525"/>
      <point x="280.65714285714284" y="498.1089285714286" type="curve"/>
      <point x="335.2482142857143" y="455.95535714285717"/>
      <point x="363.825" y="415.4660714285714"/>
      <point x="408.8464285714286" y="382.70714285714286" type="curve" smooth="yes"/>
      <point x="412.9267857142857" y="379.2107142857143"/>
      <point x="416.42321428571427" y="377.37857142857143"/>
      <point x="420.50357142857143" y="377.37857142857143" type="curve" smooth="yes"/>
      <point x="437.825" y="377.37857142857143"/>
      <point x="461.48214285714283" y="423.6928571428571"/>
      <point x="461.48214285714283" y="444.02142857142854" type="curve" smooth="yes"/>
      <point x="461.48214285714283" y="455.35"/>
      <point x="457.65" y="463.8464285714286"/>
      <point x="449.65" y="469.09464285714284" type="curve" smooth="yes"/>
      <point x="426.48214285714283" y="484.42321428571427"/>
      <point x="374.41607142857146" y="492.16785714285714"/>
      <point x="304.06607142857143" y="528.9339285714286" type="curve"/>
      <point x="370.99285714285713" y="557.3714285714286"/>
      <point x="423.8107142857143" y="555.9553571428571"/>
      <point x="454.8982142857143" y="576.2107142857143" type="curve" smooth="yes"/>
      <point x="462.97857142857146" y="581.0428571428571"/>
      <point x="468.3071428571429" y="590.9553571428571"/>
      <point x="468.3071428571429" y="604.1964285714286" type="curve" smooth="yes"/>
      <point x="468.3071428571429" y="627.2767857142857"/>
      <point x="449.2267857142857" y="671.4232142857143"/>
      <point x="434.7375" y="671.4232142857143" type="curve" smooth="yes"/>
      <point x="431.4892857142857" y="671.4232142857143"/>
      <point x="427.825" y="670.4232142857143"/>
      <point x="423.57678571428573" y="667.5910714285715" type="curve" smooth="yes"/>
      <point x="379.97857142857146" y="639.4964285714286"/>
      <point x="343.7375" y="599.1678571428571"/>
      <point x="287.32142857142856" y="560.6714285714286" type="curve"/>
      <point x="301.1464285714286" y="628.2696428571429"/>
      <point x="331.13928571428573" y="678.3428571428572"/>
      <point x="331.13928571428573" y="716.35" type="curve" smooth="yes"/>
      <point x="331.13928571428573" y="735.8464285714285"/>
      <point x="302.13214285714287" y="756.0"/>
      <point x="253.6642857142857" y="756.0" type="curve" smooth="yes"/>
      <point x="240.50357142857143" y="756.0"/>
      <point x="234.59107142857144" y="750.6714285714286"/>
      <point x="234.59107142857144" y="737.6785714285714" type="curve" smooth="yes"/>
      <point x="235.75892857142858" y="694.1607142857143"/>
      <point x="242.25535714285715" y="653.6642857142857"/>
      <point x="245.58392857142857" y="602.8321428571429" type="curve" smooth="yes"/>
      <point x="246.41607142857143" y="590.4160714285714"/>
      <point x="247.24821428571428" y="578.0"/>
      <point x="247.08035714285714" y="564.0" type="curve"/>
      <point x="192.7375" y="608.9928571428571"/>
      <point x="163.0732142857143" y="648.1464285714286"/>
      <point x="118.97142857142858" y="680.4892857142858" type="curve" smooth="yes"/>
      <point x="114.30714285714285" y="684.5696428571429"/>
      <point x="110.22678571428571" y="686.4017857142857"/>
      <point x="106.14642857142857" y="686.4017857142857" type="curve" smooth="yes"/>
      <point x="93.15357142857142" y="686.4017857142857"/>
      <point x="66.91964285714286" y="642.5839285714286"/>
      <point x="66.91964285714286" y="619.5107142857142" type="curve" smooth="yes"/>
      <point x="66.91964285714286" y="608.5982142857143"/>
      <point x="71.16785714285714" y="599.9339285714286"/>
      <point x="77.58392857142857" y="594.6857142857143" type="curve" smooth="yes"/>
      <point x="107.175" y="571.5178571428571"/>
      <point x="161.16071428571428" y="564.1892857142857"/>
      <point x="226.25535714285715" y="532.9267857142858" type="curve"/>
      <point x="155.0732142857143" y="501.56964285714287"/>
      <point x="99.67142857142858" y="502.4017857142857"/>
      <point x="75.42321428571428" y="487.4017857142857" type="curve" smooth="yes"/>
      <point x="67.34285714285714" y="482.1535714285714"/>
      <point x="61.01428571428571" y="472.24107142857144"/>
      <point x="61.01428571428571" y="457.58392857142854" type="curve" smooth="yes"/>
      <point x="61.01428571428571" y="436.58392857142854"/>
      <point x="79.01428571428572" y="392.7732142857143"/>
      <point x="94.0" y="392.7732142857143" type="curve" smooth="yes"/>
      <point x="96.66428571428571" y="392.7732142857143"/>
      <point x="100.32857142857142" y="393.7732142857143"/>
      <point x="104.40892857142858" y="396.02142857142854" type="curve" smooth="yes"/>
      <point x="152.09464285714284" y="425.86785714285713"/>
      <point x="186.75178571428572" y="464.0285714285714"/>
      <point x="242.0" y="499.60535714285714" type="curve"/>
      <point x="228.75892857142858" y="419.7446428571429"/>
      <point x="198.18214285714285" y="373.175"/>
      <point x="198.18214285714285" y="346.2625" type="curve" smooth="yes"/>
      <point x="198.18214285714285" y="325.5982142857143"/>
      <point x="227.7732142857143" y="307.19642857142856"/>
    </contour>
  </outline>
</glyph>
<glyph name="plus" format="2">
  <advance width="562.4821428571429"/>
  <unicode hex="002B"/>
  <outline>
    <contour>
      <point x="294.95714285714286" y="83.91964285714286" type="curve" smooth="yes"/>
      <point x="313.6142857142857" y="83.91964285714286"/>
      <point x="318.95" y="87.75178571428572"/>
      <point x="318.95" y="101.08035714285714" type="curve" smooth="yes"/>
      <point x="318.95" y="126.05892857142857"/>
      <point x="324.62142857142857" y="212.10892857142858"/>
      <point x="328.7892857142857" y="279.02142857142854" type="curve"/>
      <point x="497.06607142857143" y="279.02142857142854" type="line" smooth="yes"/>
      <point x="515.2339285714286" y="279.02142857142854"/>
      <point x="526.4821428571429" y="302.35"/>
      <point x="526.4821428571429" y="332.16785714285714" type="curve" smooth="yes"/>
      <point x="526.4821428571429" y="348.4892857142857"/>
      <point x="523.65" y="353.0732142857143"/>
      <point x="514.9857142857143" y="353.0732142857143" type="curve" smooth="yes"/>
      <point x="330.125" y="353.0732142857143" type="line"/>
      <point x="334.29285714285714" y="420.475"/>
      <point x="341.54821428571427" y="492.34285714285716"/>
      <point x="341.54821428571427" y="500.67857142857144" type="curve" smooth="yes"/>
      <point x="341.54821428571427" y="532.3428571428572"/>
      <point x="297.1535714285714" y="541.9196428571429"/>
      <point x="271.7517857142857" y="541.9196428571429" type="curve" smooth="yes"/>
      <point x="253.09464285714284" y="541.9196428571429"/>
      <point x="247.34285714285716" y="537.2553571428572"/>
      <point x="247.34285714285716" y="524.3428571428572" type="curve" smooth="yes"/>
      <point x="247.34285714285716" y="499.3642857142857"/>
      <point x="242.25535714285715" y="418.90535714285716"/>
      <point x="238.50357142857143" y="353.0732142857143" type="curve"/>
      <point x="76.89821428571429" y="353.0732142857143" type="line" smooth="yes"/>
      <point x="59.31428571428572" y="353.0732142857143"/>
      <point x="47.48214285714286" y="331.49642857142857"/>
      <point x="47.48214285714286" y="299.9267857142857" type="curve" smooth="yes"/>
      <point x="47.48214285714286" y="283.60535714285714"/>
      <point x="50.48214285714286" y="279.02142857142854"/>
      <point x="58.97857142857143" y="279.02142857142854" type="curve" smooth="yes"/>
      <point x="237.16785714285714" y="279.02142857142854" type="line"/>
      <point x="233.0" y="210.95535714285714"/>
      <point x="224.74464285714285" y="134.08035714285714"/>
      <point x="224.74464285714285" y="125.16071428571429" type="curve" smooth="yes"/>
      <point x="224.74464285714285" y="93.08035714285714"/>
      <point x="269.55535714285713" y="83.91964285714286"/>
    </contour>
  </outline>
</glyph>
<glyph name="comma" format="2">
  <advance width="275.0"/>
  <unicode hex="002C"/>
  <outline>
    <contour>
      <point x="54.31428571428572" y="-78.0" type="curve" smooth="yes"/>
      <point x="74.05178571428571" y="-78.0"/>
      <point x="84.46785714285714" y="-74.41607142857143"/>
      <point x="98.20535714285714" y="-64.00714285714285" type="curve" smooth="yes"/>
      <point x="135.0375" y="-29.832142857142856"/>
      <point x="205.8625" y="52.0875"/>
      <point x="205.8625" y="83.0875" type="curve" smooth="yes"/>
      <point x="205.8625" y="94.83214285714286"/>
      <point x="200.1982142857143" y="107.32857142857142"/>
      <point x="186.95714285714286" y="121.98571428571428" type="curve" smooth="yes"/>
      <point x="175.71607142857144" y="133.64285714285714"/>
      <point x="152.0732142857143" y="150.95714285714286"/>
      <point x="138.08035714285714" y="150.95714285714286" type="curve" smooth="yes"/>
      <point x="130.75178571428572" y="150.95714285714286"/>
      <point x="128.0875" y="148.70892857142857"/>
      <point x="123.59107142857142" y="136.0517857142857" type="curve" smooth="yes"/>
      <point x="103.41607142857143" y="86.7017857142857"/>
      <point x="49.503571428571426" y="-14.532142857142855"/>
      <point x="32.67857142857143" y="-45.43035714285714" type="curve" smooth="yes"/>
      <point x="25.510714285714286" y="-57.43035714285714"/>
      <point x="22.09464285714286" y="-62.2625"/>
      <point x="22.09464285714286" y="-64.67857142857143" type="curve" smooth="yes"/>
      <point x="22.09464285714286" y="-67.67857142857143"/>
      <point x="39.160714285714285" y="-78.0"/>
    </contour>
  </outline>
</glyph>
<glyph name="hyphen" format="2">
  <advance width="275.0"/>
  <unicode hex="002D"/>
  <outline>
    <contour>
      <point x="19.992857142857144" y="258.8535714285714" type="curve" smooth="yes"/>
      <point x="235.75178571428572" y="258.8535714285714" type="line" smooth="yes"/>
      <point x="251.3357142857143" y="258.8535714285714"/>
      <point x="259.41607142857146" y="285.01428571428573"/>
      <point x="259.41607142857146" y="319.1607142857143" type="curve" smooth="yes"/>
      <point x="259.41607142857146" y="337.8107142857143"/>
      <point x="257.0" y="340.64285714285717"/>
      <point x="249.91964285714286" y="340.64285714285717" type="curve" smooth="yes"/>
      <point x="34.160714285714285" y="340.64285714285717" type="line" smooth="yes"/>
      <point x="18.576785714285712" y="340.64285714285717"/>
      <point x="10.496428571428572" y="313.48214285714283"/>
      <point x="10.496428571428572" y="280.3357142857143" type="curve" smooth="yes"/>
      <point x="10.496428571428572" y="261.6857142857143"/>
      <point x="12.9125" y="258.8535714285714"/>
    </contour>
  </outline>
</glyph>
<glyph name="period" format="2">
  <advance width="275.0"/>
  <unicode hex="002E"/>
  <outline>
    <contour>
      <point x="128.9125" y="0.0" type="curve" smooth="yes"/>
      <point x="167.81071428571428" y="0.0"/>
      <point x="201.45357142857142" y="21.49642857142857"/>
      <point x="201.45357142857142" y="65.38035714285715" type="curve" smooth="yes"/>
      <point x="201.45357142857142" y="103.54107142857143"/>
      <point x="178.3" y="137.18392857142857"/>
      <point x="147.24107142857142" y="137.18392857142857" type="curve" smooth="yes"/>
      <point x="116.67857142857143" y="137.18392857142857"/>
      <point x="72.7" y="105.03035714285714"/>
      <point x="72.7" y="59.964285714285715" type="curve" smooth="yes"/>
      <point x="72.7" y="16.40892857142857"/>
      <point x="97.09464285714286" y="0.0"/>
    </contour>
  </outline>
</glyph>
<glyph name="slash" format="2">
  <advance width="516.1964285714286"/>
  <unicode hex="002F"/>
  <outline>
    <contour>
      <point x="104.01607142857142" y="-34.41607142857143" type="curve" smooth="yes"/>
      <point x="118.50535714285715" y="-34.41607142857143"/>
      <point x="129.41785714285714" y="-29.832142857142856"/>
      <point x="140.41071428571428" y="-5.685714285714285" type="curve" smooth="yes"/>
      <point x="180.59285714285716" y="70.49642857142857"/>
      <point x="452.19642857142856" y="549.8017857142858"/>
      <point x="475.70714285714286" y="587.5607142857143" type="curve" smooth="yes"/>
      <point x="486.1232142857143" y="605.7214285714285"/>
      <point x="495.44464285714287" y="625.7"/>
      <point x="495.44464285714287" y="631.0285714285715" type="curve" smooth="yes"/>
      <point x="495.44464285714287" y="650.5982142857143"/>
      <point x="438.8303571428571" y="675.0"/>
      <point x="411.50892857142856" y="675.0" type="curve" smooth="yes"/>
      <point x="397.01964285714286" y="675.0"/>
      <point x="386.5232142857143" y="670.4160714285714"/>
      <point x="375.1142857142857" y="646.2696428571429" type="curve" smooth="yes"/>
      <point x="288.86785714285713" y="511.6517857142857"/>
      <point x="127.97678571428571" y="190.63392857142856"/>
      <point x="38.06607142857143" y="51.27142857142857" type="curve" smooth="yes"/>
      <point x="28.15357142857143" y="32.36607142857143"/>
      <point x="20.080357142857142" y="16.635714285714286"/>
      <point x="20.080357142857142" y="9.971428571428572" type="curve" smooth="yes"/>
      <point x="20.080357142857142" y="-9.598214285714285"/>
      <point x="80.85535714285714" y="-34.41607142857143"/>
    </contour>
  </outline>
</glyph>
<glyph name="zero" format="2">
  <advance width="589.4160714285714"/>
  <unicode hex="0030"/>
  <outline>
    <contour>
      <point x="278.57678571428573" y="-13.0" type="curve" smooth="yes"/>
      <point x="455.65" y="-13.0"/>
      <point x="542.8107142857143" y="134.0"/>
      <point x="542.8107142857143" y="374.0" type="curve" smooth="yes"/>
      <point x="542.8107142857143" y="562.0"/>
      <point x="453.65" y="652.0"/>
      <point x="328.65714285714284" y="652.0" type="curve" smooth="yes"/>
      <point x="150.16785714285714" y="652.0"/>
      <point x="62.591071428571425" y="506.0"/>
      <point x="62.591071428571425" y="266.0" type="curve" smooth="yes"/>
      <point x="62.591071428571425" y="78.0"/>
      <point x="152.58392857142857" y="-13.0"/>
    </contour>
    <contour>
      <point x="288.2339285714286" y="38.30714285714286" type="curve" smooth="yes"/>
      <point x="223.44642857142858" y="38.30714285714286"/>
      <point x="181.6732142857143" y="134.06607142857143"/>
      <point x="181.6732142857143" y="269.49642857142857" type="curve" smooth="yes"/>
      <point x="181.6732142857143" y="466.5982142857143"/>
      <point x="227.78214285714284" y="599.8607142857143"/>
      <point x="317.16785714285714" y="599.8607142857143" type="curve" smooth="yes"/>
      <point x="382.2035714285714" y="599.8607142857143"/>
      <point x="424.14464285714286" y="504.6857142857143"/>
      <point x="424.14464285714286" y="370.0875" type="curve" smooth="yes"/>
      <point x="424.14464285714286" y="174.15357142857144"/>
      <point x="377.6196428571429" y="38.30714285714286"/>
    </contour>
  </outline>
</glyph>
<glyph name="one" format="2">
  <advance width="426.8982142857143"/>
  <unicode hex="0031"/>
  <outline>
    <contour>
      <point x="288.125" y="-13.0" type="curve" smooth="yes"/>
      <point x="311.6875" y="-13.0"/>
      <point x="314.3517857142857" y="-7.503571428571428"/>
      <point x="314.3517857142857" y="5.817857142857143" type="curve" smooth="yes"/>
      <point x="314.3517857142857" y="267.9035714285714"/>
      <point x="345.3589285714286" y="591.1964285714286"/>
      <point x="345.3589285714286" y="606.8607142857143" type="curve" smooth="yes"/>
      <point x="345.3589285714286" y="638.175"/>
      <point x="280.7375" y="652.0"/>
      <point x="258.90535714285716" y="652.0" type="curve" smooth="yes"/>
      <point x="251.32857142857142" y="652.0"/>
      <point x="74.50357142857143" y="518.7589285714286"/>
      <point x="64.91964285714286" y="508.75892857142856" type="curve" smooth="yes"/>
      <point x="57.25535714285714" y="500.67857142857144"/>
      <point x="55.839285714285715" y="482.94107142857143"/>
      <point x="55.839285714285715" y="468.2839285714286" type="curve" smooth="yes"/>
      <point x="55.839285714285715" y="438.55357142857144"/>
      <point x="63.67142857142857" y="419.37857142857143"/>
      <point x="71.91964285714286" y="419.37857142857143" type="curve" smooth="yes"/>
      <point x="79.41607142857143" y="419.37857142857143"/>
      <point x="152.51071428571427" y="495.7285714285714"/>
      <point x="214.03571428571428" y="535.9910714285714" type="curve"/>
      <point x="210.7875" y="418.4214285714286"/>
      <point x="186.02857142857144" y="45.971428571428575"/>
      <point x="186.02857142857144" y="32.72321428571429" type="curve" smooth="yes"/>
      <point x="186.02857142857144" y="1.4089285714285715"/>
      <point x="248.65" y="-13.0"/>
    </contour>
  </outline>
</glyph>
<glyph name="two" format="2">
  <advance width="552.4089285714285"/>
  <unicode hex="0032"/>
  <outline>
    <contour>
      <point x="80.7375" y="0.0" type="curve" smooth="yes"/>
      <point x="448.13928571428573" y="0.0" type="line" smooth="yes"/>
      <point x="462.7232142857143" y="0.0"/>
      <point x="475.7160714285714" y="22.919642857142858"/>
      <point x="475.7160714285714" y="57.23392857142857" type="curve" smooth="yes"/>
      <point x="475.7160714285714" y="78.79642857142858"/>
      <point x="473.7160714285714" y="89.78928571428571"/>
      <point x="468.46785714285716" y="89.78928571428571" type="curve" smooth="yes"/>
      <point x="463.9714285714286" y="89.78928571428571"/>
      <point x="349.2785714285714" y="75.0375"/>
      <point x="262.33035714285717" y="75.0375" type="curve" smooth="yes"/>
      <point x="236.24285714285713" y="75.0375"/>
      <point x="213.82678571428573" y="75.0375"/>
      <point x="191.99464285714285" y="75.0375" type="curve"/>
      <point x="247.90714285714284" y="136.54107142857143"/>
      <point x="323.7607142857143" y="213.73035714285714"/>
      <point x="384.6142857142857" y="291.0" type="curve" smooth="yes"/>
      <point x="434.7089285714286" y="355.75892857142856"/>
      <point x="467.88392857142856" y="421.5982142857143"/>
      <point x="467.88392857142856" y="493.7660714285714" type="curve" smooth="yes"/>
      <point x="467.88392857142856" y="616.6642857142857"/>
      <point x="370.98571428571427" y="652.0"/>
      <point x="277.0" y="652.0" type="curve" smooth="yes"/>
      <point x="203.34285714285716" y="652.0"/>
      <point x="142.25535714285715" y="632.9928571428571"/>
      <point x="108.67857142857143" y="608.0803571428571" type="curve" smooth="yes"/>
      <point x="92.84642857142858" y="596.2482142857143"/>
      <point x="88.84642857142858" y="585.5035714285714"/>
      <point x="88.84642857142858" y="569.2553571428572" type="curve" smooth="yes"/>
      <point x="88.84642857142858" y="526.3642857142858"/>
      <point x="99.0875" y="516.8678571428571"/>
      <point x="110.83214285714286" y="516.8678571428571" type="curve" smooth="yes"/>
      <point x="124.0" y="516.8678571428571"/>
      <point x="166.0875" y="578.8821428571429"/>
      <point x="246.1017857142857" y="578.8821428571429" type="curve" smooth="yes"/>
      <point x="293.2035714285714" y="578.8821428571429"/>
      <point x="338.88928571428573" y="548.5464285714286"/>
      <point x="338.88928571428573" y="479.19642857142856" type="curve" smooth="yes"/>
      <point x="338.88928571428573" y="434.43035714285713"/>
      <point x="323.29821428571427" y="389.2553571428571"/>
      <point x="290.45178571428573" y="337.41607142857146" type="curve" smooth="yes"/>
      <point x="247.1017857142857" y="268.99285714285713"/>
      <point x="161.40178571428572" y="170.20535714285714"/>
      <point x="73.48928571428571" y="84.125" type="curve" smooth="yes"/>
      <point x="60.74464285714286" y="72.38035714285715"/>
      <point x="57.9125" y="63.21964285714286"/>
      <point x="57.9125" y="53.30714285714286" type="curve" smooth="yes"/>
      <point x="57.9125" y="39.394642857142856"/>
      <point x="69.16071428571429" y="0.0"/>
    </contour>
  </outline>
</glyph>
<glyph name="three" format="2">
  <advance width="548.3071428571428"/>
  <unicode hex="0033"/>
  <outline>
    <contour>
      <point x="223.32142857142858" y="-13.0" type="curve" smooth="yes"/>
      <point x="376.36607142857144" y="-13.0"/>
      <point x="473.4535714285714" y="76.31428571428572"/>
      <point x="473.4535714285714" y="190.5767857142857" type="curve" smooth="yes"/>
      <point x="473.4535714285714" y="278.825"/>
      <point x="415.11785714285713" y="340.1607142857143"/>
      <point x="329.2125" y="354.3285714285714" type="curve"/>
      <point x="365.29285714285714" y="364.41607142857146"/>
      <point x="460.1982142857143" y="420.50357142857143"/>
      <point x="460.1982142857143" y="510.0" type="curve" smooth="yes"/>
      <point x="460.1982142857143" y="609.3428571428572"/>
      <point x="378.85535714285714" y="652.0"/>
      <point x="267.475" y="652.0" type="curve" smooth="yes"/>
      <point x="197.32142857142858" y="652.0"/>
      <point x="145.65714285714284" y="639.0"/>
      <point x="110.24821428571428" y="618.3357142857143" type="curve" smooth="yes"/>
      <point x="93.0" y="608.3357142857143"/>
      <point x="83.83214285714286" y="595.0875"/>
      <point x="83.83214285714286" y="575.0946428571428" type="curve" smooth="yes"/>
      <point x="83.83214285714286" y="535.7803571428572"/>
      <point x="89.08035714285714" y="530.9482142857142"/>
      <point x="99.40892857142858" y="530.9482142857142" type="curve" smooth="yes"/>
      <point x="107.07321428571429" y="530.9482142857142"/>
      <point x="122.65714285714286" y="542.0357142857143"/>
      <point x="147.49642857142857" y="556.0428571428571" type="curve" smooth="yes"/>
      <point x="174.0" y="570.8821428571429"/>
      <point x="205.91964285714286" y="581.4660714285715"/>
      <point x="240.75178571428572" y="581.4660714285715" type="curve" smooth="yes"/>
      <point x="303.0875" y="581.4660714285715"/>
      <point x="339.19642857142856" y="544.05"/>
      <point x="339.19642857142856" y="484.1017857142857" type="curve" smooth="yes"/>
      <point x="339.19642857142856" y="401.65714285714284"/>
      <point x="254.32857142857142" y="361.9125"/>
      <point x="206.2625" y="358.58392857142854" type="curve" smooth="yes"/>
      <point x="197.59821428571428" y="358.16785714285714"/>
      <point x="192.18214285714285" y="345.2482142857143"/>
      <point x="192.18214285714285" y="327.6714285714286" type="curve" smooth="yes"/>
      <point x="192.18214285714285" y="316.34285714285716"/>
      <point x="193.43035714285713" y="311.2625"/>
      <point x="199.59107142857144" y="311.2625" type="curve" smooth="yes"/>
      <point x="279.7660714285714" y="311.2625"/>
      <point x="350.6267857142857" y="275.43035714285713"/>
      <point x="350.6267857142857" y="178.73035714285714" type="curve" smooth="yes"/>
      <point x="350.6267857142857" y="96.55535714285715"/>
      <point x="290.86071428571427" y="57.285714285714285"/>
      <point x="214.0" y="57.285714285714285" type="curve" smooth="yes"/>
      <point x="130.23392857142858" y="57.285714285714285"/>
      <point x="79.65714285714286" y="105.80357142857143"/>
      <point x="66.23392857142858" y="105.80357142857143" type="curve" smooth="yes"/>
      <point x="53.7375" y="105.80357142857143"/>
      <point x="51.489285714285714" y="97.80357142857143"/>
      <point x="51.489285714285714" y="68.49642857142857" type="curve" smooth="yes"/>
      <point x="51.489285714285714" y="40.41607142857143"/>
      <point x="60.23392857142857" y="28.167857142857144"/>
      <point x="77.48214285714286" y="17.751785714285713" type="curve" smooth="yes"/>
      <point x="108.48214285714286" y="-0.4160714285714286"/>
      <point x="147.8982142857143" y="-13.0"/>
    </contour>
  </outline>
</glyph>
<glyph name="four" format="2">
  <advance width="565.8392857142857"/>
  <unicode hex="0034"/>
  <outline>
    <contour>
      <point x="366.88392857142856" y="-13.0" type="curve" smooth="yes"/>
      <point x="389.2785714285714" y="-13.0"/>
      <point x="391.11071428571427" y="-7.503571428571428"/>
      <point x="391.11071428571427" y="5.817857142857143" type="curve" smooth="yes"/>
      <point x="391.11071428571427" y="64.65714285714286"/>
      <point x="392.5267857142857" y="122.7375"/>
      <point x="397.03035714285716" y="189.02857142857144" type="curve"/>
      <point x="521.6785714285714" y="189.02857142857144" type="line" smooth="yes"/>
      <point x="540.5910714285715" y="189.02857142857144"/>
      <point x="544.6785714285714" y="223.0142857142857"/>
      <point x="544.6785714285714" y="242.0142857142857" type="curve" smooth="yes"/>
      <point x="544.6785714285714" y="257.3357142857143"/>
      <point x="541.6785714285714" y="261.0"/>
      <point x="536.6785714285714" y="261.0" type="curve" smooth="yes"/>
      <point x="522.175" y="261.0"/>
      <point x="478.39464285714286" y="256.83214285714286"/>
      <point x="400.44642857142856" y="254.6642857142857" type="curve"/>
      <point x="406.44642857142856" y="379.55535714285713"/>
      <point x="422.70178571428573" y="591.7803571428572"/>
      <point x="422.70178571428573" y="607.4446428571429" type="curve" smooth="yes"/>
      <point x="422.70178571428573" y="638.7589285714286"/>
      <point x="369.4089285714286" y="652.0"/>
      <point x="334.43035714285713" y="652.0" type="curve" smooth="yes"/>
      <point x="322.26964285714286" y="652.0"/>
      <point x="316.8535714285714" y="649.0"/>
      <point x="309.525" y="639.8392857142857" type="curve" smooth="yes"/>
      <point x="271.5107142857143" y="589.8178571428572"/>
      <point x="53.34285714285714" y="290.09464285714284"/>
      <point x="40.175" y="260.6714285714286" type="curve" smooth="yes"/>
      <point x="37.34285714285714" y="254.83928571428572"/>
      <point x="36.926785714285714" y="248.51071428571427"/>
      <point x="36.926785714285714" y="243.43035714285713" type="curve" smooth="yes"/>
      <point x="36.926785714285714" y="220.6125"/>
      <point x="51.09464285714286" y="189.02857142857144"/>
      <point x="70.2625" y="189.02857142857144" type="curve" smooth="yes"/>
      <point x="279.70714285714286" y="189.02857142857144" type="line"/>
      <point x="274.7875" y="122.81071428571428"/>
      <point x="268.2035714285714" y="53.5625"/>
      <point x="268.2035714285714" y="32.72321428571429" type="curve" smooth="yes"/>
      <point x="268.2035714285714" y="1.4089285714285715"/>
      <point x="327.4089285714286" y="-13.0"/>
    </contour>
    <contour>
      <point x="107.81071428571428" y="252.0" type="line"/>
      <point x="134.99285714285713" y="298.94107142857143"/>
      <point x="263.4660714285714" y="480.75714285714287"/>
      <point x="298.1303571428571" y="519.7571428571429" type="curve"/>
      <point x="297.7142857142857" y="479.42857142857144"/>
      <point x="287.2910714285714" y="341.93392857142857"/>
      <point x="282.2910714285714" y="252.0" type="curve"/>
    </contour>
  </outline>
</glyph>
<glyph name="five" format="2">
  <advance width="545.2553571428572"/>
  <unicode hex="0035"/>
  <outline>
    <contour>
      <point x="237.3357142857143" y="-13.0" type="curve" smooth="yes"/>
      <point x="356.2482142857143" y="-13.0"/>
      <point x="475.7232142857143" y="55.43035714285714"/>
      <point x="475.7232142857143" y="200.99285714285713" type="curve" smooth="yes"/>
      <point x="475.7232142857143" y="326.4089285714286"/>
      <point x="399.3875" y="389.4089285714286"/>
      <point x="241.81071428571428" y="389.4089285714286" type="curve" smooth="yes"/>
      <point x="226.97857142857143" y="389.4089285714286"/>
      <point x="205.89107142857142" y="388.99285714285713"/>
      <point x="191.97142857142856" y="388.1607142857143" type="curve"/>
      <point x="209.14642857142857" y="547.4732142857143" type="line"/>
      <point x="435.49642857142857" y="547.4732142857143" type="line" smooth="yes"/>
      <point x="457.90535714285716" y="547.4732142857143"/>
      <point x="469.1464285714286" y="571.3053571428571"/>
      <point x="469.1464285714286" y="615.8535714285714" type="curve" smooth="yes"/>
      <point x="469.1464285714286" y="633.0071428571429"/>
      <point x="464.8982142857143" y="639.0"/>
      <point x="454.24107142857144" y="639.0" type="curve" smooth="yes"/>
      <point x="137.68571428571428" y="639.0" type="line"/>
      <point x="101.4375" y="308.2839285714286" type="line"/>
      <point x="125.35714285714286" y="311.45178571428573"/>
      <point x="169.69285714285715" y="314.45178571428573"/>
      <point x="192.3642857142857" y="314.45178571428573" type="curve" smooth="yes"/>
      <point x="306.30535714285713" y="314.45178571428573"/>
      <point x="354.6482142857143" y="258.5107142857143"/>
      <point x="354.6482142857143" y="191.24821428571428" type="curve" smooth="yes"/>
      <point x="354.6482142857143" y="105.48214285714286"/>
      <point x="300.8017857142857" y="57.86964285714286"/>
      <point x="226.35" y="57.86964285714286" type="curve" smooth="yes"/>
      <point x="137.09464285714284" y="57.86964285714286"/>
      <point x="103.75178571428572" y="102.88392857142857"/>
      <point x="89.41607142857143" y="102.88392857142857" type="curve" smooth="yes"/>
      <point x="78.0875" y="102.88392857142857"/>
      <point x="73.34285714285714" y="96.63571428571429"/>
      <point x="73.34285714285714" y="62.825" type="curve" smooth="yes"/>
      <point x="73.34285714285714" y="39.832142857142856"/>
      <point x="81.91964285714286" y="26.583928571428572"/>
      <point x="96.0" y="16.0" type="curve" smooth="yes"/>
      <point x="116.81785714285715" y="2.4232142857142858"/>
      <point x="157.23392857142858" y="-13.0"/>
    </contour>
  </outline>
</glyph>
<glyph name="six" format="2">
  <advance width="570.4017857142857"/>
  <unicode hex="0036"/>
  <outline>
    <contour>
      <point x="287.06607142857143" y="-13.0" type="curve" smooth="yes"/>
      <point x="438.0517857142857" y="-13.0"/>
      <point x="525.2928571428572" y="94.43035714285715"/>
      <point x="525.2928571428572" y="221.0" type="curve" smooth="yes"/>
      <point x="525.2928571428572" y="351.13214285714287"/>
      <point x="446.48214285714283" y="418.41607142857146"/>
      <point x="317.3803571428571" y="418.41607142857146" type="curve" smooth="yes"/>
      <point x="249.6875" y="418.41607142857146"/>
      <point x="204.3375" y="391.8107142857143"/>
      <point x="189.49821428571428" y="378.21964285714284" type="curve"/>
      <point x="216.94285714285715" y="514.5678571428572"/>
      <point x="316.2267857142857" y="591.2839285714285"/>
      <point x="429.05892857142857" y="591.2839285714285" type="curve" smooth="yes"/>
      <point x="437.7232142857143" y="591.2839285714285"/>
      <point x="440.55535714285713" y="598.6125"/>
      <point x="440.55535714285713" y="608.1892857142857" type="curve" smooth="yes"/>
      <point x="440.55535714285713" y="632.5035714285714"/>
      <point x="428.9714285714286" y="652.0"/>
      <point x="390.98571428571427" y="652.0" type="curve" smooth="yes"/>
      <point x="263.6357142857143" y="652.0"/>
      <point x="60.25535714285714" y="538.4017857142857"/>
      <point x="60.25535714285714" y="248.48928571428573" type="curve" smooth="yes"/>
      <point x="60.25535714285714" y="90.0"/>
      <point x="127.83214285714286" y="-13.0"/>
    </contour>
    <contour>
      <point x="292.8982142857143" y="39.89107142857143" type="curve" smooth="yes"/>
      <point x="200.43214285714285" y="39.89107142857143"/>
      <point x="179.3375" y="149.24107142857142"/>
      <point x="179.3375" y="230.0875" type="curve" smooth="yes"/>
      <point x="179.3375" y="242.25535714285715"/>
      <point x="179.92142857142858" y="261.2553571428571"/>
      <point x="181.50535714285715" y="267.6714285714286" type="curve" smooth="yes"/>
      <point x="196.0964285714286" y="329.01428571428573"/>
      <point x="250.38035714285715" y="365.1089285714286"/>
      <point x="305.32142857142856" y="365.1089285714286" type="curve" smooth="yes"/>
      <point x="356.7660714285714" y="365.1089285714286"/>
      <point x="406.6267857142857" y="324.26964285714286"/>
      <point x="406.6267857142857" y="216.75178571428572" type="curve" smooth="yes"/>
      <point x="406.6267857142857" y="101.65"/>
      <point x="351.5982142857143" y="39.89107142857143"/>
    </contour>
  </outline>
</glyph>
<glyph name="seven" format="2">
  <advance width="515.8392857142857"/>
  <unicode hex="0037"/>
  <outline>
    <contour>
      <point x="148.05892857142857" y="-13.0" type="curve" smooth="yes"/>
      <point x="171.04464285714286" y="-13.0"/>
      <point x="187.0375" y="-11.0"/>
      <point x="195.36607142857144" y="2.4089285714285715" type="curve" smooth="yes"/>
      <point x="294.3" y="150.50357142857143"/>
      <point x="436.3803571428571" y="447.0285714285714"/>
      <point x="465.2339285714286" y="520.6267857142857" type="curve" smooth="yes"/>
      <point x="471.32142857142856" y="535.5464285714286"/>
      <point x="480.24107142857144" y="562.2839285714285"/>
      <point x="480.24107142857144" y="573.9410714285714" type="curve" smooth="yes"/>
      <point x="480.24107142857144" y="613.5035714285714"/>
      <point x="470.32142857142856" y="639.0"/>
      <point x="459.08035714285717" y="639.0" type="curve" smooth="yes"/>
      <point x="113.5625" y="639.0" type="line" smooth="yes"/>
      <point x="92.99285714285715" y="639.0"/>
      <point x="78.67142857142858" y="607.8392857142857"/>
      <point x="78.67142857142858" y="542.6482142857143" type="curve" smooth="yes"/>
      <point x="78.67142857142858" y="520.5017857142857"/>
      <point x="81.75178571428572" y="516.5017857142857"/>
      <point x="91.32857142857142" y="516.5017857142857" type="curve" smooth="yes"/>
      <point x="101.32857142857142" y="516.5017857142857"/>
      <point x="200.64285714285714" y="528.0053571428572"/>
      <point x="374.30535714285713" y="528.0053571428572" type="curve"/>
      <point x="340.7142857142857" y="420.4142857142857"/>
      <point x="189.0142857142857" y="133.24107142857142"/>
      <point x="98.50357142857143" y="25.89821428571429" type="curve" smooth="yes"/>
      <point x="93.42321428571428" y="19.817857142857143"/>
      <point x="89.0875" y="13.985714285714286"/>
      <point x="89.0875" y="8.073214285714286" type="curve" smooth="yes"/>
      <point x="89.0875" y="-3.4232142857142858"/>
      <point x="119.40892857142858" y="-13.0"/>
    </contour>
  </outline>
</glyph>
<glyph name="eight" format="2">
  <advance width="576.6714285714286"/>
  <unicode hex="0038"/>
  <outline>
    <contour>
      <point x="259.2553571428571" y="-13.0" type="curve" smooth="yes"/>
      <point x="426.73035714285714" y="-13.0"/>
      <point x="506.5625" y="84.825"/>
      <point x="506.5625" y="185.90535714285716" type="curve" smooth="yes"/>
      <point x="506.5625" y="250.48214285714286"/>
      <point x="477.65714285714284" y="302.6357142857143"/>
      <point x="386.4607142857143" y="352.65" type="curve"/>
      <point x="454.2125" y="378.90535714285716"/>
      <point x="502.97857142857146" y="435.4089285714286"/>
      <point x="502.97857142857146" y="505.34285714285716" type="curve" smooth="yes"/>
      <point x="502.97857142857146" y="586.5178571428571"/>
      <point x="436.2125" y="652.0"/>
      <point x="307.58392857142854" y="652.0" type="curve" smooth="yes"/>
      <point x="193.95535714285714" y="652.0"/>
      <point x="98.69285714285715" y="590.4517857142857"/>
      <point x="98.69285714285715" y="482.1089285714286" type="curve" smooth="yes"/>
      <point x="98.69285714285715" y="415.60535714285714"/>
      <point x="135.7875" y="358.35714285714283"/>
      <point x="200.2982142857143" y="321.4375" type="curve"/>
      <point x="111.94107142857143" y="286.1017857142857"/>
      <point x="63.75892857142857" y="228.93392857142857"/>
      <point x="63.75892857142857" y="152.6642857142857" type="curve" smooth="yes"/>
      <point x="63.75892857142857" y="68.16071428571429"/>
      <point x="127.35" y="-13.0"/>
    </contour>
    <contour>
      <point x="272.8392857142857" y="40.475" type="curve" smooth="yes"/>
      <point x="189.5482142857143" y="40.475"/>
      <point x="157.87678571428572" y="99.83928571428571"/>
      <point x="157.87678571428572" y="153.25535714285715" type="curve" smooth="yes"/>
      <point x="157.87678571428572" y="221.12321428571428"/>
      <point x="208.16071428571428" y="263.45892857142854"/>
      <point x="258.35714285714283" y="289.2910714285714" type="curve"/>
      <point x="299.4089285714286" y="263.0642857142857"/>
      <point x="389.8964285714286" y="226.40714285714284"/>
      <point x="389.8964285714286" y="139.4375" type="curve" smooth="yes"/>
      <point x="389.8964285714286" y="66.48214285714286"/>
      <point x="329.9482142857143" y="40.475"/>
    </contour>
    <contour>
      <point x="331.5625" y="381.9642857142857" type="curve"/>
      <point x="257.46785714285716" y="418.88392857142856"/>
      <point x="212.5339285714286" y="455.21964285714284"/>
      <point x="212.5339285714286" y="515.0732142857142" type="curve" smooth="yes"/>
      <point x="212.5339285714286" y="575.1017857142857"/>
      <point x="259.2267857142857" y="599.8607142857143"/>
      <point x="308.7446428571429" y="599.8607142857143" type="curve" smooth="yes"/>
      <point x="365.9267857142857" y="599.8607142857143"/>
      <point x="411.86071428571427" y="564.1821428571428"/>
      <point x="411.86071428571427" y="505.34285714285716" type="curve" smooth="yes"/>
      <point x="411.86071428571427" y="457.57678571428573"/>
      <point x="381.2625" y="414.39464285714286"/>
    </contour>
  </outline>
</glyph>
<glyph name="nine" format="2">
  <advance width="548.3214285714286"/>
  <unicode hex="0039"/>
  <outline>
    <contour>
      <point x="179.5625" y="-13.0" type="curve" smooth="yes"/>
      <point x="306.9125" y="-13.0"/>
      <point x="510.29285714285714" y="100.59821428571428"/>
      <point x="510.29285714285714" y="390.5107142857143" type="curve" smooth="yes"/>
      <point x="510.29285714285714" y="549.0"/>
      <point x="442.7160714285714" y="652.0"/>
      <point x="283.48214285714283" y="652.0" type="curve" smooth="yes"/>
      <point x="132.49642857142857" y="652.0"/>
      <point x="45.25535714285714" y="544.5696428571429"/>
      <point x="45.25535714285714" y="418.0" type="curve" smooth="yes"/>
      <point x="45.25535714285714" y="287.86785714285713"/>
      <point x="124.06607142857143" y="220.58392857142857"/>
      <point x="253.16785714285714" y="220.58392857142857" type="curve" smooth="yes"/>
      <point x="320.86071428571427" y="220.58392857142857"/>
      <point x="366.2107142857143" y="247.18928571428572"/>
      <point x="381.05" y="260.78035714285716" type="curve"/>
      <point x="353.60535714285714" y="124.43214285714285"/>
      <point x="254.32142857142858" y="47.716071428571425"/>
      <point x="141.48928571428573" y="47.716071428571425" type="curve" smooth="yes"/>
      <point x="132.825" y="47.716071428571425"/>
      <point x="129.99285714285713" y="40.3875"/>
      <point x="129.99285714285713" y="30.810714285714287" type="curve" smooth="yes"/>
      <point x="129.99285714285713" y="6.496428571428572"/>
      <point x="141.5767857142857" y="-13.0"/>
    </contour>
    <contour>
      <point x="265.2267857142857" y="273.05892857142857" type="curve" smooth="yes"/>
      <point x="213.78214285714284" y="273.05892857142857"/>
      <point x="163.92142857142858" y="313.8982142857143"/>
      <point x="163.92142857142858" y="421.41607142857146" type="curve" smooth="yes"/>
      <point x="163.92142857142858" y="536.5178571428571"/>
      <point x="218.95" y="598.2767857142857"/>
      <point x="277.65" y="598.2767857142857" type="curve" smooth="yes"/>
      <point x="370.11607142857144" y="598.2767857142857"/>
      <point x="391.2107142857143" y="488.9267857142857"/>
      <point x="391.2107142857143" y="408.08035714285717" type="curve" smooth="yes"/>
      <point x="391.2107142857143" y="396.3285714285714"/>
      <point x="390.6267857142857" y="376.08035714285717"/>
      <point x="389.04285714285714" y="370.49642857142857" type="curve" smooth="yes"/>
      <point x="374.0357142857143" y="309.1535714285714"/>
      <point x="320.16785714285714" y="273.05892857142857"/>
    </contour>
  </outline>
</glyph>
<glyph name="colon" format="2">
  <advance width="275.0"/>
  <unicode hex="003A"/>
  <outline>
    <contour>
      <point x="125.97857142857143" y="124.40535714285716" type="curve" smooth="yes"/>
      <point x="162.38035714285715" y="124.40535714285716"/>
      <point x="198.76785714285714" y="153.39107142857142"/>
      <point x="199.3517857142857" y="189.36964285714288" type="curve" smooth="yes"/>
      <point x="200.51964285714286" y="237.51607142857145"/>
      <point x="172.0375" y="257.01250000000005"/>
      <point x="144.30714285714285" y="257.01250000000005" type="curve" smooth="yes"/>
      <point x="111.24821428571428" y="257.01250000000005"/>
      <point x="70.59821428571428" y="233.5964285714286"/>
      <point x="70.59821428571428" y="184.7857142857143" type="curve" smooth="yes"/>
      <point x="70.59821428571428" y="153.29642857142858"/>
      <point x="90.24821428571428" y="124.40535714285716"/>
    </contour>
    <contour>
      <point x="147.0142857142857" y="232.57142857142856" type="curve" smooth="yes"/>
      <point x="180.65714285714284" y="232.57142857142856"/>
      <point x="221.30714285714285" y="255.98749999999998"/>
      <point x="221.30714285714285" y="304.79821428571427" type="curve" smooth="yes"/>
      <point x="221.30714285714285" y="336.2875"/>
      <point x="201.0732142857143" y="365.17857142857144"/>
      <point x="165.9267857142857" y="365.17857142857144" type="curve" smooth="yes"/>
      <point x="128.94107142857143" y="365.17857142857144"/>
      <point x="92.55357142857142" y="336.1928571428572"/>
      <point x="92.55357142857142" y="299.79821428571427" type="curve" smooth="yes"/>
      <point x="92.55357142857142" y="252.06785714285712"/>
      <point x="119.86785714285713" y="232.57142857142856"/>
    </contour>
  </outline>
</glyph>
<glyph name="semicolon" format="2">
  <advance width="285.56964285714287"/>
  <unicode hex="003B"/>
  <outline>
    <contour>
      <point x="163.99285714285713" y="357.3928571428571" type="curve" smooth="yes"/>
      <point x="194.55535714285713" y="357.3928571428571"/>
      <point x="238.5339285714286" y="388.7142857142857"/>
      <point x="238.5339285714286" y="431.7" type="curve" smooth="yes"/>
      <point x="238.5339285714286" y="474.00714285714287"/>
      <point x="214.1392857142857" y="490.0"/>
      <point x="182.32142857142858" y="490.0" type="curve" smooth="yes"/>
      <point x="142.83928571428572" y="490.0"/>
      <point x="109.78035714285714" y="468.91964285714283"/>
      <point x="109.78035714285714" y="427.11607142857144" type="curve" smooth="yes"/>
      <point x="109.78035714285714" y="389.7875"/>
      <point x="132.93392857142857" y="357.3928571428571"/>
    </contour>
    <contour>
      <point x="54.31428571428572" y="-78.41607142857143" type="curve" smooth="yes"/>
      <point x="74.05178571428571" y="-78.41607142857143"/>
      <point x="84.46785714285714" y="-74.83214285714286"/>
      <point x="98.20535714285714" y="-64.42321428571428" type="curve" smooth="yes"/>
      <point x="135.0375" y="-30.248214285714287"/>
      <point x="205.8625" y="51.67142857142857"/>
      <point x="205.8625" y="82.67142857142858" type="curve" smooth="yes"/>
      <point x="205.8625" y="94.41607142857143"/>
      <point x="200.1982142857143" y="106.9125"/>
      <point x="186.95714285714286" y="121.56964285714285" type="curve" smooth="yes"/>
      <point x="175.71607142857144" y="133.2267857142857"/>
      <point x="152.0732142857143" y="150.54107142857143"/>
      <point x="138.08035714285714" y="150.54107142857143" type="curve" smooth="yes"/>
      <point x="130.75178571428572" y="150.54107142857143"/>
      <point x="128.0875" y="148.29285714285714"/>
      <point x="123.59107142857142" y="135.6357142857143" type="curve" smooth="yes"/>
      <point x="103.41607142857143" y="86.28571428571428"/>
      <point x="49.503571428571426" y="-14.948214285714286"/>
      <point x="32.67857142857143" y="-45.846428571428575" type="curve" smooth="yes"/>
      <point x="25.510714285714286" y="-57.846428571428575"/>
      <point x="22.09464285714286" y="-62.67857142857143"/>
      <point x="22.09464285714286" y="-65.09464285714286" type="curve" smooth="yes"/>
      <point x="22.09464285714286" y="-68.09464285714286"/>
      <point x="39.160714285714285" y="-78.41607142857143"/>
    </contour>
  </outline>
</glyph>
<glyph name="less" format="2">
  <advance width="540.0"/>
  <unicode hex="003C"/>
  <outline>
    <contour>
      <point x="426.00714285714287" y="103.26964285714286" type="curve" smooth="yes"/>
      <point x="436.75892857142856" y="103.26964285714286"/>
      <point x="439.2553571428571" y="125.75892857142857"/>
      <point x="439.2553571428571" y="147.91964285714286" type="curve" smooth="yes"/>
      <point x="439.2553571428571" y="161.65714285714284"/>
      <point x="437.175" y="173.06607142857143"/>
      <point x="414.02142857142854" y="184.2267857142857" type="curve" smooth="yes"/>
      <point x="179.43214285714285" y="293.6857142857143" type="line"/>
      <point x="459.67857142857144" y="410.55357142857144" type="line" smooth="yes"/>
      <point x="481.00714285714287" y="419.8017857142857"/>
      <point x="484.58392857142854" y="447.4660714285714"/>
      <point x="484.58392857142854" y="484.91964285714283" type="curve" smooth="yes"/>
      <point x="484.58392857142854" y="509.1464285714286"/>
      <point x="479.0875" y="520.9785714285714"/>
      <point x="472.42321428571427" y="520.9785714285714" type="curve" smooth="yes"/>
      <point x="467.175" y="520.9785714285714"/>
      <point x="458.9267857142857" y="519.1464285714286"/>
      <point x="444.2625" y="512.7303571428571" type="curve" smooth="yes"/>
      <point x="93.175" y="360.39464285714286" type="line" smooth="yes"/>
      <point x="78.09464285714286" y="353.5625"/>
      <point x="70.09464285714286" y="342.65"/>
      <point x="70.09464285714286" y="325.65714285714284" type="curve" smooth="yes"/>
      <point x="70.09464285714286" y="291.2482142857143"/>
      <point x="74.34285714285714" y="267.26964285714286"/>
      <point x="93.25535714285714" y="258.02142857142854" type="curve" smooth="yes"/>
      <point x="406.00714285714287" y="110.85357142857143" type="line" smooth="yes"/>
      <point x="419.00714285714287" y="104.85357142857143"/>
      <point x="422.00714285714287" y="103.26964285714286"/>
    </contour>
  </outline>
</glyph>
<glyph name="equal" format="2">
  <advance width="554.1607142857143"/>
  <unicode hex="003D"/>
  <outline>
    <contour>
      <point x="257.77857142857147" y="422.9357142857143" type="curve" smooth="yes"/>
      <point x="315.51428571428573" y="422.9357142857143" type="line" smooth="yes"/>
      <point x="318.61607142857144" y="422.9357142857143"/>
      <point x="317.2946428571429" y="423.80357142857144"/>
      <point x="317.2946428571429" y="413.5982142857143" type="curve" smooth="yes"/>
      <point x="317.2946428571429" y="403.2910714285714"/>
      <point x="317.6232142857143" y="402.2107142857143"/>
      <point x="318.8642857142857" y="402.2107142857143" type="curve" smooth="yes"/>
      <point x="261.12857142857143" y="402.2107142857143" type="line" smooth="yes"/>
      <point x="258.0267857142857" y="402.2107142857143"/>
      <point x="259.34821428571433" y="401.9267857142857"/>
      <point x="259.34821428571433" y="412.54821428571427" type="curve" smooth="yes"/>
      <point x="259.34821428571433" y="421.85535714285714"/>
      <point x="259.01964285714286" y="422.9357142857143"/>
    </contour>
    <contour>
      <point x="246.77857142857144" y="237.5625" type="curve" smooth="yes"/>
      <point x="304.51428571428573" y="237.5625" type="line" smooth="yes"/>
      <point x="307.61607142857144" y="237.5625"/>
      <point x="305.7107142857143" y="236.84642857142856"/>
      <point x="305.7107142857143" y="226.225" type="curve" smooth="yes"/>
      <point x="305.7107142857143" y="217.33392857142857"/>
      <point x="306.6232142857143" y="216.25357142857143"/>
      <point x="307.8642857142857" y="216.25357142857143" type="curve" smooth="yes"/>
      <point x="250.12857142857143" y="216.25357142857143" type="line" smooth="yes"/>
      <point x="246.44285714285715" y="216.25357142857143"/>
      <point x="248.3482142857143" y="214.96964285714284"/>
      <point x="248.3482142857143" y="225.75892857142858" type="curve" smooth="yes"/>
      <point x="248.3482142857143" y="236.06607142857143"/>
      <point x="248.01964285714286" y="237.5625"/>
    </contour>
  </outline>
</glyph>
<glyph name="greater" format="2">
  <advance width="546.6428571428571"/>
  <unicode hex="003E"/>
  <outline>
    <contour>
      <point x="81.7375" y="102.68571428571428" type="curve" smooth="yes"/>
      <point x="86.98571428571428" y="102.68571428571428"/>
      <point x="95.23392857142858" y="104.51785714285714"/>
      <point x="109.89821428571429" y="110.93392857142857" type="curve" smooth="yes"/>
      <point x="459.7375" y="262.8535714285714" type="line" smooth="yes"/>
      <point x="477.48214285714283" y="270.51785714285717"/>
      <point x="484.06607142857143" y="294.3285714285714"/>
      <point x="484.06607142857143" y="319.39464285714286" type="curve" smooth="yes"/>
      <point x="484.06607142857143" y="345.73035714285714"/>
      <point x="480.4017857142857" y="356.39464285714286"/>
      <point x="460.90535714285716" y="365.64285714285717" type="curve" smooth="yes"/>
      <point x="148.7375" y="512.8107142857143" type="line" smooth="yes"/>
      <point x="135.7375" y="518.8107142857143"/>
      <point x="132.15357142857144" y="520.3946428571429"/>
      <point x="128.15357142857144" y="520.3946428571429" type="curve" smooth="yes"/>
      <point x="117.40178571428572" y="520.3946428571429"/>
      <point x="114.90535714285714" y="497.90535714285716"/>
      <point x="114.90535714285714" y="475.7446428571429" type="curve" smooth="yes"/>
      <point x="114.90535714285714" y="462.00714285714287"/>
      <point x="116.98571428571428" y="450.5982142857143"/>
      <point x="140.1392857142857" y="440.02142857142854" type="curve" smooth="yes"/>
      <point x="374.7285714285714" y="329.97857142857146" type="line"/>
      <point x="94.48214285714286" y="213.1107142857143" type="line" smooth="yes"/>
      <point x="73.15357142857142" y="203.8625"/>
      <point x="69.57678571428572" y="173.8625"/>
      <point x="69.57678571428572" y="136.40892857142856" type="curve" smooth="yes"/>
      <point x="69.57678571428572" y="112.18214285714285"/>
      <point x="75.07321428571429" y="102.68571428571428"/>
    </contour>
  </outline>
</glyph>
<glyph name="question" format="2">
  <advance width="447.0"/>
  <unicode hex="003F"/>
  <outline>
    <contour>
      <point x="144.48928571428573" y="222.81071428571428" type="curve" smooth="yes"/>
      <point x="158.48928571428573" y="222.81071428571428"/>
      <point x="157.64285714285714" y="245.32142857142858"/>
      <point x="210.93392857142857" y="285.1017857142857" type="curve" smooth="yes"/>
      <point x="295.32142857142856" y="346.83214285714286"/>
      <point x="407.29285714285714" y="388.53214285714284"/>
      <point x="407.29285714285714" y="500.0875" type="curve" smooth="yes"/>
      <point x="407.29285714285714" y="541.0071428571429"/>
      <point x="392.2125" y="574.8392857142857"/>
      <point x="369.54821428571427" y="599.9196428571429" type="curve" smooth="yes"/>
      <point x="332.9714285714286" y="640.3285714285714"/>
      <point x="270.1535714285714" y="652.0"/>
      <point x="211.7375" y="652.0" type="curve" smooth="yes"/>
      <point x="151.8982142857143" y="652.0"/>
      <point x="82.56964285714285" y="631.5767857142857"/>
      <point x="46.080357142857146" y="593.2339285714286" type="curve" smooth="yes"/>
      <point x="36.175" y="586.0732142857142"/>
      <point x="33.175" y="576.6642857142857"/>
      <point x="33.175" y="564.0875" type="curve" smooth="yes"/>
      <point x="33.175" y="531.0214285714286"/>
      <point x="41.839285714285715" y="515.1892857142857"/>
      <point x="53.167857142857144" y="515.1892857142857" type="curve" smooth="yes"/>
      <point x="56.58392857142857" y="515.1892857142857"/>
      <point x="63.919642857142854" y="522.6125"/>
      <point x="79.00714285714285" y="536.7875" type="curve" smooth="yes"/>
      <point x="104.75178571428572" y="557.875"/>
      <point x="146.0875" y="581.7142857142857"/>
      <point x="202.60535714285714" y="581.7142857142857" type="curve" smooth="yes"/>
      <point x="251.88214285714287" y="581.7142857142857"/>
      <point x="279.6410714285714" y="545.2767857142857"/>
      <point x="279.6410714285714" y="498.5107142857143" type="curve" smooth="yes"/>
      <point x="279.6410714285714" y="440.5625"/>
      <point x="222.18214285714285" y="387.13214285714287"/>
      <point x="167.0875" y="338.7160714285714" type="curve" smooth="yes"/>
      <point x="142.59107142857144" y="315.8910714285714"/>
      <point x="127.08035714285714" y="289.475"/>
      <point x="127.08035714285714" y="260.9714285714286" type="curve" smooth="yes"/>
      <point x="127.08035714285714" y="242.97857142857143"/>
      <point x="132.48928571428573" y="222.81071428571428"/>
    </contour>
    <contour>
      <point x="158.73035714285714" y="-0.4160714285714286" type="curve" smooth="yes"/>
      <point x="197.62857142857143" y="-0.4160714285714286"/>
      <point x="231.27142857142857" y="20.664285714285715"/>
      <point x="231.27142857142857" y="62.46785714285714" type="curve" smooth="yes"/>
      <point x="231.27142857142857" y="99.79642857142858"/>
      <point x="208.11785714285713" y="132.19107142857143"/>
      <point x="177.05892857142857" y="132.19107142857143" type="curve" smooth="yes"/>
      <point x="146.49642857142857" y="132.19107142857143"/>
      <point x="102.51785714285714" y="100.86964285714285"/>
      <point x="102.51785714285714" y="57.46785714285714" type="curve" smooth="yes"/>
      <point x="102.51785714285714" y="15.576785714285714"/>
      <point x="126.32857142857142" y="-0.4160714285714286"/>
    </contour>
  </outline>
</glyph>
<glyph name="at" format="2">
  <advance width="849.1035714285714"/>
  <unicode hex="0040"/>
  <outline>
    <contour>
      <point x="146.1392857142857" y="-127.25535714285714" type="curve" smooth="yes"/>
      <point x="153.80357142857144" y="-127.25535714285714"/>
      <point x="159.0517857142857" y="-124.42321428571428"/>
      <point x="159.0517857142857" y="-119.59107142857142" type="curve" smooth="yes"/>
      <point x="159.0517857142857" y="-113.59107142857142"/>
      <point x="153.46785714285716" y="-99.67142857142858"/>
      <point x="149.6357142857143" y="-86.92678571428571" type="curve" smooth="yes"/>
      <point x="121.96428571428572" y="9.255357142857143"/>
      <point x="108.79642857142858" y="98.18214285714285"/>
      <point x="108.79642857142858" y="192.58392857142857" type="curve" smooth="yes"/>
      <point x="108.79642857142858" y="443.2767857142857"/>
      <point x="239.0732142857143" y="591.0214285714286"/>
      <point x="457.70178571428573" y="591.0214285714286" type="curve" smooth="yes"/>
      <point x="691.0821428571429" y="591.0214285714286"/>
      <point x="774.775" y="490.4375"/>
      <point x="774.775" y="360.98571428571427" type="curve" smooth="yes"/>
      <point x="774.775" y="265.0375"/>
      <point x="734.6" y="180.0232142857143"/>
      <point x="680.6589285714285" y="118.92142857142858" type="curve" smooth="yes"/>
      <point x="665.4107142857143" y="100.34464285714286"/>
      <point x="652.9142857142857" y="89.01607142857142"/>
      <point x="646.0821428571429" y="89.01607142857142" type="curve" smooth="yes"/>
      <point x="636.7464285714286" y="89.01607142857142"/>
      <point x="634.5785714285714" y="96.92857142857143"/>
      <point x="634.5785714285714" y="133.7607142857143" type="curve" smooth="yes"/>
      <point x="634.5785714285714" y="220.65"/>
      <point x="645.6660714285714" y="377.43035714285713"/>
      <point x="645.6660714285714" y="384.8464285714286" type="curve"/>
      <point x="650.25" y="384.8464285714286"/>
      <point x="657.3303571428571" y="398.5910714285714"/>
      <point x="657.3303571428571" y="416.91964285714283" type="curve" smooth="yes"/>
      <point x="657.3303571428571" y="424.41607142857146"/>
      <point x="655.4982142857143" y="425.0"/>
      <point x="652.0821428571429" y="426.0" type="curve" smooth="yes"/>
      <point x="554.1178571428571" y="442.49642857142857"/>
      <point x="471.85535714285714" y="449.2482142857143"/>
      <point x="433.55535714285713" y="449.2482142857143" type="curve" smooth="yes"/>
      <point x="364.65714285714284" y="449.2482142857143"/>
      <point x="313.32142857142856" y="414.0"/>
      <point x="271.1535714285714" y="356.83214285714286" type="curve" smooth="yes"/>
      <point x="227.15357142857144" y="297.41607142857146"/>
      <point x="224.56964285714287" y="120.41607142857143"/>
      <point x="224.56964285714287" y="70.475" type="curve" smooth="yes"/>
      <point x="224.56964285714287" y="52.971428571428575"/>
      <point x="225.56964285714287" y="41.80357142857143"/>
      <point x="228.15357142857144" y="32.475" type="curve" smooth="yes"/>
      <point x="232.9857142857143" y="9.32857142857143"/>
      <point x="286.5339285714286" y="-13.0"/>
      <point x="299.03035714285716" y="-13.0" type="curve" smooth="yes"/>
      <point x="349.70178571428573" y="-13.0"/>
      <point x="488.0517857142857" y="161.10892857142858"/>
      <point x="530.0803571428571" y="256.9839285714286" type="curve"/>
      <point x="525.1607142857143" y="201.9482142857143"/>
      <point x="521.4089285714285" y="110.7375"/>
      <point x="521.4089285714285" y="70.475" type="curve" smooth="yes"/>
      <point x="521.4089285714285" y="52.971428571428575"/>
      <point x="521.825" y="41.80357142857143"/>
      <point x="524.4089285714285" y="32.475" type="curve" smooth="yes"/>
      <point x="529.2410714285714" y="9.32857142857143"/>
      <point x="583.3732142857143" y="-13.0"/>
      <point x="595.2857142857143" y="-13.0" type="curve" smooth="yes"/>
      <point x="610.4535714285714" y="-13.0"/>
      <point x="638.6214285714286" y="4.416071428571429"/>
      <point x="668.8696428571428" y="35.41607142857143" type="curve" smooth="yes"/>
      <point x="766.0964285714285" y="135.48214285714286"/>
      <point x="828.8410714285715" y="253.05892857142857"/>
      <point x="828.8410714285715" y="370.05892857142857" type="curve" smooth="yes"/>
      <point x="828.8410714285715" y="492.6857142857143"/>
      <point x="760.8928571428571" y="652.0"/>
      <point x="460.11071428571427" y="652.0" type="curve" smooth="yes"/>
      <point x="181.32142857142858" y="652.0"/>
      <point x="40.080357142857146" y="475.8178571428571"/>
      <point x="40.080357142857146" y="217.56964285714287" type="curve" smooth="yes"/>
      <point x="40.080357142857146" y="119.56964285714285"/>
      <point x="61.160714285714285" y="12.153571428571428"/>
      <point x="104.90535714285714" y="-103.42321428571428" type="curve" smooth="yes"/>
      <point x="111.15357142857142" y="-120.0875"/>
      <point x="129.14642857142857" y="-127.25535714285714"/>
    </contour>
    <contour>
      <point x="350.49107142857144" y="88.6" type="curve" smooth="yes"/>
      <point x="341.15535714285716" y="88.6"/>
      <point x="338.57142857142856" y="93.6"/>
      <point x="338.57142857142856" y="132.0964285714286" type="curve" smooth="yes"/>
      <point x="338.57142857142856" y="305.32142857142856"/>
      <point x="369.25" y="401.1821428571429"/>
      <point x="430.68035714285713" y="401.1821428571429" type="curve" smooth="yes"/>
      <point x="455.6071428571429" y="401.1821428571429"/>
      <point x="491.7089285714286" y="398.01428571428573"/>
      <point x="539.9928571428571" y="387.75892857142856" type="curve"/>
      <point x="518.9714285714285" y="266.5910714285714"/>
      <point x="373.08214285714286" y="88.6"/>
    </contour>
  </outline>
</glyph>
<glyph name="A" format="2">
  <advance width="645.7375"/>
  <unicode hex="0041"/>
  <anchor x="306.50357142857143" y="0.0" name="bottom"/>
  <anchor x="526.4089285714285" y="0.0" name="ogonek"/>
  <anchor x="371.8178571428571" y="652.0" name="top"/>
  <outline>
    <contour>
      <point x="65.38035714285715" y="-13.0" type="curve" smooth="yes"/>
      <point x="75.37321428571428" y="-13.0"/>
      <point x="76.95714285714286" y="-9.751785714285715"/>
      <point x="79.54107142857143" y="-3.5839285714285714" type="curve" smooth="yes"/>
      <point x="94.53392857142858" y="37.5625"/>
      <point x="164.48928571428573" y="188.63392857142856"/>
      <point x="175.74464285714285" y="208.30535714285713" type="curve"/>
      <point x="200.25535714285715" y="209.30535714285713"/>
      <point x="250.93392857142857" y="211.8892857142857"/>
      <point x="300.4375" y="211.8892857142857" type="curve" smooth="yes"/>
      <point x="346.875" y="211.8892857142857"/>
      <point x="406.5392857142857" y="209.8892857142857"/>
      <point x="431.2839285714286" y="208.05714285714285" type="curve"/>
      <point x="448.9625" y="150.27678571428572"/>
      <point x="471.48035714285714" y="70.30714285714285"/>
      <point x="476.81607142857143" y="41.13928571428572" type="curve" smooth="yes"/>
      <point x="479.4" y="27.058928571428574"/>
      <point x="483.6482142857143" y="20.5625"/>
      <point x="488.7285714285714" y="15.482142857142858" type="curve" smooth="yes"/>
      <point x="506.29821428571427" y="-2.0875"/>
      <point x="551.7589285714286" y="-13.0"/>
      <point x="590.9928571428571" y="-13.0" type="curve" smooth="yes"/>
      <point x="615.9714285714285" y="-13.0"/>
      <point x="619.8839285714286" y="-7.503571428571428"/>
      <point x="619.8839285714286" y="2.9053571428571434" type="curve" smooth="yes"/>
      <point x="619.8839285714286" y="6.489285714285715"/>
      <point x="618.8839285714286" y="10.569642857142858"/>
      <point x="615.4678571428572" y="22.89821428571429" type="curve" smooth="yes"/>
      <point x="590.8767857142857" y="109.90535714285714"/>
      <point x="467.4982142857143" y="505.58214285714286"/>
      <point x="441.5053571428571" y="614.8607142857143" type="curve" smooth="yes"/>
      <point x="437.425" y="634.0946428571428"/>
      <point x="385.9642857142857" y="652.0"/>
      <point x="332.8392857142857" y="652.0" type="curve" smooth="yes"/>
      <point x="310.0285714285714" y="652.0"/>
      <point x="305.3642857142857" y="648.9196428571429"/>
      <point x="301.7" y="637.6785714285714" type="curve" smooth="yes"/>
      <point x="262.75892857142856" y="552.1392857142857"/>
      <point x="76.61428571428571" y="177.28035714285716"/>
      <point x="12.905357142857143" y="51.38035714285714" type="curve" smooth="yes"/>
      <point x="8.408928571428572" y="41.971428571428575"/>
      <point x="6.241071428571429" y="36.80357142857143"/>
      <point x="6.241071428571429" y="32.30714285714286" type="curve" smooth="yes"/>
      <point x="6.241071428571429" y="4.321428571428571"/>
      <point x="36.64285714285714" y="-13.0"/>
    </contour>
    <contour>
      <point x="203.40178571428572" y="272.1089285714286" type="line"/>
      <point x="229.8982142857143" y="328.5107142857143"/>
      <point x="305.0875" y="488.63392857142856"/>
      <point x="335.2625" y="535.1446428571428" type="curve"/>
      <point x="348.35" y="493.0571428571429"/>
      <point x="399.0357142857143" y="330.0285714285714"/>
      <point x="413.95535714285717" y="272.1089285714286" type="curve"/>
    </contour>
  </outline>
</glyph>
<glyph name="B" format="2">
  <advance width="624.2428571428571"/>
  <unicode hex="0042"/>
  <anchor x="292.6" y="0.0" name="bottom"/>
  <anchor x="330.51964285714286" y="652.0" name="top"/>
  <outline>
    <contour>
      <point x="83.4375" y="0.0" type="curve"/>
      <point x="321.3232142857143" y="0.0" type="line" smooth="yes"/>
      <point x="476.2285714285714" y="0.0"/>
      <point x="564.3821428571429" y="94.92678571428571"/>
      <point x="564.3821428571429" y="199.74464285714285" type="curve" smooth="yes"/>
      <point x="564.3821428571429" y="281.1535714285714"/>
      <point x="508.30892857142857" y="341.41607142857146"/>
      <point x="409.38214285714287" y="350.41607142857146" type="curve"/>
      <point x="451.1928571428572" y="361.6642857142857"/>
      <point x="547.7107142857143" y="403.65714285714284"/>
      <point x="547.7107142857143" y="506.6714285714286" type="curve" smooth="yes"/>
      <point x="547.7107142857143" y="597.1607142857143"/>
      <point x="479.05357142857144" y="639.0"/>
      <point x="350.64464285714286" y="639.0" type="curve" smooth="yes"/>
      <point x="116.525" y="639.0" type="line"/>
      <point x="111.26964285714286" y="429.90535714285716"/>
      <point x="87.525" y="61.85357142857143"/>
    </contour>
    <contour>
      <point x="290.44642857142856" y="58.21964285714286" type="curve" smooth="yes"/>
      <point x="228.425" y="58.21964285714286"/>
      <point x="214.34464285714284" y="66.71607142857142"/>
      <point x="215.1767857142857" y="104.05178571428571" type="curve" smooth="yes"/>
      <point x="216.425" y="163.21964285714284"/>
      <point x="219.59285714285716" y="266.35"/>
      <point x="223.1767857142857" y="315.00714285714287" type="curve"/>
      <point x="243.85535714285714" y="315.00714285714287"/>
      <point x="264.95" y="315.00714285714287"/>
      <point x="287.29285714285714" y="314.175" type="curve" smooth="yes"/>
      <point x="350.95714285714286" y="310.01428571428573"/>
      <point x="434.48214285714283" y="288.35714285714283"/>
      <point x="434.48214285714283" y="193.175" type="curve" smooth="yes"/>
      <point x="434.48214285714283" y="111.3875"/>
      <point x="380.3803571428571" y="58.21964285714286"/>
    </contour>
    <contour>
      <point x="226.7607142857143" y="355.7517857142857" type="curve"/>
      <point x="228.84821428571428" y="429.2107142857143"/>
      <point x="236.68035714285713" y="541.8464285714285"/>
      <point x="242.84821428571428" y="578.1089285714286" type="curve"/>
      <point x="258.9357142857143" y="579.2767857142857"/>
      <point x="284.5339285714286" y="581.6125"/>
      <point x="300.62142857142857" y="581.6125" type="curve" smooth="yes"/>
      <point x="379.0517857142857" y="581.6125"/>
      <point x="419.64285714285717" y="552.1160714285714"/>
      <point x="419.64285714285717" y="489.6857142857143" type="curve" smooth="yes"/>
      <point x="419.64285714285717" y="452.09464285714284"/>
      <point x="403.3875" y="415.6714285714286"/>
      <point x="376.21964285714284" y="393.2553571428571" type="curve" smooth="yes"/>
      <point x="342.125" y="365.6642857142857"/>
      <point x="300.11785714285713" y="355.7517857142857"/>
    </contour>
  </outline>
</glyph>
<glyph name="C" format="2">
  <advance width="661.0142857142857"/>
  <unicode hex="0043"/>
  <anchor x="370.4089285714286" y="0.0" name="bottom"/>
  <anchor x="409.4089285714286" y="652.0" name="top"/>
  <outline>
    <contour>
      <point x="399.6642857142857" y="-13.0" type="curve" smooth="yes"/>
      <point x="485.9267857142857" y="-13.0"/>
      <point x="551.2035714285714" y="1.6785714285714288"/>
      <point x="590.9339285714286" y="18.09464285714286" type="curve" smooth="yes"/>
      <point x="608.8392857142857" y="24.926785714285714"/>
      <point x="618.4964285714286" y="48.33571428571429"/>
      <point x="618.4964285714286" y="88.3875" type="curve" smooth="yes"/>
      <point x="618.4964285714286" y="98.88392857142857"/>
      <point x="617.6642857142857" y="104.88392857142857"/>
      <point x="612.1678571428571" y="104.88392857142857" type="curve" smooth="yes"/>
      <point x="608.3357142857143" y="104.88392857142857"/>
      <point x="601.3357142857143" y="102.3"/>
      <point x="591.3357142857143" y="98.13214285714287" type="curve" smooth="yes"/>
      <point x="548.35" y="80.3"/>
      <point x="487.9125" y="64.45357142857142"/>
      <point x="409.21964285714284" y="64.45357142857142" type="curve" smooth="yes"/>
      <point x="276.4535714285714" y="64.45357142857142"/>
      <point x="184.24285714285713" y="139.30714285714285"/>
      <point x="184.24285714285713" y="314.7517857142857" type="curve" smooth="yes"/>
      <point x="184.24285714285713" y="504.2625"/>
      <point x="286.6875" y="576.8017857142858"/>
      <point x="407.2339285714286" y="576.8017857142858" type="curve" smooth="yes"/>
      <point x="527.9125" y="576.8017857142858"/>
      <point x="586.5839285714286" y="526.2910714285714"/>
      <point x="604.1678571428571" y="526.2910714285714" type="curve" smooth="yes"/>
      <point x="621.4017857142857" y="526.2910714285714"/>
      <point x="625.5696428571429" y="570.1821428571428"/>
      <point x="625.5696428571429" y="585.5982142857143" type="curve" smooth="yes"/>
      <point x="625.5696428571429" y="599.6714285714286"/>
      <point x="625.0732142857142" y="611.2482142857143"/>
      <point x="603.2410714285714" y="620.4160714285714" type="curve" smooth="yes"/>
      <point x="553.0875" y="641.2482142857143"/>
      <point x="487.6714285714286" y="652.0"/>
      <point x="397.3142857142857" y="652.0" type="curve" smooth="yes"/>
      <point x="170.6357142857143" y="652.0"/>
      <point x="53.75892857142857" y="525.0964285714285"/>
      <point x="53.75892857142857" y="296.60535714285714" type="curve" smooth="yes"/>
      <point x="53.75892857142857" y="60.080357142857146"/>
      <point x="211.04285714285714" y="-13.0"/>
    </contour>
  </outline>
</glyph>
<glyph name="D" format="2">
  <advance width="753.2196428571428"/>
  <unicode hex="0044"/>
  <anchor x="350.9714285714286" y="0.0" name="bottom"/>
  <anchor x="374.3285714285714" y="326.0" name="center"/>
  <anchor x="398.8767857142857" y="652.0" name="top"/>
  <outline>
    <contour>
      <point x="83.4375" y="0.0" type="curve"/>
      <point x="336.1696428571429" y="0.0" type="line" smooth="yes"/>
      <point x="576.9714285714285" y="0.0"/>
      <point x="712.1982142857142" y="124.9625"/>
      <point x="712.1982142857142" y="364.58392857142854" type="curve" smooth="yes"/>
      <point x="712.1982142857142" y="581.5410714285714"/>
      <point x="578.0589285714286" y="639.0"/>
      <point x="395.78214285714284" y="639.0" type="curve" smooth="yes"/>
      <point x="116.525" y="639.0" type="line"/>
      <point x="111.26964285714286" y="429.90535714285716"/>
      <point x="85.18928571428572" y="39.080357142857146"/>
    </contour>
    <contour>
      <point x="304.1767857142857" y="59.88392857142857" type="curve" smooth="yes"/>
      <point x="227.1767857142857" y="59.88392857142857"/>
      <point x="215.59285714285716" y="65.88392857142857"/>
      <point x="215.59285714285716" y="104.88392857142857" type="curve" smooth="yes"/>
      <point x="215.59285714285716" y="289.04464285714283"/>
      <point x="234.1767857142857" y="483.3803571428571"/>
      <point x="242.01607142857142" y="573.5321428571428" type="curve"/>
      <point x="277.1982142857143" y="577.7"/>
      <point x="311.7089285714286" y="579.7"/>
      <point x="353.62142857142857" y="579.7" type="curve" smooth="yes"/>
      <point x="502.8535714285714" y="579.7"/>
      <point x="577.6267857142857" y="519.9410714285714"/>
      <point x="577.6267857142857" y="355.24107142857144" type="curve" smooth="yes"/>
      <point x="577.6267857142857" y="122.58392857142857"/>
      <point x="468.6642857142857" y="59.88392857142857"/>
    </contour>
  </outline>
</glyph>
<glyph name="E" format="2">
  <advance width="553.0"/>
  <unicode hex="0045"/>
  <anchor x="282.3285714285714" y="0.0" name="bottom"/>
  <anchor x="422.3285714285714" y="0.0" name="ogonek"/>
  <anchor x="308.58392857142854" y="652.0" name="top"/>
  <anchor x="25.32857142857143" y="652.0" name="topleft"/>
  <outline>
    <contour>
      <point x="83.4375" y="0.0" type="curve"/>
      <point x="491.98571428571427" y="0.0" type="line" smooth="yes"/>
      <point x="508.13928571428573" y="0.0"/>
      <point x="516.475" y="43.058928571428574"/>
      <point x="516.475" y="61.475" type="curve" smooth="yes"/>
      <point x="516.475" y="76.96428571428572"/>
      <point x="516.475" y="83.38035714285715"/>
      <point x="510.64285714285717" y="83.38035714285715" type="curve" smooth="yes"/>
      <point x="502.39464285714286" y="83.38035714285715"/>
      <point x="442.0732142857143" y="65.70892857142857"/>
      <point x="304.7607142857143" y="65.70892857142857" type="curve" smooth="yes"/>
      <point x="227.7607142857143" y="65.70892857142857"/>
      <point x="216.1767857142857" y="72.95714285714286"/>
      <point x="216.1767857142857" y="108.62857142857143" type="curve" smooth="yes"/>
      <point x="216.1767857142857" y="166.05892857142857"/>
      <point x="219.425" y="242.97857142857143"/>
      <point x="222.34464285714284" y="297.4375" type="curve"/>
      <point x="254.85535714285714" y="297.4375" type="line" smooth="yes"/>
      <point x="370.05892857142857" y="297.4375"/>
      <point x="440.55535714285713" y="290.6857142857143"/>
      <point x="446.6357142857143" y="290.6857142857143" type="curve" smooth="yes"/>
      <point x="453.13214285714287" y="290.6857142857143"/>
      <point x="459.13214285714287" y="320.5910714285714"/>
      <point x="459.13214285714287" y="341.41607142857146" type="curve" smooth="yes"/>
      <point x="459.13214285714287" y="356.4892857142857"/>
      <point x="455.3" y="362.90535714285716"/>
      <point x="447.475" y="362.90535714285716" type="curve" smooth="yes"/>
      <point x="224.7607142857143" y="362.90535714285716" type="line"/>
      <point x="228.84821428571428" y="441.35714285714283"/>
      <point x="236.43214285714285" y="540.35"/>
      <point x="242.6" y="573.1160714285714" type="curve"/>
      <point x="272.1035714285714" y="573.1160714285714" type="line" smooth="yes"/>
      <point x="380.2339285714286" y="573.1160714285714"/>
      <point x="455.05892857142857" y="566.1964285714286"/>
      <point x="460.55535714285713" y="566.1964285714286" type="curve" smooth="yes"/>
      <point x="467.0517857142857" y="566.1964285714286"/>
      <point x="473.0517857142857" y="596.2696428571429"/>
      <point x="473.0517857142857" y="617.0946428571428" type="curve" smooth="yes"/>
      <point x="473.0517857142857" y="632.1678571428571"/>
      <point x="469.80357142857144" y="639.0"/>
      <point x="461.39464285714286" y="639.0" type="curve" smooth="yes"/>
      <point x="117.10892857142858" y="639.0" type="line"/>
      <point x="111.85357142857143" y="429.90535714285716"/>
      <point x="88.10892857142858" y="61.85357142857143"/>
    </contour>
  </outline>
</glyph>
<glyph name="F" format="2">
  <advance width="506.49642857142857"/>
  <unicode hex="0046"/>
  <anchor x="127.32857142857142" y="0.0" name="bottom"/>
  <anchor x="291.3285714285714" y="652.0" name="top"/>
  <outline>
    <contour>
      <point x="185.5339285714286" y="-13.0" type="curve" smooth="yes"/>
      <point x="208.5125" y="-13.0"/>
      <point x="211.7607142857143" y="-7.503571428571428"/>
      <point x="211.7607142857143" y="5.817857142857143" type="curve" smooth="yes"/>
      <point x="211.7607142857143" y="76.15357142857142"/>
      <point x="215.92857142857144" y="206.61964285714285"/>
      <point x="218.7607142857143" y="275.7732142857143" type="curve"/>
      <point x="251.0232142857143" y="275.7732142857143" type="line" smooth="yes"/>
      <point x="366.2267857142857" y="275.7732142857143"/>
      <point x="436.7232142857143" y="268.8535714285714"/>
      <point x="442.21964285714284" y="268.8535714285714" type="curve" smooth="yes"/>
      <point x="448.7160714285714" y="268.8535714285714"/>
      <point x="454.7160714285714" y="298.5107142857143"/>
      <point x="454.7160714285714" y="319.3357142857143" type="curve" smooth="yes"/>
      <point x="454.7160714285714" y="334.825"/>
      <point x="451.46785714285716" y="341.24107142857144"/>
      <point x="443.05892857142857" y="341.24107142857144" type="curve" smooth="yes"/>
      <point x="222.59285714285716" y="341.24107142857144" type="line"/>
      <point x="226.68035714285713" y="419.30535714285713"/>
      <point x="235.26428571428573" y="540.35"/>
      <point x="239.6" y="573.1160714285714" type="curve"/>
      <point x="270.51964285714286" y="573.1160714285714" type="line" smooth="yes"/>
      <point x="378.65" y="573.1160714285714"/>
      <point x="451.2267857142857" y="566.6125"/>
      <point x="457.3071428571429" y="566.6125" type="curve" smooth="yes"/>
      <point x="463.80357142857144" y="566.6125"/>
      <point x="469.80357142857144" y="596.2696428571429"/>
      <point x="469.80357142857144" y="617.0946428571428" type="curve" smooth="yes"/>
      <point x="469.80357142857144" y="632.1678571428571"/>
      <point x="466.55535714285713" y="639.0"/>
      <point x="458.1464285714286" y="639.0" type="curve" smooth="yes"/>
      <point x="113.86071428571428" y="639.0" type="line"/>
      <point x="113.86071428571428" y="533.6196428571428"/>
      <point x="99.44464285714285" y="238.18928571428572"/>
      <point x="90.77321428571429" y="127.5625" type="curve" smooth="yes"/>
      <point x="87.77321428571429" y="88.07321428571429"/>
      <point x="83.4375" y="36.55535714285715"/>
      <point x="83.4375" y="32.72321428571429" type="curve" smooth="yes"/>
      <point x="83.4375" y="1.4089285714285715"/>
      <point x="145.475" y="-13.0"/>
    </contour>
  </outline>
</glyph>
<glyph name="H" format="2">
  <advance width="798.8982142857143"/>
  <unicode hex="0048"/>
  <anchor x="381.3285714285714" y="0.0" name="bottom"/>
  <anchor x="401.3285714285714" y="326.0" name="center"/>
  <anchor x="426.3285714285714" y="652.0" name="top"/>
  <anchor x="25.32857142857143" y="652.0" name="topleft"/>
  <outline>
    <contour>
      <point x="185.5339285714286" y="-13.0" type="curve" smooth="yes"/>
      <point x="208.5125" y="-13.0"/>
      <point x="211.7607142857143" y="-7.503571428571428"/>
      <point x="211.7607142857143" y="5.817857142857143" type="curve" smooth="yes"/>
      <point x="211.7607142857143" y="97.84642857142858"/>
      <point x="214.7607142857143" y="196.10892857142858"/>
      <point x="220.5125" y="286.9482142857143" type="curve"/>
      <point x="287.2785714285714" y="291.78035714285716"/>
      <point x="353.2125" y="294.19642857142856"/>
      <point x="417.73035714285714" y="294.19642857142856" type="curve" smooth="yes"/>
      <point x="476.41607142857146" y="294.19642857142856"/>
      <point x="534.6857142857143" y="292.19642857142856"/>
      <point x="590.1232142857143" y="288.78035714285716" type="curve"/>
      <point x="582.3714285714286" y="156.67142857142858"/>
      <point x="573.8678571428571" y="39.55535714285715"/>
      <point x="573.8678571428571" y="32.72321428571429" type="curve" smooth="yes"/>
      <point x="573.8678571428571" y="1.4089285714285715"/>
      <point x="635.9053571428572" y="-13.0"/>
      <point x="675.9642857142857" y="-13.0" type="curve" smooth="yes"/>
      <point x="698.9428571428572" y="-13.0"/>
      <point x="702.775" y="-7.503571428571428"/>
      <point x="702.775" y="5.817857142857143" type="curve" smooth="yes"/>
      <point x="702.775" y="267.9035714285714"/>
      <point x="733.1982142857142" y="591.1964285714286"/>
      <point x="733.1982142857142" y="606.8607142857143" type="curve" smooth="yes"/>
      <point x="733.1982142857142" y="638.175"/>
      <point x="670.5767857142857" y="652.0"/>
      <point x="630.5178571428571" y="652.0" type="curve" smooth="yes"/>
      <point x="606.9553571428571" y="652.0"/>
      <point x="604.2910714285714" y="647.0875"/>
      <point x="604.2910714285714" y="633.7660714285714" type="curve" smooth="yes"/>
      <point x="603.7071428571428" y="578.6928571428572"/>
      <point x="599.5392857142857" y="471.42321428571427"/>
      <point x="593.7875" y="363.8178571428571" type="curve"/>
      <point x="224.1767857142857" y="363.8178571428571" type="line"/>
      <point x="232.5125" y="499.8464285714286"/>
      <point x="242.18392857142857" y="598.8607142857143"/>
      <point x="242.18392857142857" y="606.8607142857143" type="curve" smooth="yes"/>
      <point x="242.18392857142857" y="638.175"/>
      <point x="180.14642857142857" y="652.0"/>
      <point x="140.0875" y="652.0" type="curve" smooth="yes"/>
      <point x="116.525" y="652.0"/>
      <point x="113.86071428571428" y="647.0875"/>
      <point x="113.86071428571428" y="633.7660714285714" type="curve" smooth="yes"/>
      <point x="112.10892857142858" y="496.6410714285714"/>
      <point x="83.4375" y="47.21964285714286"/>
      <point x="83.4375" y="32.72321428571429" type="curve" smooth="yes"/>
      <point x="83.4375" y="1.4089285714285715"/>
      <point x="145.475" y="-13.0"/>
    </contour>
  </outline>
</glyph>
<glyph name="I" format="2">
  <advance width="312.46785714285716"/>
  <unicode hex="0049"/>
  <anchor x="146.89107142857142" y="0.0" name="bottom"/>
  <anchor x="270.08035714285717" y="10.0" name="ogonek"/>
  <anchor x="192.56964285714287" y="652.0" name="top"/>
  <anchor x="29.080357142857142" y="652.0" name="topleft"/>
  <outline>
    <contour>
      <point x="189.28571428571428" y="-13.0" type="curve" smooth="yes"/>
      <point x="212.26428571428573" y="-13.0"/>
      <point x="215.5125" y="-7.503571428571428"/>
      <point x="215.5125" y="5.817857142857143" type="curve" smooth="yes"/>
      <point x="215.5125" y="267.9035714285714"/>
      <point x="245.93571428571428" y="591.1964285714286"/>
      <point x="245.93571428571428" y="606.4446428571429" type="curve" smooth="yes"/>
      <point x="245.93571428571428" y="638.175"/>
      <point x="183.8982142857143" y="652.0"/>
      <point x="143.83928571428572" y="652.0" type="curve" smooth="yes"/>
      <point x="120.27678571428571" y="652.0"/>
      <point x="117.6125" y="647.0875"/>
      <point x="117.6125" y="633.7660714285714" type="curve" smooth="yes"/>
      <point x="115.86071428571428" y="496.6410714285714"/>
      <point x="87.18928571428572" y="47.21964285714286"/>
      <point x="87.18928571428572" y="32.72321428571429" type="curve" smooth="yes"/>
      <point x="87.18928571428572" y="1.4089285714285715"/>
      <point x="149.2267857142857" y="-13.0"/>
    </contour>
  </outline>
</glyph>
<glyph name="J" format="2">
  <advance width="383.1017857142857"/>
  <unicode hex="004A"/>
  <anchor x="194.62678571428572" y="0.0" name="bottom"/>
  <anchor x="263.2767857142857" y="652.0" name="top"/>
  <outline>
    <contour>
      <point x="120.58392857142857" y="-13.0" type="curve" smooth="yes"/>
      <point x="193.9857142857143" y="-13.0"/>
      <point x="251.48214285714286" y="25.248214285714287"/>
      <point x="278.56964285714287" y="107.51071428571429" type="curve" smooth="yes"/>
      <point x="309.06607142857143" y="200.0"/>
      <point x="318.06607142857143" y="526.3571428571429"/>
      <point x="318.06607142857143" y="606.8607142857143" type="curve" smooth="yes"/>
      <point x="318.06607142857143" y="638.175"/>
      <point x="256.0285714285714" y="652.0"/>
      <point x="215.96964285714284" y="652.0" type="curve" smooth="yes"/>
      <point x="192.40714285714284" y="652.0"/>
      <point x="189.74285714285713" y="647.0875"/>
      <point x="189.74285714285713" y="633.7660714285714" type="curve" smooth="yes"/>
      <point x="189.74285714285713" y="318.9875"/>
      <point x="176.31964285714287" y="96.97857142857143"/>
      <point x="144.80892857142857" y="65.89107142857142" type="curve" smooth="yes"/>
      <point x="132.1375" y="53.13928571428572"/>
      <point x="117.46607142857142" y="47.21964285714286"/>
      <point x="98.79464285714286" y="47.21964285714286" type="curve" smooth="yes"/>
      <point x="69.525" y="47.21964285714286"/>
      <point x="38.75178571428572" y="61.48214285714286"/>
      <point x="30.248214285714287" y="61.48214285714286" type="curve" smooth="yes"/>
      <point x="24.416071428571428" y="61.48214285714286"/>
      <point x="20.0" y="49.90535714285714"/>
      <point x="20.0" y="38.489285714285714" type="curve" smooth="yes"/>
      <point x="20.0" y="20.32142857142857"/>
      <point x="24.248214285714287" y="4.167857142857143"/>
      <point x="35.41607142857143" y="-1.0" type="curve"/>
      <point x="53.41607142857143" y="-9.583928571428572"/>
      <point x="84.40892857142858" y="-13.0"/>
    </contour>
  </outline>
</glyph>
<glyph name="K" format="2">
  <advance width="656.7964285714286"/>
  <unicode hex="004B"/>
  <anchor x="291.3285714285714" y="0.0" name="bottom"/>
  <anchor x="335.3285714285714" y="652.0" name="top"/>
  <outline>
    <contour>
      <point x="185.5339285714286" y="-13.0" type="curve" smooth="yes"/>
      <point x="208.5125" y="-13.0"/>
      <point x="211.7607142857143" y="-7.503571428571428"/>
      <point x="211.7607142857143" y="5.817857142857143" type="curve" smooth="yes"/>
      <point x="211.7607142857143" y="101.43035714285715"/>
      <point x="215.92857142857144" y="206.60535714285714"/>
      <point x="220.5125" y="299.35714285714283" type="curve"/>
      <point x="227.0964285714286" y="291.0285714285714"/>
      <point x="242.75357142857143" y="280.78035714285716"/>
      <point x="257.0017857142857" y="272.86071428571427" type="curve" smooth="yes"/>
      <point x="320.2714285714286" y="203.03571428571428"/>
      <point x="439.1821428571429" y="77.32142857142857"/>
      <point x="509.45892857142854" y="1.1535714285714285" type="curve" smooth="yes"/>
      <point x="517.0357142857143" y="-10.583928571428572"/>
      <point x="523.5321428571428" y="-13.0"/>
      <point x="537.9410714285714" y="-13.0" type="curve" smooth="yes"/>
      <point x="566.0803571428571" y="-13.0"/>
      <point x="599.5553571428571" y="5.905357142857143"/>
      <point x="622.8696428571428" y="24.058928571428574" type="curve" smooth="yes"/>
      <point x="630.95" y="30.89107142857143"/>
      <point x="637.1982142857142" y="36.72321428571429"/>
      <point x="637.1982142857142" y="40.80357142857143" type="curve" smooth="yes"/>
      <point x="637.1982142857142" y="45.46785714285714"/>
      <point x="635.7821428571428" y="48.54821428571429"/>
      <point x="626.8696428571428" y="58.957142857142856" type="curve" smooth="yes"/>
      <point x="530.2285714285714" y="143.56964285714287"/>
      <point x="380.1857142857143" y="316.55535714285713"/>
      <point x="349.59464285714284" y="353.0517857142857" type="curve"/>
      <point x="407.7482142857143" y="416.4392857142857"/>
      <point x="552.6732142857143" y="549.0946428571428"/>
      <point x="611.7892857142857" y="606.7875" type="curve" smooth="yes"/>
      <point x="619.8696428571428" y="615.7"/>
      <point x="623.1178571428571" y="619.7803571428572"/>
      <point x="623.1178571428571" y="624.0285714285715" type="curve" smooth="yes"/>
      <point x="623.1178571428571" y="634.4375"/>
      <point x="599.7964285714286" y="652.0"/>
      <point x="571.4821428571429" y="652.0" type="curve" smooth="yes"/>
      <point x="548.9053571428572" y="652.0"/>
      <point x="540.9053571428572" y="645.0071428571429"/>
      <point x="527.825" y="631.2625" type="curve" smooth="yes"/>
      <point x="422.0892857142857" y="530.3732142857143"/>
      <point x="273.66607142857146" y="371.8982142857143"/>
      <point x="221.34464285714284" y="317.42321428571427" type="curve"/>
      <point x="230.0964285714286" y="473.2767857142857"/>
      <point x="242.18392857142857" y="597.4446428571429"/>
      <point x="242.18392857142857" y="606.8607142857143" type="curve" smooth="yes"/>
      <point x="242.18392857142857" y="638.175"/>
      <point x="180.14642857142857" y="652.0"/>
      <point x="140.0875" y="652.0" type="curve" smooth="yes"/>
      <point x="116.525" y="652.0"/>
      <point x="113.86071428571428" y="647.0875"/>
      <point x="113.86071428571428" y="633.7660714285714" type="curve" smooth="yes"/>
      <point x="112.10892857142858" y="496.6410714285714"/>
      <point x="83.4375" y="47.21964285714286"/>
      <point x="83.4375" y="32.72321428571429" type="curve" smooth="yes"/>
      <point x="83.4375" y="1.4089285714285715"/>
      <point x="145.475" y="-13.0"/>
    </contour>
  </outline>
</glyph>
<glyph name="L" format="2">
  <advance width="492.1535714285714"/>
  <unicode hex="004C"/>
  <anchor x="280.2482142857143" y="0.0" name="bottom"/>
  <anchor x="237.24821428571428" y="326.0" name="center"/>
  <anchor x="244.24821428571428" y="643.6785714285714" name="top"/>
  <anchor x="417.2482142857143" y="524.0" name="topright"/>
  <outline>
    <contour>
      <point x="83.4375" y="0.0" type="curve"/>
      <point x="449.4017857142857" y="0.0" type="line" smooth="yes"/>
      <point x="466.13928571428573" y="0.0"/>
      <point x="474.8910714285714" y="40.97857142857143"/>
      <point x="474.8910714285714" y="59.394642857142856" type="curve" smooth="yes"/>
      <point x="474.8910714285714" y="74.88392857142857"/>
      <point x="474.8910714285714" y="80.88392857142857"/>
      <point x="469.8107142857143" y="80.88392857142857" type="curve" smooth="yes"/>
      <point x="464.48214285714283" y="80.88392857142857"/>
      <point x="389.4607142857143" y="65.70892857142857"/>
      <point x="304.1767857142857" y="65.70892857142857" type="curve" smooth="yes"/>
      <point x="227.1767857142857" y="65.70892857142857"/>
      <point x="215.59285714285716" y="72.95714285714286"/>
      <point x="215.59285714285716" y="108.62857142857143" type="curve" smooth="yes"/>
      <point x="215.59285714285716" y="276.6482142857143"/>
      <point x="244.01607142857142" y="597.1160714285714"/>
      <point x="244.01607142857142" y="606.8607142857143" type="curve" smooth="yes"/>
      <point x="244.01607142857142" y="638.175"/>
      <point x="181.97857142857143" y="652.0"/>
      <point x="141.91964285714286" y="652.0" type="curve" smooth="yes"/>
      <point x="118.94107142857143" y="652.0"/>
      <point x="115.69285714285715" y="647.0875"/>
      <point x="115.69285714285715" y="633.7660714285714" type="curve" smooth="yes"/>
      <point x="111.60535714285714" y="429.6642857142857"/>
      <point x="87.525" y="56.028571428571425"/>
    </contour>
  </outline>
</glyph>
<glyph name="M" format="2">
  <advance width="994.8107142857143"/>
  <unicode hex="004D"/>
  <anchor x="461.67857142857144" y="0.0" name="bottom"/>
  <anchor x="512.3214285714286" y="652.0" name="top"/>
  <outline>
    <contour>
      <point x="135.75178571428572" y="-13.0" type="curve" smooth="yes"/>
      <point x="146.9125" y="-13.0"/>
      <point x="149.99285714285713" y="-8.751785714285715"/>
      <point x="150.40892857142856" y="-1.2553571428571426" type="curve" smooth="yes"/>
      <point x="153.7375" y="57.32142857142857"/>
      <point x="195.90535714285716" y="392.73035714285714"/>
      <point x="216.32857142857142" y="523.7214285714285" type="curve"/>
      <point x="251.00714285714287" y="430.63392857142856"/>
      <point x="356.8017857142857" y="127.75892857142857"/>
      <point x="392.4946428571429" y="27.467857142857145" type="curve" smooth="yes"/>
      <point x="397.74285714285713" y="4.737500000000001"/>
      <point x="438.7" y="-13.0"/>
      <point x="484.4892857142857" y="-13.0" type="curve" smooth="yes"/>
      <point x="503.21964285714284" y="-13.0"/>
      <point x="508.88392857142856" y="-8.0"/>
      <point x="512.9642857142857" y="3.4892857142857148" type="curve" smooth="yes"/>
      <point x="588.5035714285714" y="160.53214285714284"/>
      <point x="726.0428571428571" y="419.58214285714286"/>
      <point x="782.7071428571428" y="533.5607142857143" type="curve"/>
      <point x="783.5392857142857" y="497.0053571428571"/>
      <point x="786.7071428571428" y="388.7214285714286"/>
      <point x="786.1232142857143" y="274.75892857142856" type="curve" smooth="yes"/>
      <point x="785.9553571428571" y="183.18214285714285"/>
      <point x="783.6196428571428" y="83.0"/>
      <point x="783.6196428571428" y="33.55535714285715" type="curve" smooth="yes"/>
      <point x="783.6196428571428" y="2.6571428571428575"/>
      <point x="842.1607142857143" y="-13.0"/>
      <point x="885.2125" y="-13.0" type="curve" smooth="yes"/>
      <point x="904.8625" y="-13.0"/>
      <point x="911.8553571428572" y="-8.751785714285715"/>
      <point x="911.8553571428572" y="4.489285714285715" type="curve" smooth="yes"/>
      <point x="911.8553571428572" y="140.51607142857142"/>
      <point x="902.6142857142858" y="456.51964285714286"/>
      <point x="901.4464285714286" y="605.8607142857143" type="curve" smooth="yes"/>
      <point x="901.4464285714286" y="638.7589285714286"/>
      <point x="828.0" y="652.0"/>
      <point x="784.9482142857142" y="652.0" type="curve" smooth="yes"/>
      <point x="763.4660714285715" y="652.0"/>
      <point x="756.8892857142857" y="649.7517857142857"/>
      <point x="752.4732142857143" y="639.8392857142857" type="curve" smooth="yes"/>
      <point x="718.7946428571429" y="568.2482142857143"/>
      <point x="566.3642857142858" y="265.7446428571429"/>
      <point x="491.32142857142856" y="129.25714285714287" type="curve"/>
      <point x="451.88392857142856" y="223.0375"/>
      <point x="365.0232142857143" y="475.0375"/>
      <point x="316.57142857142856" y="608.4446428571429" type="curve" smooth="yes"/>
      <point x="308.49107142857144" y="637.3428571428572"/>
      <point x="245.2125" y="652.0"/>
      <point x="192.32857142857142" y="652.0" type="curve" smooth="yes"/>
      <point x="163.4375" y="652.0"/>
      <point x="160.60535714285714" y="649.1678571428571"/>
      <point x="158.35714285714286" y="629.0946428571428" type="curve" smooth="yes"/>
      <point x="143.0142857142857" y="487.66607142857146"/>
      <point x="72.525" y="60.614285714285714"/>
      <point x="72.525" y="32.72321428571429" type="curve" smooth="yes"/>
      <point x="72.525" y="1.4089285714285715"/>
      <point x="110.75892857142857" y="-13.0"/>
    </contour>
  </outline>
</glyph>
<glyph name="N" format="2">
  <advance width="808.2321428571429"/>
  <unicode hex="004E"/>
  <anchor x="397.6125" y="0.0" name="bottom"/>
  <anchor x="435.7732142857143" y="644.3357142857143" name="top"/>
  <outline>
    <contour>
      <point x="149.74464285714285" y="-13.0" type="curve" smooth="yes"/>
      <point x="163.9857142857143" y="-13.0"/>
      <point x="166.40178571428572" y="-8.0875"/>
      <point x="166.40178571428572" y="6.985714285714286" type="curve" smooth="yes"/>
      <point x="166.40178571428572" y="140.02857142857144"/>
      <point x="180.40892857142856" y="449.5517857142857"/>
      <point x="182.65714285714284" y="478.9535714285714" type="curve"/>
      <point x="217.65" y="435.20178571428573"/>
      <point x="547.1017857142857" y="75.15178571428572"/>
      <point x="617.75" y="-0.5839285714285714" type="curve" smooth="yes"/>
      <point x="623.5821428571428" y="-7.248214285714286"/>
      <point x="631.2464285714286" y="-13.0"/>
      <point x="637.7428571428571" y="-13.0" type="curve" smooth="yes"/>
      <point x="655.1446428571428" y="-13.0"/>
      <point x="713.525" y="27.89107142857143"/>
      <point x="713.525" y="46.87678571428572" type="curve" smooth="yes"/>
      <point x="713.525" y="141.9857142857143"/>
      <point x="742.5321428571428" y="585.1232142857143"/>
      <point x="742.5321428571428" y="606.8607142857143" type="curve" smooth="yes"/>
      <point x="742.5321428571428" y="638.175"/>
      <point x="703.6339285714286" y="652.0"/>
      <point x="676.0571428571428" y="652.0" type="curve" smooth="yes"/>
      <point x="660.8160714285714" y="652.0"/>
      <point x="658.9839285714286" y="647.6714285714286"/>
      <point x="658.9839285714286" y="632.0142857142857" type="curve" smooth="yes"/>
      <point x="658.9839285714286" y="388.6089285714286"/>
      <point x="644.3928571428571" y="181.2732142857143"/>
      <point x="642.1446428571428" y="161.4625" type="curve"/>
      <point x="579.1232142857143" y="221.48392857142858"/>
      <point x="243.83214285714286" y="591.8767857142857"/>
      <point x="208.21964285714284" y="640.1678571428571" type="curve" smooth="yes"/>
      <point x="202.97142857142856" y="646.8321428571429"/>
      <point x="194.72321428571428" y="652.0"/>
      <point x="188.2267857142857" y="652.0" type="curve" smooth="yes"/>
      <point x="169.0732142857143" y="652.0"/>
      <point x="112.44464285714285" y="611.6928571428572"/>
      <point x="112.44464285714285" y="592.7071428571428" type="curve" smooth="yes"/>
      <point x="112.44464285714285" y="497.5982142857143"/>
      <point x="83.4375" y="53.87678571428572"/>
      <point x="83.4375" y="32.72321428571429" type="curve" smooth="yes"/>
      <point x="83.4375" y="1.4089285714285715"/>
      <point x="121.75178571428572" y="-13.0"/>
    </contour>
  </outline>
</glyph>
<glyph name="O" format="2">
  <advance width="754.825"/>
  <unicode hex="004F"/>
  <anchor x="368.57678571428573" y="0.0" name="bottom"/>
  <anchor x="385.57678571428573" y="326.0" name="center"/>
  <anchor x="436.57678571428573" y="10.0" name="ogonek"/>
  <anchor x="402.57678571428573" y="652.0" name="top"/>
  <anchor x="48.57678571428571" y="652.0" name="topleft"/>
  <anchor x="574.3142857142857" y="604.4964285714286" name="topright"/>
  <outline>
    <contour>
      <point x="371.50357142857143" y="-13.0" type="curve" smooth="yes"/>
      <point x="586.6714285714286" y="-13.0"/>
      <point x="709.3875" y="96.96964285714286"/>
      <point x="709.3875" y="355.65714285714284" type="curve" smooth="yes"/>
      <point x="709.3875" y="572.5196428571429"/>
      <point x="590.4303571428571" y="652.0"/>
      <point x="398.2267857142857" y="652.0" type="curve" smooth="yes"/>
      <point x="182.64285714285714" y="652.0"/>
      <point x="59.926785714285714" y="542.6142857142858"/>
      <point x="59.926785714285714" y="284.34285714285716" type="curve" smooth="yes"/>
      <point x="59.926785714285714" y="67.48035714285714"/>
      <point x="178.88392857142858" y="-13.0"/>
    </contour>
    <contour>
      <point x="391.64285714285717" y="42.30714285714286" type="curve" smooth="yes"/>
      <point x="254.08928571428572" y="42.30714285714286"/>
      <point x="190.41071428571428" y="130.83928571428572"/>
      <point x="190.41071428571428" y="287.75892857142856" type="curve" smooth="yes"/>
      <point x="190.41071428571428" y="450.05"/>
      <point x="244.1982142857143" y="600.4375"/>
      <point x="377.6714285714286" y="600.4375" type="curve" smooth="yes"/>
      <point x="515.225" y="600.4375"/>
      <point x="578.9035714285715" y="512.0732142857142"/>
      <point x="578.9035714285715" y="355.98571428571427" type="curve" smooth="yes"/>
      <point x="578.9035714285715" y="192.27857142857144"/>
      <point x="525.5321428571428" y="42.30714285714286"/>
    </contour>
  </outline>
</glyph>
<glyph name="P" format="2">
  <advance width="587.3375"/>
  <unicode hex="0050"/>
  <anchor x="260.3285714285714" y="0.0" name="bottom"/>
  <anchor x="294.3285714285714" y="652.0" name="top"/>
  <outline>
    <contour>
      <point x="185.5339285714286" y="-13.0" type="curve" smooth="yes"/>
      <point x="208.5125" y="-13.0"/>
      <point x="211.34464285714284" y="-7.503571428571428"/>
      <point x="211.34464285714284" y="5.817857142857143" type="curve" smooth="yes"/>
      <point x="211.34464285714284" y="83.0875"/>
      <point x="213.7607142857143" y="165.67857142857142"/>
      <point x="217.34464285714284" y="242.67857142857142" type="curve"/>
      <point x="222.92857142857144" y="235.84642857142856"/>
      <point x="241.3375" y="227.35714285714286"/>
      <point x="270.68035714285713" y="227.35714285714286" type="curve" smooth="yes"/>
      <point x="449.6589285714286" y="227.35714285714286"/>
      <point x="567.2285714285714" y="334.1821428571429"/>
      <point x="567.2285714285714" y="465.42321428571427" type="curve" smooth="yes"/>
      <point x="567.2285714285714" y="573.3357142857143"/>
      <point x="495.30892857142857" y="639.0"/>
      <point x="346.2214285714286" y="639.0" type="curve" smooth="yes"/>
      <point x="113.86071428571428" y="639.0" type="line"/>
      <point x="111.525" y="482.6410714285714"/>
      <point x="83.4375" y="47.21964285714286"/>
      <point x="83.4375" y="32.72321428571429" type="curve" smooth="yes"/>
      <point x="83.4375" y="1.4089285714285715"/>
      <point x="145.475" y="-13.0"/>
    </contour>
    <contour>
      <point x="218.34464285714284" y="274.91964285714283" type="curve"/>
      <point x="223.6" y="371.66964285714283"/>
      <point x="237.43214285714285" y="545.0875"/>
      <point x="239.6" y="578.1089285714286" type="curve"/>
      <point x="253.27142857142857" y="579.2767857142857"/>
      <point x="266.3589285714286" y="581.6125"/>
      <point x="289.6142857142857" y="581.6125" type="curve" smooth="yes"/>
      <point x="400.65714285714284" y="581.6125"/>
      <point x="437.7446428571429" y="521.9410714285714"/>
      <point x="437.7446428571429" y="448.67857142857144" type="curve" smooth="yes"/>
      <point x="437.7446428571429" y="396.42321428571427"/>
      <point x="418.65714285714284" y="352.9267857142857"/>
      <point x="385.825" y="322.67857142857144" type="curve" smooth="yes"/>
      <point x="331.7232142857143" y="273.3285714285714"/>
      <point x="257.51964285714286" y="270.2482142857143"/>
    </contour>
  </outline>
</glyph>
<glyph name="Q" format="2">
  <advance width="754.825"/>
  <unicode hex="0051"/>
  <outline>
    <contour>
      <point x="671.5535714285714" y="-112.87678571428572" type="curve" smooth="yes"/>
      <point x="711.0285714285715" y="-112.87678571428572"/>
      <point x="749.6571428571428" y="-61.160714285714285"/>
      <point x="749.6571428571428" y="-30.35" type="curve" smooth="yes"/>
      <point x="749.6571428571428" y="-24.4375"/>
      <point x="747.825" y="-21.269642857142856"/>
      <point x="740.4089285714285" y="-20.4375" type="curve" smooth="yes"/>
      <point x="677.9714285714285" y="-17.10892857142857"/>
      <point x="585.9571428571429" y="5.219642857142858"/>
      <point x="514.8339285714286" y="20.3" type="curve"/>
      <point x="630.125" y="56.62857142857143"/>
      <point x="709.3875" y="178.06607142857143"/>
      <point x="709.3875" y="355.65714285714284" type="curve" smooth="yes"/>
      <point x="709.3875" y="572.5196428571429"/>
      <point x="590.4303571428571" y="652.0"/>
      <point x="398.2267857142857" y="652.0" type="curve" smooth="yes"/>
      <point x="182.64285714285714" y="652.0"/>
      <point x="59.926785714285714" y="542.6142857142858"/>
      <point x="59.926785714285714" y="284.34285714285716" type="curve" smooth="yes"/>
      <point x="59.926785714285714" y="125.68571428571428"/>
      <point x="129.0875" y="31.832142857142856"/>
      <point x="272.7660714285714" y="-2.3357142857142854" type="curve" smooth="yes"/>
      <point x="352.3125" y="-20.84642857142857"/>
      <point x="549.7071428571428" y="-90.63571428571429"/>
      <point x="621.7214285714285" y="-104.96428571428572" type="curve" smooth="yes"/>
      <point x="644.8089285714286" y="-109.2125"/>
      <point x="658.3928571428571" y="-112.87678571428572"/>
    </contour>
    <contour>
      <point x="391.64285714285717" y="34.81785714285714" type="curve" smooth="yes"/>
      <point x="254.08928571428572" y="34.81785714285714"/>
      <point x="190.41071428571428" y="124.18214285714285"/>
      <point x="190.41071428571428" y="283.5982142857143" type="curve" smooth="yes"/>
      <point x="190.41071428571428" y="447.55357142857144"/>
      <point x="244.1982142857143" y="600.4375"/>
      <point x="377.6714285714286" y="600.4375" type="curve" smooth="yes"/>
      <point x="515.225" y="600.4375"/>
      <point x="578.9035714285715" y="511.24107142857144"/>
      <point x="578.9035714285715" y="353.0732142857143" type="curve" smooth="yes"/>
      <point x="578.9035714285715" y="187.28571428571428"/>
      <point x="525.5321428571428" y="34.81785714285714"/>
    </contour>
  </outline>
</glyph>
<glyph name="R" format="2">
  <advance width="618.8410714285715"/>
  <unicode hex="0052"/>
  <anchor x="306.29285714285714" y="0.0" name="bottom"/>
  <anchor x="340.29285714285714" y="652.0" name="top"/>
  <outline>
    <contour>
      <point x="185.5339285714286" y="-13.0" type="curve" smooth="yes"/>
      <point x="208.5125" y="-13.0"/>
      <point x="211.7607142857143" y="-7.503571428571428"/>
      <point x="211.7607142857143" y="5.817857142857143" type="curve" smooth="yes"/>
      <point x="211.7607142857143" y="102.01428571428572"/>
      <point x="215.1767857142857" y="198.02857142857144"/>
      <point x="220.34464285714284" y="287.86071428571427" type="curve"/>
      <point x="228.59285714285716" y="278.0285714285714"/>
      <point x="250.50535714285715" y="272.2839285714286"/>
      <point x="258.9214285714286" y="270.53214285714284" type="curve"/>
      <point x="312.66607142857146" y="199.74285714285713"/>
      <point x="411.62857142857143" y="82.97678571428571"/>
      <point x="479.1017857142857" y="7.583928571428571" type="curve" smooth="yes"/>
      <point x="490.51785714285717" y="-6.496428571428572"/>
      <point x="501.35" y="-13.0"/>
      <point x="517.5910714285715" y="-13.0" type="curve" smooth="yes"/>
      <point x="549.1535714285715" y="-13.0"/>
      <point x="612.6" y="19.482142857142858"/>
      <point x="612.6" y="35.635714285714286" type="curve" smooth="yes"/>
      <point x="612.6" y="41.13214285714286"/>
      <point x="609.9357142857143" y="45.54821428571429"/>
      <point x="600.0232142857143" y="59.0375" type="curve" smooth="yes"/>
      <point x="578.1982142857142" y="88.26428571428572"/>
      <point x="422.10535714285714" y="266.57678571428573"/>
      <point x="391.1714285714286" y="302.6714285714286" type="curve"/>
      <point x="490.1267857142857" y="319.4089285714286"/>
      <point x="561.2214285714285" y="401.5910714285714"/>
      <point x="561.2214285714285" y="485.5910714285714" type="curve" smooth="yes"/>
      <point x="561.2214285714285" y="578.8982142857143"/>
      <point x="497.2285714285714" y="639.0"/>
      <point x="354.3964285714286" y="639.0" type="curve" smooth="yes"/>
      <point x="115.6125" y="639.0" type="line"/>
      <point x="112.10892857142858" y="486.14464285714286"/>
      <point x="83.4375" y="47.21964285714286"/>
      <point x="83.4375" y="32.72321428571429" type="curve" smooth="yes"/>
      <point x="83.4375" y="1.4089285714285715"/>
      <point x="145.475" y="-13.0"/>
    </contour>
    <contour>
      <point x="221.92857142857144" y="319.7660714285714" type="curve"/>
      <point x="227.01607142857142" y="416.3482142857143"/>
      <point x="238.01607142857142" y="544.0214285714286"/>
      <point x="241.18392857142857" y="578.6928571428572" type="curve"/>
      <point x="255.51964285714286" y="580.4446428571429"/>
      <point x="268.85535714285714" y="581.6125"/>
      <point x="288.44642857142856" y="581.6125" type="curve" smooth="yes"/>
      <point x="394.4017857142857" y="581.6125"/>
      <point x="431.7375" y="533.6125"/>
      <point x="431.7375" y="467.93392857142857" type="curve" smooth="yes"/>
      <point x="431.7375" y="427.93392857142857"/>
      <point x="416.98571428571427" y="395.1892857142857"/>
      <point x="390.90535714285716" y="369.6928571428571" type="curve" smooth="yes"/>
      <point x="343.97857142857146" y="324.51785714285717"/>
      <point x="268.2857142857143" y="315.67857142857144"/>
    </contour>
  </outline>
</glyph>
<glyph name="S" format="2">
  <advance width="540.1321428571429"/>
  <unicode hex="0053"/>
  <anchor x="247.97857142857143" y="0.0" name="bottom"/>
  <anchor x="300.3285714285714" y="652.0" name="top"/>
  <outline>
    <contour>
      <point x="257.8107142857143" y="-13.0" type="curve" smooth="yes"/>
      <point x="362.2857142857143" y="-13.0"/>
      <point x="471.1982142857143" y="63.57678571428571"/>
      <point x="471.1982142857143" y="185.40178571428572" type="curve" smooth="yes"/>
      <point x="471.1982142857143" y="227.15357142857144"/>
      <point x="458.19107142857143" y="265.1464285714286"/>
      <point x="423.2785714285714" y="300.3071428571429" type="curve" smooth="yes"/>
      <point x="380.04464285714283" y="344.20535714285717"/>
      <point x="287.36607142857144" y="393.7232142857143"/>
      <point x="251.7017857142857" y="428.13928571428573" type="curve" smooth="yes"/>
      <point x="228.60714285714286" y="450.8178571428571"/>
      <point x="217.76785714285714" y="472.83214285714286"/>
      <point x="217.76785714285714" y="501.2625" type="curve" smooth="yes"/>
      <point x="217.76785714285714" y="559.5392857142857"/>
      <point x="262.11785714285713" y="576.8017857142858"/>
      <point x="295.62142857142857" y="576.8017857142858" type="curve" smooth="yes"/>
      <point x="362.13214285714287" y="576.8017857142858"/>
      <point x="402.9642857142857" y="546.1232142857143"/>
      <point x="429.4607142857143" y="525.8678571428571" type="curve" smooth="yes"/>
      <point x="441.4607142857143" y="516.3642857142858"/>
      <point x="450.54107142857146" y="509.86071428571427"/>
      <point x="458.20535714285717" y="509.86071428571427" type="curve" smooth="yes"/>
      <point x="470.2857142857143" y="509.86071428571427"/>
      <point x="476.95" y="530.2696428571429"/>
      <point x="476.95" y="563.2625" type="curve" smooth="yes"/>
      <point x="476.95" y="577.1678571428571"/>
      <point x="474.11785714285713" y="589.0803571428571"/>
      <point x="460.62857142857143" y="599.2410714285714" type="curve" smooth="yes"/>
      <point x="416.7232142857143" y="637.4089285714285"/>
      <point x="350.2339285714286" y="652.0"/>
      <point x="293.825" y="652.0" type="curve" smooth="yes"/>
      <point x="163.0" y="652.0"/>
      <point x="95.10892857142858" y="565.2553571428572"/>
      <point x="95.10892857142858" y="466.19642857142856" type="curve" smooth="yes"/>
      <point x="95.10892857142858" y="416.525"/>
      <point x="113.11607142857143" y="374.11607142857144"/>
      <point x="153.85357142857143" y="336.2107142857143" type="curve" smooth="yes"/>
      <point x="200.4375" y="293.04285714285714"/>
      <point x="280.45178571428573" y="252.44464285714287"/>
      <point x="316.53214285714284" y="214.6125" type="curve" smooth="yes"/>
      <point x="337.2035714285714" y="192.7732142857143"/>
      <point x="348.6267857142857" y="170.84642857142856"/>
      <point x="348.6267857142857" y="143.08035714285714" type="curve" smooth="yes"/>
      <point x="348.6267857142857" y="87.2125"/>
      <point x="294.01428571428573" y="63.533928571428575"/>
      <point x="254.43035714285713" y="63.533928571428575" type="curve" smooth="yes"/>
      <point x="193.58392857142857" y="63.533928571428575"/>
      <point x="143.6642857142857" y="90.87678571428572"/>
      <point x="115.74464285714286" y="110.63571428571429" type="curve" smooth="yes"/>
      <point x="96.49642857142857" y="123.72321428571429"/>
      <point x="85.16785714285714" y="132.81071428571428"/>
      <point x="78.67142857142858" y="132.81071428571428" type="curve" smooth="yes"/>
      <point x="65.59107142857142" y="132.81071428571428"/>
      <point x="59.09464285714286" y="97.80357142857143"/>
      <point x="59.09464285714286" y="75.90535714285714" type="curve" smooth="yes"/>
      <point x="59.09464285714286" y="60.919642857142854"/>
      <point x="61.75892857142857" y="47.42321428571429"/>
      <point x="81.24107142857143" y="35.846428571428575" type="curve" smooth="yes"/>
      <point x="120.14642857142857" y="8.342857142857142"/>
      <point x="173.5625" y="-13.0"/>
    </contour>
  </outline>
</glyph>
<glyph name="T" format="2">
  <advance width="532.825"/>
  <unicode hex="0054"/>
  <anchor x="254.99285714285713" y="0.0" name="bottom"/>
  <anchor x="286.2553571428571" y="326.0" name="center"/>
  <anchor x="293.65714285714284" y="652.0" name="top"/>
  <outline>
    <contour>
      <point x="297.54821428571427" y="-13.0" type="curve" smooth="yes"/>
      <point x="321.11071428571427" y="-13.0"/>
      <point x="324.3589285714286" y="-7.503571428571428"/>
      <point x="324.3589285714286" y="5.817857142857143" type="curve" smooth="yes"/>
      <point x="324.3589285714286" y="219.48035714285714"/>
      <point x="343.03035714285716" y="466.9839285714286"/>
      <point x="350.6142857142857" y="561.8821428571429" type="curve"/>
      <point x="355.36607142857144" y="561.8821428571429" type="line"/>
      <point x="437.8535714285714" y="561.8821428571429"/>
      <point x="521.0732142857142" y="553.4660714285715"/>
      <point x="530.6571428571428" y="553.4660714285715" type="curve" smooth="yes"/>
      <point x="540.6571428571428" y="553.4660714285715"/>
      <point x="546.0732142857142" y="591.6053571428571"/>
      <point x="546.0732142857142" y="617.1017857142857" type="curve" smooth="yes"/>
      <point x="546.0732142857142" y="632.175"/>
      <point x="543.2410714285714" y="639.0"/>
      <point x="533.6642857142857" y="639.0" type="curve" smooth="yes"/>
      <point x="51.496428571428574" y="639.0" type="line" smooth="yes"/>
      <point x="39.832142857142856" y="639.0"/>
      <point x="31.50357142857143" y="612.9267857142858"/>
      <point x="31.50357142857143" y="577.4446428571429" type="curve" smooth="yes"/>
      <point x="31.50357142857143" y="563.3714285714286"/>
      <point x="34.919642857142854" y="553.4660714285715"/>
      <point x="41.167857142857144" y="553.4660714285715" type="curve" smooth="yes"/>
      <point x="51.33571428571429" y="553.4660714285715"/>
      <point x="123.13928571428572" y="561.8821428571429"/>
      <point x="218.70714285714286" y="561.8821428571429" type="curve"/>
      <point x="223.875" y="561.8821428571429" type="line"/>
      <point x="218.875" y="345.1017857142857"/>
      <point x="196.03571428571428" y="44.80357142857143"/>
      <point x="196.03571428571428" y="32.72321428571429" type="curve" smooth="yes"/>
      <point x="196.03571428571428" y="1.4089285714285715"/>
      <point x="258.0732142857143" y="-13.0"/>
    </contour>
  </outline>
</glyph>
<glyph name="U" format="2">
  <advance width="704.6714285714286"/>
  <unicode hex="0055"/>
  <anchor x="358.8178571428571" y="0.0" name="bottom"/>
  <anchor x="481.52857142857147" y="4.160714285714286" name="ogonek"/>
  <anchor x="393.98571428571427" y="652.0" name="top"/>
  <anchor x="645.1535714285715" y="608.0" name="topright"/>
  <outline>
    <contour>
      <point x="343.3285714285714" y="-13.0" type="curve" smooth="yes"/>
      <point x="434.3142857142857" y="-13.0"/>
      <point x="502.13928571428573" y="8.9125"/>
      <point x="551.4678571428572" y="54.65714285714286" type="curve" smooth="yes"/>
      <point x="646.8839285714286" y="143.32142857142858"/>
      <point x="675.8839285714286" y="321.1607142857143"/>
      <point x="675.8839285714286" y="606.8607142857143" type="curve" smooth="yes"/>
      <point x="675.8839285714286" y="638.175"/>
      <point x="635.5767857142857" y="652.0"/>
      <point x="607.0875" y="652.0" type="curve" smooth="yes"/>
      <point x="590.5982142857143" y="652.0"/>
      <point x="588.7660714285714" y="647.0875"/>
      <point x="588.7660714285714" y="633.7660714285714" type="curve" smooth="yes"/>
      <point x="588.7660714285714" y="313.80357142857144"/>
      <point x="559.0946428571428" y="167.71607142857144"/>
      <point x="503.08035714285717" y="106.46071428571429" type="curve" smooth="yes"/>
      <point x="473.4892857142857" y="74.54107142857143"/>
      <point x="425.475" y="56.957142857142856"/>
      <point x="384.3803571428571" y="56.957142857142856" type="curve" smooth="yes"/>
      <point x="333.78214285714284" y="56.957142857142856"/>
      <point x="287.51964285714286" y="71.125"/>
      <point x="257.34464285714284" y="107.46071428571429" type="curve" smooth="yes"/>
      <point x="221.41785714285714" y="150.38035714285715"/>
      <point x="209.1625" y="233.6357142857143"/>
      <point x="209.1625" y="323.64285714285717" type="curve" smooth="yes"/>
      <point x="209.1625" y="414.7446428571429"/>
      <point x="225.9142857142857" y="580.6785714285714"/>
      <point x="225.9142857142857" y="606.8607142857143" type="curve" smooth="yes"/>
      <point x="225.9142857142857" y="638.175"/>
      <point x="163.87678571428572" y="652.0"/>
      <point x="123.81785714285715" y="652.0" type="curve" smooth="yes"/>
      <point x="100.25535714285714" y="652.0"/>
      <point x="98.83928571428571" y="647.0875"/>
      <point x="97.59107142857142" y="633.7660714285714" type="curve" smooth="yes"/>
      <point x="97.175" y="623.7660714285714"/>
      <point x="81.59107142857142" y="452.2553571428571"/>
      <point x="80.75892857142857" y="298.0" type="curve" smooth="yes"/>
      <point x="80.34285714285714" y="195.0"/>
      <point x="93.92678571428571" y="104.41607142857143"/>
      <point x="146.00714285714287" y="53.832142857142856" type="curve" smooth="yes"/>
      <point x="190.50357142857143" y="10.832142857142857"/>
      <point x="266.58392857142854" y="-13.0"/>
    </contour>
  </outline>
</glyph>
<glyph name="V" format="2">
  <advance width="621.3285714285714"/>
  <unicode hex="0056"/>
  <anchor x="289.1535714285714" y="0.0" name="bottom"/>
  <anchor x="351.97857142857146" y="652.0" name="top"/>
  <outline>
    <contour>
      <point x="316.13214285714287" y="-13.0" type="curve" smooth="yes"/>
      <point x="335.36607142857144" y="-13.0"/>
      <point x="340.2785714285714" y="-8.919642857142858"/>
      <point x="344.5267857142857" y="-0.17499999999999982" type="curve" smooth="yes"/>
      <point x="387.88392857142856" y="87.02857142857142"/>
      <point x="563.8607142857143" y="461.8875"/>
      <point x="618.4017857142857" y="582.6267857142857" type="curve" smooth="yes"/>
      <point x="622.8982142857143" y="592.0357142857143"/>
      <point x="626.7303571428571" y="600.5321428571428"/>
      <point x="626.7303571428571" y="606.4446428571429" type="curve" smooth="yes"/>
      <point x="626.7303571428571" y="636.4232142857143"/>
      <point x="591.6642857142857" y="652.0"/>
      <point x="566.0875" y="652.0" type="curve" smooth="yes"/>
      <point x="558.175" y="652.0"/>
      <point x="553.9267857142858" y="650.1678571428571"/>
      <point x="551.5107142857142" y="642.7517857142857" type="curve" smooth="yes"/>
      <point x="516.7660714285714" y="541.3428571428572"/>
      <point x="355.95714285714286" y="181.74642857142857"/>
      <point x="316.62857142857143" y="114.34464285714286" type="curve"/>
      <point x="286.36607142857144" y="191.35892857142858"/>
      <point x="189.06071428571428" y="573.0285714285715"/>
      <point x="180.80535714285713" y="607.6125" type="curve" smooth="yes"/>
      <point x="177.38928571428573" y="632.0071428571429"/>
      <point x="124.94285714285715" y="652.0"/>
      <point x="65.55535714285715" y="652.0" type="curve" smooth="yes"/>
      <point x="43.90535714285714" y="652.0"/>
      <point x="37.080357142857146" y="648.3357142857143"/>
      <point x="37.080357142857146" y="639.5910714285715" type="curve" smooth="yes"/>
      <point x="37.080357142857146" y="634.7589285714286"/>
      <point x="38.9125" y="630.2625"/>
      <point x="41.9125" y="620.4303571428571" type="curve" smooth="yes"/>
      <point x="58.926785714285714" y="562.1321428571429"/>
      <point x="183.1375" y="143.15535714285716"/>
      <point x="210.88214285714287" y="30.964285714285715" type="curve" smooth="yes"/>
      <point x="216.79464285714286" y="4.489285714285715"/>
      <point x="264.2553571428571" y="-13.0"/>
    </contour>
  </outline>
</glyph>
<glyph name="W" format="2">
  <advance width="982.5482142857143"/>
  <unicode hex="0057"/>
  <anchor x="483.4017857142857" y="0.0" name="bottom"/>
  <anchor x="538.2053571428571" y="652.0" name="top"/>
  <outline>
    <contour>
      <point x="243.60714285714286" y="-13.0" type="curve" smooth="yes"/>
      <point x="261.59285714285716" y="-13.0"/>
      <point x="266.25714285714287" y="-10.751785714285715"/>
      <point x="271.5053571428571" y="2.241071428571429" type="curve" smooth="yes"/>
      <point x="284.25" y="34.80357142857143"/>
      <point x="428.5267857142857" y="337.6714285714286"/>
      <point x="499.7232142857143" y="496.74285714285713" type="curve"/>
      <point x="537.1535714285715" y="385.05"/>
      <point x="650.2982142857143" y="78.70892857142857"/>
      <point x="662.1303571428572" y="30.97142857142857" type="curve" smooth="yes"/>
      <point x="668.6267857142857" y="3.4892857142857148"/>
      <point x="724.1678571428571" y="-13.0"/>
      <point x="772.0589285714286" y="-13.0" type="curve" smooth="yes"/>
      <point x="791.2125" y="-13.0"/>
      <point x="805.8625" y="-9.167857142857143"/>
      <point x="808.5267857142857" y="7.992857142857143" type="curve" smooth="yes"/>
      <point x="823.9285714285714" y="92.43928571428572"/>
      <point x="972.1107142857143" y="581.4660714285715"/>
      <point x="972.1107142857143" y="606.8607142857143" type="curve" smooth="yes"/>
      <point x="972.1107142857143" y="638.175"/>
      <point x="933.8767857142857" y="652.0"/>
      <point x="908.4678571428572" y="652.0" type="curve" smooth="yes"/>
      <point x="898.3875" y="652.0"/>
      <point x="894.6428571428571" y="650.0"/>
      <point x="893.8107142857143" y="637.0946428571428" type="curve" smooth="yes"/>
      <point x="891.7303571428571" y="581.0142857142857"/>
      <point x="797.3142857142857" y="249.24821428571428"/>
      <point x="762.2125" y="120.59285714285716" type="curve"/>
      <point x="717.6071428571429" y="230.6142857142857"/>
      <point x="627.9071428571428" y="511.4089285714286"/>
      <point x="591.7982142857143" y="615.0285714285715" type="curve" smooth="yes"/>
      <point x="586.9660714285715" y="636.5107142857142"/>
      <point x="544.0089285714286" y="652.0"/>
      <point x="504.4607142857143" y="652.0" type="curve" smooth="yes"/>
      <point x="488.64285714285717" y="652.0"/>
      <point x="482.97857142857146" y="648.2482142857143"/>
      <point x="479.06607142857143" y="636.9267857142858" type="curve" smooth="yes"/>
      <point x="429.95714285714286" y="509.2857142857143"/>
      <point x="313.1535714285714" y="239.35714285714286"/>
      <point x="250.0964285714286" y="121.00892857142858" type="curve"/>
      <point x="221.5125" y="275.98035714285714"/>
      <point x="185.99464285714285" y="580.3785714285714"/>
      <point x="185.1625" y="603.9482142857142" type="curve" smooth="yes"/>
      <point x="183.9142857142857" y="634.4303571428571"/>
      <point x="119.46071428571429" y="652.0"/>
      <point x="81.15357142857142" y="652.0" type="curve" smooth="yes"/>
      <point x="62.58392857142857" y="652.0"/>
      <point x="51.67857142857143" y="649.1678571428571"/>
      <point x="51.67857142857143" y="638.2553571428572" type="curve" smooth="yes"/>
      <point x="51.67857142857143" y="633.8392857142857"/>
      <point x="52.926785714285714" y="623.9267857142858"/>
      <point x="54.34285714285714" y="614.2625" type="curve" smooth="yes"/>
      <point x="62.67857142857143" y="544.9785714285714"/>
      <point x="120.67142857142858" y="171.30535714285713"/>
      <point x="136.18214285714285" y="33.30714285714286" type="curve" smooth="yes"/>
      <point x="139.0142857142857" y="0.8250000000000002"/>
      <point x="199.72321428571428" y="-13.0"/>
    </contour>
  </outline>
</glyph>
<glyph name="X" format="2">
  <advance width="595.9196428571429"/>
  <unicode hex="0058"/>
  <anchor x="266.86785714285713" y="0.0" name="bottom"/>
  <anchor x="354.9714285714286" y="645.4160714285714" name="top"/>
  <outline>
    <contour>
      <point x="63.31428571428572" y="-13.0" type="curve" smooth="yes"/>
      <point x="67.73035714285714" y="-13.0"/>
      <point x="71.39464285714286" y="-10.919642857142858"/>
      <point x="83.89107142857142" y="6.825" type="curve" smooth="yes"/>
      <point x="129.49642857142857" y="70.60535714285714"/>
      <point x="207.90535714285716" y="170.67142857142858"/>
      <point x="279.6125" y="257.88928571428573" type="curve"/>
      <point x="328.3642857142857" y="173.2392857142857"/>
      <point x="420.1660714285714" y="23.007142857142856"/>
      <point x="435.2607142857143" y="3.3285714285714287" type="curve" smooth="yes"/>
      <point x="443.2607142857143" y="-8.751785714285715"/>
      <point x="452.33392857142854" y="-13.0"/>
      <point x="465.575" y="-13.0" type="curve" smooth="yes"/>
      <point x="490.4732142857143" y="-13.0"/>
      <point x="525.8678571428571" y="0.5767857142857142"/>
      <point x="547.8535714285714" y="14.7375" type="curve" smooth="yes"/>
      <point x="561.175" y="22.89821428571429"/>
      <point x="565.5035714285714" y="27.978571428571428"/>
      <point x="565.5035714285714" y="33.13928571428572" type="curve" smooth="yes"/>
      <point x="565.5035714285714" y="36.21964285714286"/>
      <point x="561.5035714285714" y="42.21964285714286"/>
      <point x="555.7517857142857" y="51.3875" type="curve" smooth="yes"/>
      <point x="522.5035714285714" y="104.54107142857143"/>
      <point x="447.475" y="217.475"/>
      <point x="380.11785714285713" y="331.83214285714286" type="curve"/>
      <point x="449.6071428571429" y="415.24107142857144"/>
      <point x="501.2785714285714" y="477.75892857142856"/>
      <point x="547.7232142857143" y="548.7071428571428" type="curve" smooth="yes"/>
      <point x="553.1392857142857" y="558.7875"/>
      <point x="555.5553571428571" y="567.1160714285714"/>
      <point x="555.5553571428571" y="576.7803571428572" type="curve" smooth="yes"/>
      <point x="555.5553571428571" y="610.35"/>
      <point x="528.825" y="652.0"/>
      <point x="516.6571428571428" y="652.0" type="curve" smooth="yes"/>
      <point x="512.825" y="652.0"/>
      <point x="509.7446428571429" y="648.7517857142857"/>
      <point x="501.3357142857143" y="635.6785714285714" type="curve" smooth="yes"/>
      <point x="478.50357142857143" y="591.1678571428571"/>
      <point x="398.3357142857143" y="471.65714285714284"/>
      <point x="340.64285714285717" y="398.4535714285714" type="curve"/>
      <point x="277.54107142857146" y="501.4607142857143"/>
      <point x="222.60714285714286" y="598.475"/>
      <point x="197.5857142857143" y="638.7589285714286" type="curve" smooth="yes"/>
      <point x="191.50535714285715" y="648.9196428571429"/>
      <point x="180.68035714285713" y="652.0"/>
      <point x="165.85535714285714" y="652.0" type="curve" smooth="yes"/>
      <point x="133.20535714285714" y="652.0"/>
      <point x="68.51071428571429" y="626.0142857142857"/>
      <point x="68.51071428571429" y="607.6125" type="curve" smooth="yes"/>
      <point x="68.51071428571429" y="603.3642857142858"/>
      <point x="70.34285714285714" y="599.2839285714285"/>
      <point x="75.51071428571429" y="590.7" type="curve" smooth="yes"/>
      <point x="102.33571428571429" y="545.9696428571428"/>
      <point x="162.1017857142857" y="453.4732142857143"/>
      <point x="239.96964285714284" y="324.8464285714286" type="curve"/>
      <point x="161.80892857142857" y="232.18214285714285"/>
      <point x="95.79464285714286" y="160.40892857142856"/>
      <point x="33.58392857142857" y="82.37321428571428" type="curve" smooth="yes"/>
      <point x="28.0" y="74.29285714285714"/>
      <point x="25.583928571428572" y="67.5482142857143"/>
      <point x="25.583928571428572" y="60.051785714285714" type="curve" smooth="yes"/>
      <point x="25.583928571428572" y="26.65714285714286"/>
      <point x="52.058928571428574" y="-13.0"/>
    </contour>
  </outline>
</glyph>
<glyph name="Y" format="2">
  <advance width="555.1821428571428"/>
  <unicode hex="0059"/>
  <anchor x="268.1821428571429" y="0.0" name="bottom"/>
  <anchor x="310.50357142857143" y="642.0" name="top"/>
  <anchor x="84.18214285714285" y="652.0" name="topleft"/>
  <outline>
    <contour>
      <point x="308.4892857142857" y="-13.0" type="curve" smooth="yes"/>
      <point x="332.0517857142857" y="-13.0"/>
      <point x="334.7160714285714" y="-7.503571428571428"/>
      <point x="334.7160714285714" y="5.817857142857143" type="curve" smooth="yes"/>
      <point x="336.46785714285716" y="83.33571428571429"/>
      <point x="339.46785714285716" y="163.59821428571428"/>
      <point x="342.46785714285716" y="250.68571428571428" type="curve"/>
      <point x="386.2339285714286" y="327.21785714285716"/>
      <point x="497.4017857142857" y="498.5464285714286"/>
      <point x="525.1607142857143" y="545.4803571428571" type="curve" smooth="yes"/>
      <point x="536.0732142857142" y="563.225"/>
      <point x="540.1535714285715" y="578.7946428571429"/>
      <point x="540.1535714285715" y="591.1160714285714" type="curve" smooth="yes"/>
      <point x="540.1535714285715" y="619.3428571428572"/>
      <point x="515.0071428571429" y="652.0"/>
      <point x="500.5910714285714" y="652.0" type="curve" smooth="yes"/>
      <point x="494.09464285714284" y="652.0"/>
      <point x="490.2625" y="646.6714285714286"/>
      <point x="482.8535714285714" y="632.6857142857143" type="curve" smooth="yes"/>
      <point x="465.2767857142857" y="598.9482142857142"/>
      <point x="368.825" y="430.06607142857143"/>
      <point x="314.73035714285714" y="345.3803571428571" type="curve"/>
      <point x="286.55535714285713" y="406.29285714285714"/>
      <point x="242.69464285714287" y="506.08035714285717"/>
      <point x="189.9875" y="607.5321428571428" type="curve" smooth="yes"/>
      <point x="177.81964285714287" y="643.5107142857142"/>
      <point x="108.86964285714285" y="652.0"/>
      <point x="68.24107142857143" y="652.0" type="curve" smooth="yes"/>
      <point x="40.510714285714286" y="652.0"/>
      <point x="34.18214285714286" y="646.2553571428572"/>
      <point x="34.18214285714286" y="635.9267857142858" type="curve" smooth="yes"/>
      <point x="34.18214285714286" y="631.3428571428572"/>
      <point x="39.269642857142856" y="622.6714285714286"/>
      <point x="43.02142857142857" y="615.9196428571429" type="curve" smooth="yes"/>
      <point x="71.175" y="565.0357142857143"/>
      <point x="139.175" y="432.9321428571428"/>
      <point x="221.48035714285714" y="269.175" type="curve"/>
      <point x="214.89642857142857" y="173.4375"/>
      <point x="206.39285714285714" y="42.89107142857143"/>
      <point x="206.39285714285714" y="32.72321428571429" type="curve" smooth="yes"/>
      <point x="206.39285714285714" y="1.4089285714285715"/>
      <point x="268.43035714285713" y="-13.0"/>
    </contour>
  </outline>
</glyph>
<glyph name="Z" format="2">
  <advance width="555.6428571428571"/>
  <unicode hex="005A"/>
  <anchor x="288.16785714285714" y="0.0" name="bottom"/>
  <anchor x="262.6857142857143" y="326.0" name="center"/>
  <anchor x="308.00714285714287" y="652.0" name="top"/>
  <outline>
    <contour>
      <point x="239.49464285714288" y="265.8696428571429" type="curve" smooth="yes"/>
      <point x="322.5642857142857" y="265.8696428571429" type="line" smooth="yes"/>
      <point x="320.24285714285713" y="265.8696428571429"/>
      <point x="318.34464285714284" y="272.2267857142857"/>
      <point x="318.34464285714284" y="258.525" type="curve" smooth="yes"/>
      <point x="318.34464285714284" y="248.96964285714287"/>
      <point x="318.00892857142856" y="246.15178571428572"/>
      <point x="318.0017857142857" y="246.15178571428572" type="curve" smooth="yes"/>
      <point x="317.24285714285713" y="246.15178571428572"/>
      <point x="339.0910714285714" y="242.80178571428573"/>
      <point x="213.48928571428573" y="242.80178571428573" type="curve" smooth="yes"/>
      <point x="192.71785714285716" y="242.80178571428573" type="line"/>
      <point x="188.6589285714286" y="240.50892857142858"/>
      <point x="302.32321428571424" y="396.6375"/>
      <point x="305.68035714285713" y="399.08928571428567" type="curve" smooth="yes"/>
      <point x="307.4392857142857" y="399.9357142857143"/>
      <point x="308.0232142857143" y="402.44642857142856"/>
      <point x="308.0232142857143" y="401.5410714285714" type="curve" smooth="yes"/>
      <point x="308.0232142857143" y="400.9785714285714"/>
      <point x="316.4982142857143" y="373.1303571428571"/>
      <point x="324.1410714285714" y="373.1303571428571" type="curve" smooth="yes"/>
      <point x="276.67678571428576" y="373.1303571428571" type="line" smooth="yes"/>
      <point x="277.24642857142857" y="373.1303571428571"/>
      <point x="280.3125" y="368.0214285714286"/>
      <point x="280.3125" y="377.2267857142857" type="curve" smooth="yes"/>
      <point x="280.3125" y="388.86249999999995"/>
      <point x="280.0642857142857" y="392.8482142857143"/>
      <point x="280.07142857142856" y="392.8482142857143" type="curve" smooth="yes"/>
      <point x="284.3339285714286" y="392.8482142857143"/>
      <point x="254.31071428571428" y="396.78214285714284"/>
      <point x="357.13928571428573" y="396.78214285714284" type="curve" smooth="yes"/>
      <point x="370.25357142857143" y="396.78214285714284" type="line"/>
      <point x="336.79464285714283" y="339.7035714285714"/>
      <point x="302.7714285714286" y="295.9160714285714"/>
      <point x="257.5392857142857" y="238.1589285714286" type="curve" smooth="yes"/>
      <point x="256.19642857142856" y="237.3125"/>
      <point x="256.19642857142856" y="238.30535714285716"/>
      <point x="256.19642857142856" y="239.79464285714286" type="curve" smooth="yes"/>
      <point x="256.19642857142856" y="240.35714285714286"/>
      <point x="247.13750000000002" y="265.8696428571429"/>
    </contour>
  </outline>
</glyph>
<glyph name="bracketleft" format="2">
  <advance width="348.03035714285716"/>
  <unicode hex="005B"/>
  <outline>
    <contour>
      <point x="74.01428571428572" y="-244.0" type="curve"/>
      <point x="285.9642857142857" y="-244.0" type="line" smooth="yes"/>
      <point x="303.62857142857143" y="-244.0"/>
      <point x="308.7964285714286" y="-215.51785714285714"/>
      <point x="308.7964285714286" y="-196.67857142857142" type="curve" smooth="yes"/>
      <point x="308.7964285714286" y="-185.68571428571428"/>
      <point x="308.2125" y="-181.85357142857143"/>
      <point x="303.2125" y="-181.85357142857143" type="curve" smooth="yes"/>
      <point x="298.3803571428571" y="-181.85357142857143"/>
      <point x="272.55535714285713" y="-187.51785714285714"/>
      <point x="189.5125" y="-189.26964285714286" type="curve"/>
      <point x="189.92857142857144" y="200.02678571428572"/>
      <point x="231.34464285714284" y="646.1607142857143"/>
      <point x="235.68035714285713" y="702.1821428571428" type="curve"/>
      <point x="304.13214285714287" y="701.5982142857143"/>
      <point x="336.13214285714287" y="698.0142857142857"/>
      <point x="341.3803571428571" y="698.0142857142857" type="curve" smooth="yes"/>
      <point x="347.2125" y="698.0142857142857"/>
      <point x="352.3803571428571" y="721.175"/>
      <point x="352.3803571428571" y="738.2553571428572" type="curve" smooth="yes"/>
      <point x="352.3803571428571" y="752.3357142857143"/>
      <point x="349.9642857142857" y="756.0"/>
      <point x="341.3" y="756.0" type="curve" smooth="yes"/>
      <point x="124.01428571428572" y="756.0" type="line"/>
      <point x="117.01428571428572" y="550.0"/>
      <point x="74.01428571428572" y="-189.0"/>
    </contour>
  </outline>
</glyph>
<glyph name="backslash" format="2">
  <advance width="502.0357142857143"/>
  <unicode hex="005C"/>
  <outline>
    <contour>
      <point x="360.9107142857143" y="-34.41607142857143" type="curve" smooth="yes"/>
      <point x="383.6482142857143" y="-34.41607142857143"/>
      <point x="440.01428571428573" y="-15.678571428571429"/>
      <point x="440.01428571428573" y="3.891071428571429" type="curve" smooth="yes"/>
      <point x="440.01428571428573" y="9.80357142857143"/>
      <point x="434.26964285714286" y="26.0375"/>
      <point x="430.60535714285714" y="36.44642857142858" type="curve" smooth="yes"/>
      <point x="367.46785714285716" y="177.225"/>
      <point x="259.2267857142857" y="486.5125"/>
      <point x="191.59285714285716" y="643.5178571428571" type="curve" smooth="yes"/>
      <point x="182.5125" y="671.8321428571429"/>
      <point x="170.43928571428572" y="675.0"/>
      <point x="153.1982142857143" y="675.0" type="curve" smooth="yes"/>
      <point x="118.80357142857143" y="675.0"/>
      <point x="74.09464285714286" y="655.0142857142857"/>
      <point x="74.09464285714286" y="636.2767857142857" type="curve" smooth="yes"/>
      <point x="74.09464285714286" y="630.7803571428572"/>
      <point x="79.83928571428571" y="614.5464285714286"/>
      <point x="83.50357142857143" y="604.1375" type="curve" smooth="yes"/>
      <point x="111.60535714285714" y="541.0214285714286"/>
      <point x="283.81607142857143" y="95.3125"/>
      <point x="322.5160714285714" y="-2.93392857142857" type="curve" smooth="yes"/>
      <point x="331.84464285714284" y="-30.832142857142856"/>
      <point x="343.66964285714283" y="-34.41607142857143"/>
    </contour>
  </outline>
</glyph>
<glyph name="bracketright" format="2">
  <advance width="368.03035714285716"/>
  <unicode hex="005D"/>
  <outline>
    <contour>
      <point x="15.051785714285714" y="-244.0" type="curve" smooth="yes"/>
      <point x="232.92142857142858" y="-244.0" type="line"/>
      <point x="238.75357142857143" y="-46.75892857142857"/>
      <point x="282.9214285714286" y="727.8607142857143"/>
      <point x="282.9214285714286" y="756.0" type="curve"/>
      <point x="71.55535714285715" y="756.0" type="line" smooth="yes"/>
      <point x="53.30714285714286" y="756.0"/>
      <point x="48.13928571428572" y="727.5178571428571"/>
      <point x="48.13928571428572" y="708.6785714285714" type="curve" smooth="yes"/>
      <point x="48.13928571428572" y="697.6857142857143"/>
      <point x="48.72321428571429" y="693.8535714285714"/>
      <point x="53.72321428571429" y="693.8535714285714" type="curve" smooth="yes"/>
      <point x="58.55535714285715" y="693.8535714285714"/>
      <point x="84.38035714285715" y="699.5178571428571"/>
      <point x="168.00714285714287" y="700.6857142857143" type="curve"/>
      <point x="165.83928571428572" y="303.21428571428567"/>
      <point x="123.83928571428571" y="-142.91964285714286"/>
      <point x="120.67142857142858" y="-190.76607142857142" type="curve"/>
      <point x="52.21964285714286" y="-189.59821428571428"/>
      <point x="20.80357142857143" y="-186.0142857142857"/>
      <point x="15.555357142857144" y="-186.0142857142857" type="curve" smooth="yes"/>
      <point x="9.723214285714288" y="-186.0142857142857"/>
      <point x="4.555357142857144" y="-209.175"/>
      <point x="4.555357142857144" y="-226.25535714285715" type="curve" smooth="yes"/>
      <point x="4.555357142857144" y="-240.3357142857143"/>
      <point x="6.9714285714285715" y="-244.0"/>
    </contour>
  </outline>
</glyph>
<glyph name="asciicircum" format="2">
  <advance width="535.8392857142857"/>
  <unicode hex="005E"/>
  <outline>
    <contour>
      <point x="112.73035714285714" y="376.2553571428571" type="curve"/>
      <point x="132.2267857142857" y="399.42321428571427"/>
      <point x="237.16071428571428" y="493.37142857142857"/>
      <point x="300.42321428571427" y="541.1375" type="curve"/>
      <point x="342.75892857142856" y="495.45892857142854"/>
      <point x="420.7660714285714" y="397.175"/>
      <point x="433.8464285714286" y="376.2553571428571" type="curve"/>
      <point x="451.4089285714286" y="391.56964285714287"/>
      <point x="468.58392857142854" y="412.97857142857146"/>
      <point x="468.58392857142854" y="428.05892857142857" type="curve" smooth="yes"/>
      <point x="468.58392857142854" y="438.8910714285714"/>
      <point x="464.6642857142857" y="452.97857142857146"/>
      <point x="459.6642857142857" y="462.64285714285717" type="curve" smooth="yes"/>
      <point x="439.98571428571427" y="497.65714285714284"/>
      <point x="373.5625" y="593.2553571428572"/>
      <point x="332.1535714285714" y="639.5910714285715" type="curve" smooth="yes"/>
      <point x="322.1607142857143" y="649.7517857142857"/>
      <point x="315.7446428571429" y="652.0"/>
      <point x="307.16785714285714" y="652.0" type="curve" smooth="yes"/>
      <point x="297.75892857142856" y="652.0"/>
      <point x="291.5107142857143" y="649.3357142857143"/>
      <point x="279.6857142857143" y="639.5910714285715" type="curve" smooth="yes"/>
      <point x="243.12321428571428" y="611.4375"/>
      <point x="111.40178571428572" y="484.0517857142857"/>
      <point x="95.15357142857142" y="459.0517857142857" type="curve" smooth="yes"/>
      <point x="87.40892857142858" y="447.475"/>
      <point x="85.825" y="438.8107142857143"/>
      <point x="85.825" y="428.2339285714286" type="curve" smooth="yes"/>
      <point x="85.825" y="411.48214285714283"/>
      <point x="97.49642857142857" y="392.7375"/>
    </contour>
  </outline>
</glyph>
<glyph name="a" format="2">
  <advance width="662.0589285714286"/>
  <unicode hex="0061"/>
  <anchor x="303.0" y="0.0" name="bottom"/>
  <anchor x="537.7375" y="10.0" name="ogonek"/>
  <anchor x="351.8982142857143" y="524.0" name="top"/>
  <outline>
    <contour>
      <point x="155.73035714285714" y="-13.0" type="curve" smooth="yes"/>
      <point x="214.56964285714287" y="-13.0"/>
      <point x="375.2553571428571" y="189.19642857142856"/>
      <point x="423.95535714285717" y="300.4946428571429" type="curve"/>
      <point x="419.6196428571429" y="236.20357142857142"/>
      <point x="414.2839285714286" y="130.56964285714287"/>
      <point x="414.2839285714286" y="83.3875" type="curve" smooth="yes"/>
      <point x="414.2839285714286" y="63.716071428571425"/>
      <point x="414.7" y="50.13214285714286"/>
      <point x="417.2839285714286" y="40.3875" type="curve" smooth="yes"/>
      <point x="423.11607142857144" y="12.744642857142857"/>
      <point x="485.825" y="-13.0"/>
      <point x="499.7375" y="-13.0" type="curve" smooth="yes"/>
      <point x="542.5696428571429" y="-13.0"/>
      <point x="632.5625" y="94.65714285714286"/>
      <point x="660.9857142857143" y="133.49642857142857" type="curve" smooth="yes"/>
      <point x="665.0660714285714" y="138.825"/>
      <point x="667.3142857142857" y="145.32142857142858"/>
      <point x="667.3142857142857" y="151.81785714285715" type="curve" smooth="yes"/>
      <point x="667.3142857142857" y="167.73035714285714"/>
      <point x="654.4017857142857" y="187.05892857142857"/>
      <point x="647.4892857142858" y="187.05892857142857" type="curve" smooth="yes"/>
      <point x="644.0732142857142" y="187.05892857142857"/>
      <point x="642.6571428571428" y="184.475"/>
      <point x="638.4089285714285" y="179.39464285714286" type="curve"/>
      <point x="623.2339285714286" y="159.3"/>
      <point x="567.4464285714286" y="93.84107142857144"/>
      <point x="553.0232142857143" y="93.84107142857144" type="curve" smooth="yes"/>
      <point x="542.6875" y="93.84107142857144"/>
      <point x="539.1035714285714" y="100.00892857142858"/>
      <point x="539.1035714285714" y="146.00178571428572" type="curve" smooth="yes"/>
      <point x="539.1035714285714" y="247.81785714285715"/>
      <point x="552.6071428571429" y="439.7660714285714"/>
      <point x="552.6071428571429" y="448.7660714285714" type="curve"/>
      <point x="558.0232142857143" y="448.7660714285714"/>
      <point x="566.6875" y="464.9267857142857"/>
      <point x="566.6875" y="486.6714285714286" type="curve" smooth="yes"/>
      <point x="566.6875" y="494.58392857142854"/>
      <point x="563.6875" y="495.58392857142854"/>
      <point x="561.0232142857143" y="496.0" type="curve" smooth="yes"/>
      <point x="451.98571428571427" y="515.4964285714286"/>
      <point x="357.55535714285713" y="524.0"/>
      <point x="312.5107142857143" y="524.0" type="curve" smooth="yes"/>
      <point x="231.3642857142857" y="524.0"/>
      <point x="172.27678571428572" y="483.16785714285714"/>
      <point x="123.69285714285715" y="417.0" type="curve" smooth="yes"/>
      <point x="72.69285714285715" y="348.0"/>
      <point x="69.69285714285715" y="141.41607142857143"/>
      <point x="69.69285714285715" y="83.3875" type="curve" smooth="yes"/>
      <point x="69.69285714285715" y="63.716071428571425"/>
      <point x="70.69285714285715" y="50.13214285714286"/>
      <point x="73.27678571428571" y="40.3875" type="curve" smooth="yes"/>
      <point x="79.10892857142858" y="12.744642857142857"/>
      <point x="141.81785714285715" y="-13.0"/>
    </contour>
    <contour>
      <point x="208.43214285714285" y="93.42500000000001" type="curve" smooth="yes"/>
      <point x="198.0964285714286" y="93.42500000000001"/>
      <point x="194.5125" y="99.59285714285716"/>
      <point x="194.5125" y="145.16964285714286" type="curve" smooth="yes"/>
      <point x="194.5125" y="351.06607142857143"/>
      <point x="235.1982142857143" y="469.7660714285714"/>
      <point x="306.54821428571427" y="469.7660714285714" type="curve" smooth="yes"/>
      <point x="335.8107142857143" y="469.7660714285714"/>
      <point x="377.41607142857146" y="466.01428571428573"/>
      <point x="432.95535714285717" y="454.175" type="curve"/>
      <point x="408.43035714285713" y="309.8464285714286"/>
      <point x="234.775" y="93.42500000000001"/>
    </contour>
  </outline>
</glyph>
<glyph name="b" format="2">
  <advance width="611.9571428571429"/>
  <unicode hex="0062"/>
  <anchor x="308.4892857142857" y="0.0" name="bottom"/>
  <anchor x="210.08035714285714" y="639.0" name="cross"/>
  <anchor x="440.21964285714284" y="524.0" name="top"/>
  <outline>
    <contour>
      <point x="331.54821428571427" y="-13.0" type="curve" smooth="yes"/>
      <point x="411.8625" y="-13.0"/>
      <point x="468.95" y="23.007142857142856"/>
      <point x="520.3589285714286" y="94.0" type="curve" smooth="yes"/>
      <point x="560.0964285714285" y="148.9857142857143"/>
      <point x="562.6875" y="302.4321428571429"/>
      <point x="562.6875" y="360.04464285714283" type="curve" smooth="yes"/>
      <point x="562.6875" y="428.01428571428573"/>
      <point x="560.5196428571429" y="458.53214285714284"/>
      <point x="556.1839285714286" y="470.6125" type="curve" smooth="yes"/>
      <point x="549.1839285714286" y="498.8392857142857"/>
      <point x="487.05892857142857" y="524.0"/>
      <point x="472.5625" y="524.0" type="curve" smooth="yes"/>
      <point x="413.7232142857143" y="524.0"/>
      <point x="255.6357142857143" y="323.06607142857143"/>
      <point x="214.76785714285714" y="211.3517857142857" type="curve"/>
      <point x="220.0232142857143" y="294.06607142857143"/>
      <point x="249.85535714285714" y="673.0214285714286"/>
      <point x="250.43928571428572" y="702.3714285714286" type="curve" smooth="yes"/>
      <point x="250.43928571428572" y="738.2625"/>
      <point x="191.23392857142858" y="756.0"/>
      <point x="145.26964285714286" y="756.0" type="curve" smooth="yes"/>
      <point x="129.78035714285716" y="756.0"/>
      <point x="126.28392857142858" y="750.9196428571429"/>
      <point x="126.28392857142858" y="740.0946428571428" type="curve" smooth="yes"/>
      <point x="123.94821428571429" y="645.0089285714286"/>
      <point x="93.37142857142857" y="186.69285714285715"/>
      <point x="87.53214285714286" y="62.81785714285714" type="curve"/>
      <point x="82.53214285714286" y="62.81785714285714"/>
      <point x="73.86785714285713" y="46.073214285714286"/>
      <point x="73.86785714285713" y="24.32857142857143" type="curve" smooth="yes"/>
      <point x="73.86785714285713" y="16.416071428571428"/>
      <point x="76.86785714285713" y="15.416071428571428"/>
      <point x="79.53214285714286" y="15.0" type="curve" smooth="yes"/>
      <point x="187.9857142857143" y="-3.9125"/>
      <point x="281.2482142857143" y="-13.0"/>
    </contour>
    <contour>
      <point x="336.34285714285716" y="40.401785714285715" type="curve" smooth="yes"/>
      <point x="307.08035714285717" y="40.401785714285715"/>
      <point x="265.475" y="44.153571428571425"/>
      <point x="209.3517857142857" y="56.57678571428571" type="curve"/>
      <point x="229.7892857142857" y="200.90535714285716"/>
      <point x="395.26964285714286" y="416.74285714285713"/>
      <point x="421.6125" y="416.74285714285713" type="curve" smooth="yes"/>
      <point x="436.6196428571429" y="416.74285714285713"/>
      <point x="438.45178571428573" y="395.9767857142857"/>
      <point x="438.45178571428573" y="317.7" type="curve" smooth="yes"/>
      <point x="438.45178571428573" y="141.58392857142857"/>
      <point x="402.4375" y="40.401785714285715"/>
    </contour>
  </outline>
</glyph>
<glyph name="c" format="2">
  <advance width="442.175"/>
  <unicode hex="0063"/>
  <anchor x="232.9125" y="0.0" name="bottom"/>
  <anchor x="286.6642857142857" y="524.0" name="top"/>
  <outline>
    <contour>
      <point x="249.48214285714286" y="-13.0" type="curve" smooth="yes"/>
      <point x="310.58392857142854" y="-13.0"/>
      <point x="367.16785714285714" y="11.839285714285715"/>
      <point x="408.0875" y="53.2625" type="curve" smooth="yes"/>
      <point x="415.3357142857143" y="60.09464285714286"/>
      <point x="417.16785714285714" y="64.34285714285714"/>
      <point x="417.16785714285714" y="72.83928571428571" type="curve" smooth="yes"/>
      <point x="417.16785714285714" y="87.33571428571429"/>
      <point x="412.0" y="103.83214285714286"/>
      <point x="404.7517857142857" y="103.83214285714286" type="curve" smooth="yes"/>
      <point x="400.7517857142857" y="103.83214285714286"/>
      <point x="397.91964285714283" y="101.24821428571428"/>
      <point x="385.7517857142857" y="92.57678571428572" type="curve" smooth="yes"/>
      <point x="368.08035714285717" y="79.40178571428572"/>
      <point x="326.0732142857143" y="53.716071428571425"/>
      <point x="282.13214285714287" y="53.716071428571425" type="curve" smooth="yes"/>
      <point x="207.1107142857143" y="53.716071428571425"/>
      <point x="171.6" y="110.75178571428572"/>
      <point x="171.6" y="219.09464285714284" type="curve" smooth="yes"/>
      <point x="171.6" y="378.2625"/>
      <point x="221.7017857142857" y="464.45178571428573"/>
      <point x="275.8910714285714" y="464.45178571428573" type="curve" smooth="yes"/>
      <point x="314.3142857142857" y="464.45178571428573"/>
      <point x="343.06607142857143" y="449.2910714285714"/>
      <point x="371.90535714285716" y="422.525" type="curve" smooth="yes"/>
      <point x="380.0732142857143" y="415.4375"/>
      <point x="385.32142857142856" y="412.26964285714286"/>
      <point x="392.90535714285716" y="412.26964285714286" type="curve" smooth="yes"/>
      <point x="406.06607142857143" y="412.26964285714286"/>
      <point x="413.2339285714286" y="446.7517857142857"/>
      <point x="413.2339285714286" y="464.0" type="curve" smooth="yes"/>
      <point x="413.2339285714286" y="475.3285714285714"/>
      <point x="409.2339285714286" y="485.4089285714286"/>
      <point x="396.32142857142856" y="493.57678571428573" type="curve" smooth="yes"/>
      <point x="367.4892857142857" y="513.1678571428571"/>
      <point x="332.2482142857143" y="524.0"/>
      <point x="272.49642857142857" y="524.0" type="curve" smooth="yes"/>
      <point x="159.02857142857144" y="524.0"/>
      <point x="51.35" y="446.2553571428571"/>
      <point x="51.35" y="220.75178571428572" type="curve" smooth="yes"/>
      <point x="51.35" y="34.27678571428571"/>
      <point x="142.32857142857142" y="-13.0"/>
    </contour>
  </outline>
</glyph>
<glyph name="e" format="2">
  <advance width="477.8982142857143"/>
  <unicode hex="0065"/>
  <anchor x="232.75178571428572" y="0.0" name="bottom"/>
  <anchor x="369.7517857142857" y="0.0" name="ogonek"/>
  <anchor x="297.7517857142857" y="524.0" name="top"/>
  <outline>
    <contour>
      <point x="251.23392857142858" y="-13.0" type="curve" smooth="yes"/>
      <point x="319.825" y="-13.0"/>
      <point x="382.65" y="16.0"/>
      <point x="426.06607142857143" y="61.167857142857144" type="curve" smooth="yes"/>
      <point x="434.5625" y="69.66428571428571"/>
      <point x="436.39464285714286" y="75.57678571428572"/>
      <point x="436.39464285714286" y="81.57678571428572" type="curve" smooth="yes"/>
      <point x="436.39464285714286" y="98.15357142857142"/>
      <point x="431.2267857142857" y="113.81785714285715"/>
      <point x="423.97857142857146" y="113.81785714285715" type="curve" smooth="yes"/>
      <point x="419.97857142857146" y="113.81785714285715"/>
      <point x="415.8982142857143" y="110.40178571428572"/>
      <point x="404.1464285714286" y="100.89821428571429" type="curve" smooth="yes"/>
      <point x="381.48214285714283" y="83.5625"/>
      <point x="335.3071428571429" y="53.716071428571425"/>
      <point x="288.0375" y="53.716071428571425" type="curve" smooth="yes"/>
      <point x="209.51964285714286" y="53.716071428571425"/>
      <point x="172.18392857142857" y="108.25535714285714"/>
      <point x="172.18392857142857" y="218.67857142857142" type="curve" smooth="yes"/>
      <point x="172.18392857142857" y="233.93392857142857"/>
      <point x="172.18392857142857" y="255.44464285714287"/>
      <point x="173.3517857142857" y="264.1089285714286" type="curve"/>
      <point x="192.69464285714287" y="260.60535714285714"/>
      <point x="220.2125" y="257.6857142857143"/>
      <point x="248.8982142857143" y="257.6857142857143" type="curve" smooth="yes"/>
      <point x="339.6357142857143" y="257.6857142857143"/>
      <point x="448.95714285714286" y="300.1821428571429"/>
      <point x="448.95714285714286" y="404.67857142857144" type="curve" smooth="yes"/>
      <point x="448.95714285714286" y="478.24107142857144"/>
      <point x="399.7232142857143" y="524.0"/>
      <point x="280.0875" y="524.0" type="curve" smooth="yes"/>
      <point x="154.7732142857143" y="524.0"/>
      <point x="53.10178571428571" y="446.2553571428571"/>
      <point x="53.10178571428571" y="220.75178571428572" type="curve" smooth="yes"/>
      <point x="53.10178571428571" y="32.19642857142857"/>
      <point x="146.16071428571428" y="-13.0"/>
    </contour>
    <contour>
      <point x="246.48214285714286" y="302.09464285714284" type="curve" smooth="yes"/>
      <point x="213.38035714285715" y="301.2625"/>
      <point x="184.35892857142858" y="310.02142857142854"/>
      <point x="180.19107142857143" y="314.6928571428571" type="curve"/>
      <point x="193.36607142857144" y="434.34285714285716"/>
      <point x="235.96428571428572" y="476.1892857142857"/>
      <point x="282.8982142857143" y="476.1892857142857" type="curve" smooth="yes"/>
      <point x="325.2553571428571" y="476.1892857142857"/>
      <point x="346.09464285714284" y="446.8464285714286"/>
      <point x="346.09464285714284" y="409.75892857142856" type="curve" smooth="yes"/>
      <point x="346.09464285714284" y="334.26964285714286"/>
      <point x="306.42321428571427" y="304.175"/>
    </contour>
  </outline>
</glyph>
<glyph name="f" format="2">
  <advance width="340.36607142857144"/>
  <unicode hex="0066"/>
  <anchor x="153.0" y="0.0" name="bottom"/>
  <anchor x="182.35714285714286" y="666.1464285714286" name="top"/>
  <outline>
    <contour>
      <point x="32.65" y="-244.0" type="curve" smooth="yes"/>
      <point x="72.72321428571429" y="-244.0"/>
      <point x="120.3" y="-226.6642857142857"/>
      <point x="161.87678571428572" y="-187.91964285714286" type="curve" smooth="yes"/>
      <point x="204.28571428571428" y="-148.34285714285716"/>
      <point x="236.8625" y="-83.18928571428572"/>
      <point x="238.52678571428572" y="10.69464285714286" type="curve" smooth="yes"/>
      <point x="243.10357142857143" y="437.1892857142857" type="line"/>
      <point x="392.175" y="437.1892857142857" type="line" smooth="yes"/>
      <point x="407.75892857142856" y="437.1892857142857"/>
      <point x="416.42321428571427" y="458.60535714285714"/>
      <point x="416.42321428571427" y="483.5107142857143" type="curve" smooth="yes"/>
      <point x="416.42321428571427" y="496.58392857142854"/>
      <point x="413.42321428571427" y="499.0"/>
      <point x="406.34285714285716" y="499.0" type="curve" smooth="yes"/>
      <point x="242.6875" y="499.0" type="line"/>
      <point x="244.43928571428572" y="556.4375" type="line" smooth="yes"/>
      <point x="246.775" y="658.0142857142857"/>
      <point x="276.03035714285716" y="686.1089285714286"/>
      <point x="319.54107142857146" y="686.1089285714286" type="curve" smooth="yes"/>
      <point x="361.56964285714287" y="686.1089285714286"/>
      <point x="394.34285714285716" y="675.7660714285714"/>
      <point x="402.00714285714287" y="674.1821428571428" type="curve" smooth="yes"/>
      <point x="407.0875" y="673.1821428571428"/>
      <point x="416.34285714285716" y="669.2625"/>
      <point x="420.5107142857143" y="669.2625" type="curve" smooth="yes"/>
      <point x="428.175" y="669.2625"/>
      <point x="433.8392857142857" y="683.9267857142858"/>
      <point x="433.8392857142857" y="697.5910714285715" type="curve" smooth="yes"/>
      <point x="433.8392857142857" y="710.6642857142857"/>
      <point x="431.5910714285714" y="720.0732142857142"/>
      <point x="422.43035714285713" y="725.7375" type="curve" smooth="yes"/>
      <point x="401.5910714285714" y="738.9928571428571"/>
      <point x="354.7517857142857" y="756.0"/>
      <point x="310.6714285714286" y="756.0" type="curve" smooth="yes"/>
      <point x="266.34285714285716" y="756.0"/>
      <point x="217.525" y="742.2410714285714"/>
      <point x="175.03571428571428" y="703.4160714285714" type="curve" smooth="yes"/>
      <point x="127.70714285714286" y="660.3357142857143"/>
      <point x="112.53214285714286" y="600.5910714285715"/>
      <point x="112.53214285714286" y="516.4821428571429" type="curve" smooth="yes"/>
      <point x="112.53214285714286" y="499.0" type="line"/>
      <point x="52.2625" y="499.0" type="line" smooth="yes"/>
      <point x="36.67857142857143" y="499.0"/>
      <point x="28.598214285714285" y="477.58392857142854"/>
      <point x="28.598214285714285" y="452.67857142857144" type="curve" smooth="yes"/>
      <point x="28.598214285714285" y="439.02142857142854"/>
      <point x="31.014285714285712" y="437.1892857142857"/>
      <point x="38.09464285714286" y="437.1892857142857" type="curve" smooth="yes"/>
      <point x="117.53214285714286" y="437.1892857142857" type="line"/>
      <point x="117.53214285714286" y="84.10357142857143" type="line" smooth="yes"/>
      <point x="117.53214285714286" y="-136.13035714285715"/>
      <point x="95.84642857142858" y="-175.525"/>
      <point x="17.34285714285714" y="-175.525" type="curve" smooth="yes"/>
      <point x="-27.27678571428571" y="-175.525"/>
      <point x="-85.07142857142857" y="-156.00714285714287"/>
      <point x="-108.91785714285714" y="-147.0" type="curve" smooth="yes"/>
      <point x="-115.33392857142857" y="-145.41607142857143"/>
      <point x="-121.50178571428572" y="-142.6642857142857"/>
      <point x="-123.91785714285714" y="-142.6642857142857" type="curve" smooth="yes"/>
      <point x="-129.83035714285714" y="-142.6642857142857"/>
      <point x="-135.49464285714285" y="-151.825"/>
      <point x="-135.49464285714285" y="-171.48928571428573" type="curve" smooth="yes"/>
      <point x="-135.49464285714285" y="-186.06607142857143"/>
      <point x="-131.91071428571428" y="-200.39464285714286"/>
      <point x="-119.66964285714286" y="-206.475" type="curve" smooth="yes"/>
      <point x="-103.50892857142857" y="-215.475"/>
      <point x="-31.385714285714286" y="-244.0"/>
    </contour>
  </outline>
</glyph>
<glyph name="g" format="2">
  <advance width="617.0446428571429"/>
  <unicode hex="0067"/>
  <anchor x="275.91964285714283" y="-244.0" name="bottom"/>
  <anchor x="345.91964285714283" y="524.0" name="top"/>
  <outline>
    <contour>
      <point x="326.49642857142857" y="-244.0" type="curve" smooth="yes"/>
      <point x="374.3071428571429" y="-244.0"/>
      <point x="429.8767857142857" y="-228.0"/>
      <point x="472.11785714285713" y="-188.4232142857143" type="curve" smooth="yes"/>
      <point x="513.6946428571429" y="-149.51071428571427"/>
      <point x="542.3589285714286" y="-88.85357142857143"/>
      <point x="542.3589285714286" y="-0.5392857142857146" type="curve" smooth="yes"/>
      <point x="542.3589285714286" y="252.91071428571428"/>
      <point x="543.6071428571429" y="381.94107142857143"/>
      <point x="555.5267857142857" y="448.7660714285714" type="curve"/>
      <point x="560.9428571428572" y="448.7660714285714"/>
      <point x="569.1910714285714" y="464.9267857142857"/>
      <point x="569.1910714285714" y="486.6714285714286" type="curve" smooth="yes"/>
      <point x="569.1910714285714" y="494.58392857142854"/>
      <point x="566.6071428571429" y="495.58392857142854"/>
      <point x="563.9428571428572" y="496.0" type="curve" smooth="yes"/>
      <point x="454.90535714285716" y="515.4964285714286"/>
      <point x="360.475" y="524.0"/>
      <point x="315.43035714285713" y="524.0" type="curve" smooth="yes"/>
      <point x="234.28392857142856" y="524.0"/>
      <point x="175.19642857142856" y="483.16785714285714"/>
      <point x="126.6125" y="417.0" type="curve" smooth="yes"/>
      <point x="75.6125" y="348.0"/>
      <point x="72.6125" y="141.41607142857143"/>
      <point x="72.6125" y="83.3875" type="curve" smooth="yes"/>
      <point x="72.6125" y="63.716071428571425"/>
      <point x="73.6125" y="50.13214285714286"/>
      <point x="76.19642857142857" y="40.3875" type="curve" smooth="yes"/>
      <point x="82.02857142857142" y="12.744642857142857"/>
      <point x="144.7375" y="-13.0"/>
      <point x="158.65" y="-13.0" type="curve" smooth="yes"/>
      <point x="217.48928571428573" y="-13.0"/>
      <point x="383.16785714285714" y="193.7732142857143"/>
      <point x="428.1232142857143" y="305.9035714285714" type="curve"/>
      <point x="424.7" y="236.37857142857143"/>
      <point x="424.9482142857143" y="121.51071428571429"/>
      <point x="424.53214285714284" y="56.65" type="curve" smooth="yes"/>
      <point x="423.2839285714286" y="-141.53214285714284"/>
      <point x="393.0285714285714" y="-170.11607142857142"/>
      <point x="316.60535714285714" y="-170.11607142857142" type="curve" smooth="yes"/>
      <point x="205.0142857142857" y="-170.11607142857142"/>
      <point x="112.39464285714286" y="-116.76607142857142"/>
      <point x="100.81785714285715" y="-116.76607142857142" type="curve" smooth="yes"/>
      <point x="94.15357142857142" y="-116.76607142857142"/>
      <point x="88.65714285714286" y="-128.34285714285716"/>
      <point x="88.65714285714286" y="-146.50357142857143" type="curve" smooth="yes"/>
      <point x="88.65714285714286" y="-159.83214285714286"/>
      <point x="91.825" y="-179.7375"/>
      <point x="106.14642857142857" y="-186.06607142857143" type="curve" smooth="yes"/>
      <point x="155.97142857142856" y="-209.8982142857143"/>
      <point x="236.9125" y="-244.0"/>
    </contour>
    <contour>
      <point x="211.3517857142857" y="94.00892857142858" type="curve" smooth="yes"/>
      <point x="201.01607142857142" y="94.00892857142858"/>
      <point x="197.43214285714285" y="99.59285714285716"/>
      <point x="197.43214285714285" y="145.5857142857143" type="curve" smooth="yes"/>
      <point x="197.43214285714285" y="351.06607142857143"/>
      <point x="238.11785714285713" y="469.7660714285714"/>
      <point x="309.46785714285716" y="469.7660714285714" type="curve" smooth="yes"/>
      <point x="338.73035714285714" y="469.7660714285714"/>
      <point x="380.3357142857143" y="466.01428571428573"/>
      <point x="435.875" y="454.175" type="curve"/>
      <point x="411.35" y="309.8464285714286"/>
      <point x="237.69464285714287" y="94.00892857142858"/>
    </contour>
  </outline>
</glyph>
